<svg xmlns="http://www.w3.org/2000/svg" width="53" height="32" viewBox="0 0 53 32">
    <path fill="#191161" fill-rule="evenodd" d="M33.89 5.416c-.33.571-1.22.674-1.988.23-.769-.443-1.124-1.265-.795-1.836.33-.57 1.22-.674 1.988-.23.768.443 1.124 1.265.794 1.836m-3.868 7.526a1.633 1.633 0 1 1 0-3.266 1.633 1.633 0 0 1 0 3.266m-8.127-2.047a3.606 3.606 0 1 1-1.866-6.966 3.606 3.606 0 0 1 1.866 6.966m-7.22 4.217c-.05.886-.623 1.575-1.28 1.538-.659-.036-1.153-.783-1.104-1.67.049-.885.622-1.574 1.28-1.538.658.037 1.152.784 1.103 1.67m37.811-6.24c.168.627-.278 1.392-1.237 2.242-.948.762-2.764 1.93-6.223 3.49-4.69 2.114-10.905 4.251-17.499 6.018-6.593 1.767-13.044 3.023-18.164 3.537-3.775.38-5.932.276-7.134.09-1.255-.258-2.024-.696-2.192-1.324-.44-1.642 3.309-4.208 9.457-6.835.197.918.484 1.807.862 2.648a20.52 20.52 0 0 1-.08-3.142c.057-1.031.197-2.044.428-3.025a16.687 16.687 0 0 1 2.325-5.434 16.036 16.036 0 0 1 3.98-4.161 15.336 15.336 0 0 1 2.46-1.455c.858-.41 1.754-.743 2.677-.984.92-.25 1.861-.413 2.81-.484a15.154 15.154 0 0 1 2.857.032c.952.092 1.894.288 2.822.552.23.068.46.147.69.219l.68.252.673.278.66.312a16.712 16.712 0 0 1 4.73 3.542 17.54 17.54 0 0 1 1.885 2.404 20.597 20.597 0 0 1 1.503 2.761 13.268 13.268 0 0 0-.575-2.724c6.636-.8 11.165-.452 11.605 1.19zm-38.017 17.98c4.261-.673 9.027-1.698 13.921-3.01 4.894-1.31 9.534-2.806 13.561-4.355-1.29 5.622-5.563 10.364-11.523 11.961-5.96 1.597-12.03-.373-15.96-4.597z"/>
</svg>
