<svg xmlns="http://www.w3.org/2000/svg" viewBox="0 0 549 200">
    <path fill="#FFF" fill-rule="evenodd" d="M163.36 64.66h70.011v23.336h-23.337v72.772a868.298 868.298 0 0 0-23.338 2.16V87.997H163.36V64.66zM70.011 87.995H23.337v23.338h35.006v23.337H23.337v57.817c-3.901 1.194-7.791 2.416-11.669 3.665A827.49 827.49 0 0 0 0 200V64.66h70.011v23.336zm303.383 51.595l11.669 1.318v23.337a865.824 865.824 0 0 0-23.337-2.476 881.47 881.47 0 0 0-35.006-2.538V64.66h23.338v72.77l11.668 1.003 11.668 1.158zM128.354 64.66h23.337v102.696a853.793 853.793 0 0 0-14.902 2.321 869.667 869.667 0 0 0-43.441 8.29c-3.9.847-7.788 1.72-11.669 2.621V64.659h23.338v87.518l11.668-2.286 11.669-2.12V64.658zm163.36 0h23.337v94.038a876.999 876.999 0 0 0-35.005-.689v-.058h-.059v.058a895.928 895.928 0 0 0-23.279.306 851.74 851.74 0 0 0-11.668.383V64.659h23.337v70.088l11.61-.076h.06l11.668.076V64.659zm233.372 0h23.337v135.27l-23.343-7.168-23.33-61.917v55.49l-23.338-5.751V64.659h23.337l23.337 61.934V64.659zm-81.68 85.233V87.996H420.07v57.818l3.233.525 8.435 1.43 11.668 2.123zM396.732 64.66h70.011v113.306c-3.879-.842-7.769-1.66-11.668-2.452-3.88-.788-7.77-1.55-11.669-2.286a884.973 884.973 0 0 0-20.103-3.551 867.092 867.092 0 0 0-26.57-3.957V64.66zM82.21 10.054V0h30.729v10.054H102.6v31.243H92.49V10.054H82.21zm318.986 21.214h13.846V10.054h-13.846v21.214zm-10.384 10.054V0h34.613v41.322h-34.613zm75.931-31.268h-20.762v5.568h15.636v10.054h-15.636v15.621h-10.383V0h31.145v10.054zm-105.25 0h-21.18v5.568h15.636v10.054h-15.636v5.592h21.18v10.055l-31.563-.026V0h31.563v10.054zm-165.186 0h-21.18v5.568h15.637v10.054h-15.636v5.592h21.18v10.055h-31.563V0h31.562v10.054zm73.804 31.243V0h10.384v41.297H270.11zm51.03-31.243h-21.179v5.568h21.179v25.675l-31.562.004V31.247h21.178v-5.571H289.58V0h31.562v10.054zm-85.603 9.102H249.4v-9.102h-13.863v9.102zM254.95 29.21l6.981 12.091-11.612-.004-6.978-12.087h-7.803v12.087h-10.384V0h34.63v29.21h-4.834zM145.158 15.62V0h10.383v41.297h-10.383V25.676h-13.924v15.621h-10.382V0h10.382v15.621h13.924z"/>
</svg>
