<?xml version="1.0" encoding="utf-8"?>
<!-- Generator: Adobe Illustrator 23.0.3, SVG Export Plug-In . SVG Version: 6.00 Build 0)  -->
<svg version="1.1" id="Layer_1" xmlns="http://www.w3.org/2000/svg" xmlns:xlink="http://www.w3.org/1999/xlink" x="0px" y="0px"
	 viewBox="0 0 1080 1920" style="enable-background:new 0 0 1080 1920;" xml:space="preserve">
<style type="text/css">
	.st0{clip-path:url(#SVGID_1_);}
	.st1{clip-path:url(#SVGID_2_);fill:url(#SVGID_3_);}
	.st2{clip-path:url(#SVGID_2_);}
	.st3{fill:#FFFFFF;}
	.st4{clip-path:url(#SVGID_2_);fill:url(#SVGID_4_);}
	.st5{clip-path:url(#SVGID_2_);fill:url(#SVGID_5_);}
	.st6{clip-path:url(#SVGID_2_);fill-rule:evenodd;clip-rule:evenodd;fill:url(#SVGID_6_);}
	.st7{clip-path:url(#SVGID_2_);fill-rule:evenodd;clip-rule:evenodd;fill:url(#SVGID_7_);}
	.st8{clip-path:url(#SVGID_2_);fill:url(#SVGID_8_);}
	.st9{fill:url(#SVGID_9_);}
	.st10{fill:url(#SVGID_10_);}
	.st11{fill:url(#SVGID_11_);}
	.st12{fill:#51B189;}
	.st13{fill:url(#SVGID_12_);}
	.st14{fill:url(#SVGID_13_);}
	.st15{fill:url(#SVGID_14_);}
	.st16{fill:url(#SVGID_15_);}
	.st17{fill:url(#SVGID_16_);}
	.st18{fill:url(#SVGID_17_);}
	.st19{fill:url(#SVGID_18_);}
	.st20{fill:url(#SVGID_19_);}
	.st21{fill:url(#SVGID_20_);}
	.st22{clip-path:url(#SVGID_2_);fill:#51B189;}
	.st23{fill:#25205E;stroke:#25205E;stroke-width:1.4163;stroke-miterlimit:10;}
	.st24{fill:#EEDFD4;}
	.st25{fill:#E0EAAC;}
	.st26{fill:#FCBA92;}
	.st27{opacity:0.5;fill:#FFFFFF;}
	.st28{fill:#FBAF81;}
	.st29{opacity:0.15;fill:#A29186;}
	.st30{fill:#FCCAAB;}
	.st31{fill:#CE8865;}
	.st32{opacity:0.3;fill:#81695A;}
	.st33{fill:#FF8C65;}
	.st34{fill:#77CBCF;stroke:#77CBCF;stroke-width:1.4163;stroke-miterlimit:10;}
	.st35{opacity:0.2;fill:#81695A;}
	.st36{fill:#231910;}
	.st37{fill:#FFE2D8;}
	.st38{fill:#FFEEE8;}
	.st39{opacity:0.2;fill:#A7978D;}
	.st40{fill:#BA472D;}
	.st41{opacity:0.2;fill:#D17A38;}
	.st42{opacity:0.35;fill:#D17A38;}
	.st43{opacity:0.5;fill:#D17A38;}
	.st44{opacity:0.2;fill:#9A877B;}
	.st45{fill:#FAB9A2;}
	.st46{opacity:0.2;fill:#927D70;}
	.st47{opacity:0.2;fill:#D69C38;}
	.st48{opacity:0.3;fill:#927D70;}
	.st49{fill:#9CC940;}
	.st50{fill:none;}
	.st51{fill:#ECF2CB;}
	.st52{fill:#FCC4A3;}
	.st53{opacity:0.2;fill:#A29186;}
	.st54{opacity:0.25;fill:#A29186;}
	.st55{fill:#CF8A15;}
	.st56{fill:#25205E;stroke:#25205E;stroke-width:1.1483;stroke-miterlimit:10;}
	.st57{fill:none;stroke:#FEF0EC;stroke-width:1.4163;stroke-miterlimit:10;}
	.st58{opacity:0.2;}
	.st59{fill:#FFFFFF;stroke:#1B1464;stroke-width:6;stroke-miterlimit:10;}
</style>
<g>
	<defs>
		<path id="SVGID_23_" d="M976.7,1750H103.3c-30.6,0-55.3-24.8-55.3-55.3V225.3c0-30.6,24.8-55.3,55.3-55.3h873.4
			c30.6,0,55.3,24.8,55.3,55.3v1469.4C1032,1725.2,1007.2,1750,976.7,1750z"/>
	</defs>
	<clipPath id="SVGID_1_">
		<use xlink:href="#SVGID_23_"  style="overflow:visible;"/>
	</clipPath>
	<g class="st0">
		<g>
			<defs>
				<rect id="SVGID_25_" x="-97.6" y="102.6" width="2030" height="1127.4"/>
			</defs>
			<clipPath id="SVGID_2_">
				<use xlink:href="#SVGID_25_"  style="overflow:visible;"/>
			</clipPath>
			<linearGradient id="SVGID_3_" gradientUnits="userSpaceOnUse" x1="917.4203" y1="1231.0756" x2="917.4203" y2="111.988">
				<stop  offset="0" style="stop-color:#51B189"/>
				<stop  offset="2.740759e-02" style="stop-color:#4EA987"/>
				<stop  offset="0.1809" style="stop-color:#427F7A"/>
				<stop  offset="0.3378" style="stop-color:#375D70"/>
				<stop  offset="0.4966" style="stop-color:#2F4268"/>
				<stop  offset="0.6581" style="stop-color:#2A2F62"/>
				<stop  offset="0.8237" style="stop-color:#26245F"/>
				<stop  offset="1" style="stop-color:#25205E"/>
			</linearGradient>
			<rect x="-97.6" y="102.6" class="st1" width="2030" height="1144.3"/>
			<g class="st2">
				<path class="st3" d="M1904.9,426.3c-1.8-3-65.8,36.3-174.6,97.3c-192.1,107.7-199.7,113.3-195.8,120
					c3.2,5.4,12.7,4.9,199.8-113.2c32.7-20.7,61.6-38.2,85.9-52.6c1-0.6,2-1.2,2.9-1.7c4.7-2.8,9.1-5.3,13-7.6
					c4.5-2.6,8.6-5,12.2-7.2c4.4-2.6,8.3-4.9,11.9-7c4.3-2.5,8.2-4.8,11.7-6.9C1893.9,434.5,1905.6,427.5,1904.9,426.3z"/>
				<path class="st3" d="M388,258.5c-1.8-3-65.8,36.3-174.6,97.3C21.3,463.6,13.7,469.2,17.7,475.9c3.2,5.4,12.7,4.9,199.8-113.2
					c32.7-20.7,61.6-38.2,85.9-52.6c1-0.6,2-1.2,2.9-1.7c4.7-2.8,9.1-5.3,13-7.6c4.5-2.6,8.6-5,12.2-7.2c4.4-2.6,8.3-4.9,11.9-7
					c4.3-2.5,8.2-4.8,11.7-6.9C377.1,266.8,388.8,259.8,388,258.5z"/>
				<path class="st3" d="M1150.1,199.4c24.5-14.9,45.9-27.6,64-38.1c0.7-0.4,1.4-0.8,2.1-1.2c3.5-2,6.8-3.9,9.7-5.6
					c3.3-1.9,6.4-3.7,9.1-5.3c3.2-1.9,6.2-3.6,8.8-5.1c3.2-1.8,6.1-3.5,8.7-5c16.3-9.4,25-14.5,24.6-15.1c-0.8-1.5-48.5,27-129,72.2
					c-142,79.8-147.7,83.7-145.8,87C1003.9,285.6,1010.4,284.3,1150.1,199.4z"/>
				<path class="st3" d="M14.5,308.2c3.7,0,6.7-3,6.7-6.7c0-3.7-3-6.7-6.7-6.7s-6.7,3-6.7,6.7C7.8,305.2,10.8,308.2,14.5,308.2z"/>
				<path class="st3" d="M795.1,732.5c3.7,0,6.7-3,6.7-6.7s-3-6.7-6.7-6.7c-3.7,0-6.7,3-6.7,6.7S791.4,732.5,795.1,732.5z"/>
				<path class="st3" d="M1610.7,170.5c-3.7,0-6.7,3-6.7,6.7c0,3.7,3,6.7,6.7,6.7s6.7-3,6.7-6.7
					C1617.4,173.5,1614.4,170.5,1610.7,170.5z"/>
				<path class="st3" d="M595.8,312c3.7,0,6.7-3,6.7-6.7c0-3.7-3-6.7-6.7-6.7c-3.7,0-6.7,3-6.7,6.7C589.1,309,592.1,312,595.8,312z"
					/>
				<path class="st3" d="M1831.4,763.1c-3.7,0-6.7,3-6.7,6.7c0,3.7,3,6.7,6.7,6.7c3.7,0,6.7-3,6.7-6.7
					C1838.1,766.1,1835.1,763.1,1831.4,763.1z"/>
				<path class="st3" d="M1665.1,305c-3.7,0-6.7,3-6.7,6.7c0,3.7,3,6.7,6.7,6.7c3.7,0,6.7-3,6.7-6.7
					C1671.8,308,1668.8,305,1665.1,305z"/>
				<circle class="st3" cx="1495.2" cy="277.5" r="6.7"/>
				<path class="st3" d="M293.9,678.9c0-2.5-2-4.5-4.5-4.5c-2.5,0-4.5,2-4.5,4.5c0,2.5,2,4.5,4.5,4.5
					C291.9,683.4,293.9,681.4,293.9,678.9z"/>
				<path class="st3" d="M-40.9,1106.3c-2.5,0-4.5,2-4.5,4.5s2,4.5,4.5,4.5c2.5,0,4.5-2,4.5-4.5S-38.3,1106.3-40.9,1106.3z"/>
				<path class="st3" d="M478.5,190.9c-2.5,0-4.5,2-4.5,4.5c0,2.5,2,4.5,4.5,4.5c2.5,0,4.5-2,4.5-4.5C483,193,481,190.9,478.5,190.9
					z"/>
				<path class="st3" d="M17.3,570.6c0-2.5-2-4.5-4.5-4.5c-2.5,0-4.5,2-4.5,4.5c0,2.5,2,4.5,4.5,4.5
					C15.3,575.2,17.3,573.1,17.3,570.6z"/>
				<path class="st3" d="M831.5,327.3c2.5,0,4.5-2,4.5-4.5c0-2.5-2-4.5-4.5-4.5c-2.5,0-4.5,2-4.5,4.5
					C826.9,325.3,828.9,327.3,831.5,327.3z"/>
				<path class="st3" d="M363.4,388c2.5,0,4.5-2,4.5-4.5c0-2.5-2-4.5-4.5-4.5c-2.5,0-4.5,2-4.5,4.5C358.9,385.9,360.9,388,363.4,388
					z"/>
				<path class="st3" d="M1610.2,443.8c2.5,0,4.5-2,4.5-4.5c0-2.5-2-4.5-4.5-4.5c-2.5,0-4.5,2-4.5,4.5
					C1605.6,441.8,1607.7,443.8,1610.2,443.8z"/>
				<path class="st3" d="M123,154.8c2.5,0,4.5-2,4.5-4.5c0-2.5-2-4.5-4.5-4.5c-2.5,0-4.5,2-4.5,4.5
					C118.4,152.8,120.4,154.8,123,154.8z"/>
				<path class="st3" d="M492.4,703.5c-1.3,0-2.4,1.1-2.4,2.4c0,1.3,1.1,2.4,2.4,2.4c1.3,0,2.4-1.1,2.4-2.4
					C494.8,704.6,493.7,703.5,492.4,703.5z"/>
				<path class="st3" d="M713.6,132.5c0,1.3,1.1,2.4,2.4,2.4c1.3,0,2.4-1.1,2.4-2.4c0-1.3-1.1-2.4-2.4-2.4
					C714.7,130.1,713.6,131.2,713.6,132.5z"/>
				<path class="st3" d="M-39.2,170.6c0,1.3,1.1,2.4,2.4,2.4c1.3,0,2.4-1.1,2.4-2.4c0-1.3-1.1-2.4-2.4-2.4
					C-38.1,168.2-39.2,169.2-39.2,170.6z"/>
				<path class="st3" d="M1112.6,696.6c0,1.3,1.1,2.4,2.4,2.4c1.3,0,2.4-1.1,2.4-2.4c0-1.3-1.1-2.4-2.4-2.4
					C1113.6,694.2,1112.6,695.2,1112.6,696.6z"/>
				<path class="st3" d="M1461.2,1208c-1.3,0-2.4,1.1-2.4,2.4c0,1.3,1.1,2.4,2.4,2.4c1.3,0,2.4-1.1,2.4-2.4
					C1463.6,1209.1,1462.5,1208,1461.2,1208z"/>
				<path class="st3" d="M1862,983.4c-1.3,0-2.4,1.1-2.4,2.4c0,1.3,1.1,2.4,2.4,2.4s2.4-1.1,2.4-2.4
					C1864.4,984.5,1863.4,983.4,1862,983.4z"/>
				<path class="st3" d="M1012.9,187.6c-1.3,0-2.4,1.1-2.4,2.4c0,1.3,1.1,2.4,2.4,2.4c1.3,0,2.4-1.1,2.4-2.4
					C1015.3,188.6,1014.3,187.6,1012.9,187.6z"/>
				<path class="st3" d="M1428.8,166.4c-1.3,0-2.4,1.1-2.4,2.4c0,1.3,1.1,2.4,2.4,2.4c1.3,0,2.4-1.1,2.4-2.4
					C1431.2,167.5,1430.1,166.4,1428.8,166.4z"/>
				<path class="st3" d="M20.4,805.5c-2.5,0-4.5,2-4.5,4.5c0,2.5,2,4.5,4.5,4.5c2.5,0,4.5-2,4.5-4.5C25,807.6,23,805.5,20.4,805.5z"
					/>
				<path class="st3" d="M1676.2,1140c-2.5,0-4.5,2-4.5,4.5c0,2.5,2,4.5,4.5,4.5c2.5,0,4.5-2,4.5-4.5
					C1680.8,1142.1,1678.7,1140,1676.2,1140z"/>
				<path class="st3" d="M1791.2,364.7c3.7,0,6.7-3,6.7-6.7s-3-6.7-6.7-6.7c-3.7,0-6.7,3-6.7,6.7S1787.5,364.7,1791.2,364.7z"/>
				<path class="st3" d="M1010.6,775.6c-3.7,0-6.7,3-6.7,6.7c0,3.7,3,6.7,6.7,6.7c3.7,0,6.7-3,6.7-6.7
					C1017.3,778.6,1014.3,775.6,1010.6,775.6z"/>
				<path class="st3" d="M290.8,238.3c-3.7,0-6.7,3-6.7,6.7c0,3.7,3,6.7,6.7,6.7c3.7,0,6.7-3,6.7-6.7
					C297.5,241.3,294.5,238.3,290.8,238.3z"/>
				<path class="st3" d="M1166.4,328c0,3.7,3,6.7,6.7,6.7s6.7-3,6.7-6.7c0-3.7-3-6.7-6.7-6.7S1166.4,324.3,1166.4,328z"/>
				<path class="st3" d="M1159.4,116.5c0,3.7,3,6.7,6.7,6.7c3.7,0,6.7-3,6.7-6.7c0-3.7-3-6.7-6.7-6.7
					C1162.4,109.8,1159.4,112.8,1159.4,116.5z"/>
				
					<ellipse transform="matrix(0.7071 -0.7071 0.7071 0.7071 -591.8655 223.8119)" class="st3" cx="-25.8" cy="826.4" rx="6.7" ry="6.7"/>
				<path class="st3" d="M1520.8,735.4c0-2.5-2-4.5-4.5-4.5c-2.5,0-4.5,2-4.5,4.5c0,2.5,2,4.5,4.5,4.5
					C1518.8,739.9,1520.8,737.9,1520.8,735.4z"/>
				<path class="st3" d="M1846.5,1162.8c-2.5,0-4.5,2-4.5,4.5c0,2.5,2,4.5,4.5,4.5c2.5,0,4.5-2,4.5-4.5
					C1851,1164.8,1849,1162.8,1846.5,1162.8z"/>
				<path class="st3" d="M1325.4,252c0,2.5,2,4.5,4.5,4.5c2.5,0,4.5-2,4.5-4.5c0-2.5-2-4.5-4.5-4.5
					C1327.5,247.4,1325.4,249.5,1325.4,252z"/>
				<path class="st3" d="M1792.8,622.6c-2.5,0-4.5,2-4.5,4.5c0,2.5,2,4.5,4.5,4.5c2.5,0,4.5-2,4.5-4.5
					C1797.4,624.6,1795.4,622.6,1792.8,622.6z"/>
				<path class="st3" d="M974.2,374.8c-2.5,0-4.5,2-4.5,4.5c0,2.5,2,4.5,4.5,4.5c2.5,0,4.5-2,4.5-4.5
					C978.7,376.8,976.7,374.8,974.2,374.8z"/>
				<path class="st3" d="M896.6,130.9c-2.5,0-4.5,2-4.5,4.5c0,2.5,2,4.5,4.5,4.5c2.5,0,4.5-2,4.5-4.5
					C901.2,132.9,899.1,130.9,896.6,130.9z"/>
				<circle class="st3" cx="206.7" cy="495.7" r="4.5"/>
				<path class="st3" d="M1310.8,762.4c0,1.3,1.1,2.4,2.4,2.4c1.3,0,2.4-1.1,2.4-2.4c0-1.3-1.1-2.4-2.4-2.4
					C1311.9,760,1310.8,761.1,1310.8,762.4z"/>
				<path class="st3" d="M1094.8,189c0-1.3-1.1-2.4-2.4-2.4c-1.3,0-2.4,1.1-2.4,2.4c0,1.3,1.1,2.4,2.4,2.4
					C1093.8,191.4,1094.8,190.3,1094.8,189z"/>
				<path class="st3" d="M690.7,750.7c-1.3,0-2.4,1.1-2.4,2.4c0,1.3,1.1,2.4,2.4,2.4c1.3,0,2.4-1.1,2.4-2.4
					C693.1,751.8,692,750.7,690.7,750.7z"/>
				<path class="st3" d="M341.6,556.9c-1.3,0-2.4,1.1-2.4,2.4c0,1.3,1.1,2.4,2.4,2.4c1.3,0,2.4-1.1,2.4-2.4
					C344,557.9,342.9,556.9,341.6,556.9z"/>
				<path class="st3" d="M-56.4,1039.9c-1.3,0-2.4,1.1-2.4,2.4c0,1.3,1.1,2.4,2.4,2.4c1.3,0,2.4-1.1,2.4-2.4
					C-54,1041-55.1,1039.9-56.4,1039.9z"/>
				<path class="st3" d="M793.1,246.5c0,1.3,1.1,2.4,2.4,2.4c1.3,0,2.4-1.1,2.4-2.4c0-1.3-1.1-2.4-2.4-2.4
					C794.2,244.1,793.1,245.1,793.1,246.5z"/>
				<path class="st3" d="M1785.2,862c-2.5,0-4.5,2-4.5,4.5c0,2.5,2,4.5,4.5,4.5c2.5,0,4.5-2,4.5-4.5
					C1789.7,864.1,1787.7,862,1785.2,862z"/>
				<path class="st3" d="M1802.1,176.9c-2.5,0-4.5,2-4.5,4.5c0,2.5,2,4.5,4.5,4.5c2.5,0,4.5-2,4.5-4.5
					C1806.6,179,1804.6,176.9,1802.1,176.9z"/>
				<path class="st3" d="M129.4,1196.5c-2.5,0-4.5,2-4.5,4.5c0,2.5,2,4.5,4.5,4.5c2.5,0,4.5-2,4.5-4.5
					C133.9,1198.6,131.9,1196.5,129.4,1196.5z"/>
			</g>
			<linearGradient id="SVGID_4_" gradientUnits="userSpaceOnUse" x1="728.0533" y1="242.7804" x2="728.0533" y2="831.4307">
				<stop  offset="0.2576" style="stop-color:#51B189"/>
				<stop  offset="1" style="stop-color:#25205E;stop-opacity:0"/>
			</linearGradient>
			<path class="st4" d="M728.1,377.8c-190.8,0-345.5,154.7-345.5,345.5s154.7,345.5,345.5,345.5s345.5-154.7,345.5-345.5
				S918.9,377.8,728.1,377.8z M563.2,601.3c-18.1,0-32.8-14.7-32.8-32.8c0-18.1,14.7-32.8,32.8-32.8s32.8,14.7,32.8,32.8
				C596,586.6,581.3,601.3,563.2,601.3z M680.3,673.5c-11.1,0-20.1-9-20.1-20.1s9-20.1,20.1-20.1c11.1,0,20.1,9,20.1,20.1
				S691.4,673.5,680.3,673.5z M809.1,592.5c-41.1,0-74.5-33.3-74.5-74.5s33.3-74.5,74.5-74.5s74.5,33.3,74.5,74.5
				S850.2,592.5,809.1,592.5z"/>
			<linearGradient id="SVGID_5_" gradientUnits="userSpaceOnUse" x1="1366.1244" y1="321.5938" x2="1370.3593" y2="651.9156">
				<stop  offset="0.2576" style="stop-color:#51B189"/>
				<stop  offset="1" style="stop-color:#25205E;stop-opacity:0"/>
			</linearGradient>
			<path class="st5" d="M1369.1,432.1c-66.6,0-120.6,54-120.6,120.6c0,66.6,54,120.6,120.6,120.6c66.6,0,120.6-54,120.6-120.6
				C1489.7,486.1,1435.7,432.1,1369.1,432.1z M1296.4,511.5c-7.3,0-13.2-5.9-13.2-13.2s5.9-13.2,13.2-13.2s13.2,5.9,13.2,13.2
				S1303.7,511.5,1296.4,511.5z M1395.5,506c-14.6,0-26.4-11.8-26.4-26.4c0-14.6,11.8-26.4,26.4-26.4c14.6,0,26.4,11.8,26.4,26.4
				C1421.9,494.2,1410,506,1395.5,506z M1445.1,543c-7.3,0-13.2-5.9-13.2-13.2c0-7.3,5.9-13.2,13.2-13.2c7.3,0,13.2,5.9,13.2,13.2
				C1458.3,537.1,1452.4,543,1445.1,543z"/>
			<linearGradient id="SVGID_6_" gradientUnits="userSpaceOnUse" x1="971.8873" y1="817.0001" x2="1045.998" y2="1100.738">
				<stop  offset="0" style="stop-color:#51B189"/>
				<stop  offset="1" style="stop-color:#25205E;stop-opacity:0"/>
			</linearGradient>
			<path class="st6" d="M1917.5,628.3c-5.4,1.2-10.3,3.6-14.5,7.3c-4.7,3.5-8.1,7.8-10.4,13.1c-0.7,1-1.2,2.1-1.8,3.1
				c-2.5-0.2-5.1-0.2-7.7,0c-5.9,0.4-11.3,2.1-16.2,5.2c-5.3,2.2-9.7,5.7-13.3,10.3c-4.1,4.5-6.7,9.6-8,15.3
				c-2.3,5.6-3,11.4-2.2,17.5c0.9,3.7,1.7,7.4,2.6,11.2c0.3,0.8,0.7,1.5,1,2.2c-4.8,3.8-8.6,8.5-10.4,14.7c-0.1,0.5-0.2,1-0.3,1.5
				c-0.1,0.1-0.2,0.2-0.3,0.3c-3.5-0.7-7.2-1-10.9-1c-0.6,0-1.2,0.1-1.9,0.1c-5.9-2.5-12.4-3.9-19.1-3.9c-4.5,0-8.9,0.9-13,2.4
				c-7.1-9.9-18.1-16.9-30.6-16.9c-22.1,0-41.9,15.7-43.2,38.7c-0.1,1.9-0.1,3.9,0.1,5.8c-8.9,2.1-16.7,7.6-22.4,14.9
				c-5.1-21.2-24.8-33.5-46.5-33.5c-23.2,0-41.2,24-40.4,46c-9-5.3-19.2-6.7-30.6-4.1c-7,1.8-13.2,5.2-18.5,10.2
				c-4.2,4.1-7.5,8.9-9.6,14.3c-2.3-0.3-4.6-0.6-6.9-0.6c-13,0-24.7,6.8-32.4,16.8c-0.2,0.2-0.4,0.4-0.6,0.5
				c-8.1-8.1-19.2-13.2-31.3-13.2c-5,0-9.9,1-14.4,2.7c-1.6-2.2-3.1-4.5-4.7-6.7c-5.3-5.7-11.6-9.8-19-12.2c-3.8-0.7-7.6-1.3-11.4-2
				c-7.6-0.2-14.8,1.4-21.5,4.9c-0.5,0.3-1,0.6-1.5,0.9c-2.8,1.1-5.6,2.4-8.2,4.1c-0.2,0.1-0.5,0.2-0.7,0.4
				c-0.6,0.3-1.1,0.6-1.7,0.9c-5,3-9,6.9-11.9,11.9c-3.8,4.5-6.2,9.8-7.3,15.7c-0.6,2.4-0.9,4.7-1,7c-5.8,0.5-11.3,2-16.5,4.8
				c-9.5,5.5-18.6,14.3-21.2,25.4c-0.2,0.8-0.4,1.6-0.6,2.4c-1.3,0.3-2.6,0.7-3.9,1.2c-0.7-0.7-1.5-1.3-2.2-2
				c-0.6-0.5-1.2-1.1-1.8-1.6c-1.7-1.3-3.5-2.3-5.4-3.2c-4.4-3.1-9.4-5-14.9-5.5c-9.5-2.5-18.3-2.8-27.6,0.4
				c-8.4,2.9-17.1,8.4-21.7,16.3c-0.7,1.1-1.3,2.3-2,3.4c-0.5,0.9-1,1.8-1.4,2.7c-3.7,0.9-7.2,2-10.5,3.3c-1-0.1-2.1-0.1-3.1-0.1
				c-7.6,0-14.5,2.9-20.3,7.4c-0.2,0-0.4,0-0.6,0c-3.7,0.9-7.4,1.8-11.2,2.8c-0.5,0.2-1,0.5-1.5,0.7c-8.8-10.7-22.6-16.8-37.4-16.8
				c-17.8,0-32.7,13.7-38.4,30.1c-2-0.6-4-1.2-6.1-1.4c-11.1-1.4-21.6,0.7-31,6.9l-9.3,6.1c-0.8,0.5-1.6,1.1-2.4,1.7
				c-6-2.3-12.3-3.3-18.8-2.9c-0.3,0-0.7,0.1-1,0.1c-0.3-0.2-0.5-0.5-0.8-0.7c-4.2-4.1-9.1-6.8-14.6-8.1c-5.1-2.3-10.5-3.1-16.2-2.5
				c-3.5,0.7-7,1.4-10.5,2.1c-0.4,0.1-0.7,0.3-1.1,0.4c-2.7-3.3-6-6-9.9-8.1c-3.6-1.5-7.2-3-10.8-4.5c-7.6-2-15.2-2-22.8,0.1
				c-3.4,1.4-6.8,2.9-10.3,4.3c-5.6,3.2-10.1,7.5-13.7,12.7c-1.4-1.1-2.9-2-4.4-2.9c-1.3-2.1-2.7-4.2-4-6.3
				c-4.9-5.7-10.9-9.8-17.9-12.3l-9.1-4.5c-5.1-2-10.3-2.6-15.6-1.8c-5.3-0.1-10.4,1.1-15.2,3.5c-5.1,2.2-9.3,5.5-12.6,9.8
				c-0.3,0.3-0.6,0.7-1,1c-12.5-3.9-26.7-1.9-39.1,5.1c-13.5,7.6-28.8,14.3-40.3,24.9c-4.1,4.9-8.4,9.6-13,14.1
				c-2.5,2.3-5.2,4.6-7.8,6.7c-0.9-0.7-1.8-1.4-2.7-2.1c-6.5-3.7-13.5-5.6-20.9-5.6c-1.7-0.1-3.4,0.1-5,0.3
				c-1.6-1.3-3.3-2.6-5.1-3.7c-2.3-1.3-4.6-2.5-7-3.4c-0.3-0.3-0.6-0.6-1-0.9c-3.6-4.2-8-7.3-13.3-9.2c-3.4-0.9-6.8-1.7-10.2-2.6
				c-3.5,0-6.9,0.1-10.4,0.1c-5.4,0.5-10.2,2.3-14.5,5.3c-4.9,2.3-9,5.8-12.2,10.3c-0.8,0.9-1.5,1.8-2.3,2.6
				c-1.2,0.1-2.3,0.1-3.5,0.3c-3.7,1-7.4,2-11.1,2.9c-7.2,3-13.2,7.5-18,13.5c-0.7,0.9-1.3,1.8-1.9,2.6c-2.1-0.4-4.2-0.6-6.5-0.6
				c-8.3,0-16.5,2.1-23.9,5.8c-0.4-0.3-0.9-0.5-1.3-0.8c-4.6-3.7-9.8-6.1-15.5-7c-5.4-1.8-10.9-2.2-16.6-1.1
				c-5.6,0.7-10.7,2.6-15.2,5.8c-0.2,0.1-0.4,0.2-0.6,0.3c-1.8-2.6-3.8-5-6.4-7.1c-3.1-2.1-6.3-4.2-9.4-6.2
				c-6.8-3.3-14-4.7-21.6-4.1c-3.5,0.7-7,1.5-10.5,2.2c-7,2.4-12.9,6.4-17.8,12c-0.4,0.4-0.8,0.7-1.1,1.1c-4.8,0-9.5,0.8-14.2,2.3
				c-10.7,4.2-19.7,11.3-25.1,21.7c-1.6,3.1-3.4,6.2-4.8,9.4c-0.6,1.1-1.1,2.2-1.6,3.4c-5.8,2.7-10.9,6.4-15.3,11.3
				c-3.5,4.1-6.1,8.6-7.8,13.6c-3.1-0.8-6.2-1.2-9.5-1.2c-1.3,0-2.5,0.1-3.8,0.2c-17.6-11.8-45.7-12.4-59.3,6.5
				c-5.1,7-10.1,14.1-15.2,21.1c-4,5.5-8.3,10.9-11.7,16.8c-3.3,5.6-5.3,12.1-6,18.7c-0.6-0.2-1.3-0.3-1.9-0.5
				c-7.4-0.8-14.6,0.2-21.5,3.1c0.3-1.5-0.1-2-1.1-1.5c-0.8,0.2-1.5,0.4-2.3,0.6c-1.5,0.4-3,0.8-4.5,1.2c-5.5,2-10.2,5.2-14,9.6
				c-2.3,1.9-4.3,4-6,6.4c-3.2-0.8-6.4-1.3-9.8-1.3c-18.2,0-34.1,12.8-39.4,29.6c-3.9-3.8-8.4-6.9-13.1-8.5
				c-9.7-3.3-21-4.2-30.5,0.4c-10.2,4.8-17.3,12.2-22,22.5c-0.6,1.3-1.1,2.6-1.7,4c-0.1,0-0.2,0-0.3,0c-5.5,0-10.7,1.4-15.4,4
				c-0.2,0.1-0.4,0.2-0.5,0.2c-1.1-0.9-2.4-1.8-3.6-2.6c-0.4-0.3-0.8-0.6-1.2-1c-6.8-4.1-14.2-6.2-22.2-6.3c-4.5-0.2-8.8,0.5-12.9,2
				c-2.3,0.7-4.5,1.6-6.7,2.7c-1.8,0.8-3.5,1.7-5.1,2.8c-1.6,0.9-3.1,1.7-4.7,2.6c-5.2,2.5-9.4,6-12.7,10.6
				c-2.4,2.4-4.3,5.1-5.9,8.1h1114.3c2.1,0,4.2,0.1,6.2,0.2h756.8V626.2C1927.1,625.8,1922.2,626.5,1917.5,628.3z"/>
			<linearGradient id="SVGID_7_" gradientUnits="userSpaceOnUse" x1="978.6056" y1="679.9384" x2="908.7299" y2="1116.1324">
				<stop  offset="0.2576" style="stop-color:#51B189"/>
				<stop  offset="1" style="stop-color:#25205E;stop-opacity:0"/>
			</linearGradient>
			<path class="st7" d="M-81.6,565.6c6,1.3,11.4,4,16.2,8.1c5.2,3.9,9.1,8.7,11.6,14.5c0.7,1.1,1.4,2.3,2,3.5c2.8-0.2,5.7-0.2,8.6,0
				c6.6,0.4,12.6,2.3,18,5.8c5.9,2.5,10.8,6.3,14.9,11.5c4.5,5,7.5,10.6,8.9,17.1c2.6,6.2,3.4,12.7,2.5,19.5
				c-1,4.2-1.9,8.3-2.9,12.5c-0.3,0.9-0.8,1.6-1.1,2.5c5.4,4.3,9.5,9.5,11.6,16.4c0.2,0.5,0.3,1.1,0.4,1.7c0.1,0.1,0.2,0.2,0.3,0.3
				c3.9-0.7,8-1.2,12.1-1.2c0.7,0,1.4,0.1,2.1,0.1c6.6-2.8,13.8-4.3,21.3-4.3c5.1,0,9.9,1,14.5,2.7c7.9-11,20.2-18.8,34.1-18.8
				c24.6,0,46.7,17.5,48.1,43.1c0.1,2.1,0.1,4.3-0.2,6.4c10,2.3,18.7,8.5,25,16.6c5.7-23.6,27.6-37.3,51.8-37.3
				c25.9,0,45.9,26.8,45,51.2c10-5.9,21.4-7.5,34.1-4.6c7.9,2,14.7,5.8,20.6,11.4c4.7,4.5,8.3,10,10.7,15.9c2.5-0.4,5.1-0.6,7.7-0.6
				c14.5,0,27.5,7.6,36.1,18.7c0.2,0.2,0.4,0.4,0.6,0.6c9-9.1,21.4-14.8,34.8-14.8c5.6,0,11,1.1,16,3c1.7-2.5,3.5-5,5.2-7.5
				c5.9-6.4,12.9-10.9,21.2-13.5c4.2-0.7,8.5-1.5,12.7-2.2c8.5-0.3,16.5,1.6,24,5.5c0.6,0.3,1.1,0.6,1.7,1c3.2,1.2,6.2,2.7,9.1,4.6
				c0.3,0.1,0.5,0.3,0.8,0.4c0.6,0.3,1.2,0.6,1.9,1c5.6,3.3,10,7.7,13.3,13.2c4.2,5,7,10.9,8.2,17.5c0.7,2.6,1,5.2,1.1,7.8
				c6.4,0.5,12.6,2.3,18.4,5.3c10.6,6.1,20.7,15.9,23.6,28.3c0.2,0.9,0.4,1.8,0.6,2.7c1.4,0.3,2.9,0.8,4.4,1.4
				c0.8-0.7,1.6-1.5,2.4-2.2c0.7-0.6,1.3-1.2,2.1-1.8c1.9-1.4,3.9-2.6,6-3.6c4.9-3.5,10.4-5.6,16.6-6.2c10.5-2.8,20.4-3.1,30.8,0.5
				c9.3,3.2,19.1,9.3,24.2,18.1c0.7,1.3,1.5,2.5,2.2,3.8c0.6,1,1.1,2,1.6,3c4.1,1,8,2.2,11.7,3.7c1.1-0.1,2.3-0.1,3.4-0.1
				c8.4,0,16.2,3.2,22.6,8.2c0.2,0,0.4,0,0.7,0c4.1,1,8.3,2.1,12.4,3.1c0.6,0.2,1.1,0.5,1.7,0.8c9.8-11.9,25.2-18.7,41.7-18.7
				c19.9,0,36.5,15.3,42.8,33.5c2.2-0.7,4.5-1.3,6.8-1.6c12.3-1.5,24.1,0.8,34.6,7.7l10.4,6.8c0.9,0.6,1.8,1.3,2.6,1.9
				c6.7-2.6,13.7-3.7,21-3.2c0.4,0,0.7,0.1,1.1,0.1c0.3-0.3,0.5-0.5,0.8-0.8c4.7-4.5,10.1-7.5,16.3-9.1c5.7-2.5,11.7-3.5,18-2.8
				c3.9,0.8,7.8,1.5,11.7,2.3c0.4,0.1,0.8,0.3,1.2,0.5c3-3.7,6.7-6.7,11-9c4-1.7,8-3.3,12-5c8.5-2.2,16.9-2.2,25.4,0.1
				c3.8,1.6,7.6,3.2,11.4,4.8c6.2,3.6,11.2,8.4,15.3,14.2c1.6-1.2,3.2-2.3,4.9-3.3c1.5-2.3,3-4.6,4.5-7c5.4-6.3,12.1-10.9,20-13.7
				l10.1-5.1c5.7-2.2,11.5-2.8,17.4-2c5.9-0.1,11.5,1.2,16.9,3.9c5.7,2.4,10.4,6.1,14,10.9c0.4,0.4,0.7,0.8,1.1,1.1
				c14-4.3,29.8-2.1,43.6,5.7c15,8.5,32.1,16,44.9,27.8c4.6,5.5,9.4,10.8,14.5,15.7c2.8,2.6,5.8,5.1,8.7,7.5c1-0.8,2-1.5,3-2.3
				c7.2-4.2,15-6.2,23.3-6.2c1.9-0.1,3.8,0.1,5.6,0.3c1.8-1.5,3.7-2.9,5.7-4.1c2.5-1.5,5.1-2.8,7.8-3.8c0.4-0.3,0.7-0.7,1.1-1
				c4-4.7,8.9-8.1,14.8-10.2c3.8-1,7.6-1.9,11.3-2.9c3.8,0,7.7,0.1,11.5,0.1c6,0.6,11.4,2.6,16.2,5.9c5.5,2.6,10,6.4,13.6,11.5
				c0.9,1,1.7,2,2.5,3c1.3,0.1,2.6,0.2,3.9,0.3c4.1,1.1,8.3,2.2,12.4,3.3c8,3.3,14.7,8.3,20.1,15.1c0.8,1,1.4,2,2.1,2.9
				c2.3-0.4,4.7-0.7,7.2-0.7c9.2,0,18.4,2.3,26.6,6.4c0.5-0.3,1-0.6,1.5-0.9c5.1-4.2,10.9-6.7,17.3-7.8c6-2.1,12.2-2.5,18.5-1.2
				c6.2,0.7,11.9,2.9,16.9,6.5c0.2,0.1,0.4,0.3,0.7,0.4c2-2.9,4.3-5.6,7.1-7.9c3.5-2.3,7-4.6,10.5-6.9c7.6-3.7,15.6-5.2,24.1-4.6
				c3.9,0.8,7.8,1.6,11.7,2.5c7.8,2.7,14.4,7.2,19.9,13.3c0.4,0.4,0.8,0.8,1.3,1.2c5.3,0,10.6,0.9,15.8,2.6
				c12,4.7,22,12.6,27.9,24.2c1.8,3.5,3.8,6.9,5.3,10.5c0.7,1.2,1.2,2.5,1.7,3.8c6.5,3,12.2,7.1,17,12.6c3.9,4.6,6.8,9.6,8.7,15.1
				c3.4-0.8,6.9-1.3,10.6-1.3c1.4,0,2.8,0.1,4.2,0.2c19.6-13.1,50.9-13.9,66.1,7.2c5.6,7.8,11.3,15.7,16.9,23.5
				c4.4,6.2,9.3,12.2,13.1,18.8c3.6,6.3,5.9,13.5,6.7,20.9c0.7-0.2,1.4-0.4,2.1-0.6c8.3-0.9,16.3,0.2,24,3.4
				c-0.3-1.6,0.1-2.2,1.2-1.6c0.8,0.2,1.7,0.4,2.5,0.6c1.7,0.4,3.4,0.9,5.1,1.3c6.2,2.3,11.3,5.8,15.6,10.7c2.6,2.1,4.8,4.5,6.7,7.2
				c3.5-0.9,7.2-1.4,10.9-1.4c20.3,0,38,14.3,43.9,33c4.3-4.2,9.4-7.7,14.6-9.5c10.9-3.7,23.4-4.6,34.1,0.4
				c11.3,5.4,19.3,13.6,24.5,25.1c0.7,1.5,1.3,2.9,1.9,4.4c0.1,0,0.2,0,0.3,0c6.2,0,11.9,1.5,17.2,4.4c0.2,0.1,0.4,0.2,0.6,0.3
				c1.3-1,2.6-2,4-2.8c0.4-0.4,0.9-0.7,1.3-1.1c7.6-4.5,15.9-6.9,24.8-7c5-0.2,9.8,0.6,14.4,2.3c2.5,0.8,5,1.8,7.4,3
				c2,0.9,3.9,1.9,5.7,3.1c1.7,1,3.5,1.9,5.2,2.9c5.8,2.8,10.5,6.7,14.1,11.8c2.7,2.7,4.8,5.7,6.5,9H752.6c-2.3,0-4.6,0.1-7,0.2
				H-97.9V563.3C-92.3,562.8-86.8,563.5-81.6,565.6z"/>
			<linearGradient id="SVGID_8_" gradientUnits="userSpaceOnUse" x1="1488.0598" y1="327.9597" x2="1488.0598" y2="1287.1919">
				<stop  offset="0" style="stop-color:#51B189"/>
				<stop  offset="0.1085" style="stop-color:#499781"/>
				<stop  offset="0.3073" style="stop-color:#3C6C75"/>
				<stop  offset="0.5008" style="stop-color:#324B6B"/>
				<stop  offset="0.6848" style="stop-color:#2B3364"/>
				<stop  offset="0.8555" style="stop-color:#27255F"/>
				<stop  offset="1" style="stop-color:#25205E"/>
			</linearGradient>
			<polygon class="st8" points="1993.9,1162.5 1942.2,1132.9 1853.6,1073.8 1783.5,1040.6 1705.9,1055.4 1632.1,1066.5 
				1536.1,1029.5 1443.7,977.8 1381,981.5 1285,1040.6 1203.7,1088.6 1089.3,1118.2 982.2,1158.8 1043.2,1156 1070.8,1173.5 
				1152,1173.5 1229.6,1184.6 1362.5,1177.2 1429,1177.2 1484.4,1177.2 1521.3,1184.6 1550.8,1173.5 1694.8,1166.2 1757.6,1180.9 
				1824.1,1166.2 1886.3,1158 			"/>
			<g class="st2">
				<linearGradient id="SVGID_9_" gradientUnits="userSpaceOnUse" x1="1250.1182" y1="337.1604" x2="1246.0399" y2="1167.0934">
					<stop  offset="0" style="stop-color:#1E1853"/>
					<stop  offset="1.044172e-02" style="stop-color:#1E1853"/>
					<stop  offset="0.3719" style="stop-color:#231E5C"/>
					<stop  offset="1" style="stop-color:#25205E"/>
				</linearGradient>
				<path class="st9" d="M1366.4,436.5l-26.2-37.1c-0.7-1-1.9-1.7-3.2-1.7h-50.2c-2,0-3.6-1.4-3.9-3.4l-4.2-28.1
					c-0.3-1.9-1.9-3.4-3.9-3.4h-16c-2.2,0-3.9-1.8-3.9-3.9v-38.3c0-2.2,1.8-3.9,3.9-3.9l0,0c2.2,0,3.9-1.8,3.9-3.9v-50.7
					c0-2.2-1.8-3.9-3.9-3.9l0,0c-2.2,0-3.9-1.8-3.9-3.9v-70.6c0-2.2-1.8-3.9-3.9-3.9h-2.7c-2.2,0-3.9,1.8-3.9,3.9v70.6
					c0,2.2-1.8,3.9-3.9,3.9h0c-2.2,0-3.9,1.8-3.9,3.9v50.7c0,2.2,1.8,3.9,3.9,3.9h0c2.2,0,3.9,1.8,3.9,3.9v38.3
					c0,2.2-1.8,3.9-3.9,3.9h-16c-2,0-3.6,1.4-3.9,3.4l-4.2,28.1c-0.3,1.9-1.9,3.4-3.9,3.4h-50.2c-1.3,0-2.5,0.6-3.2,1.7l-26.2,37.1
					c-0.5,0.8-0.8,1.7-0.7,2.7l8.1,78.3c0.1,1.4,1,2.5,2.2,3.1l63,30.8h0.1l-0.9,39.9c0,2.1-1.8,3.8-3.9,3.8h-19.9
					c-2.2,0-3.9,1.8-3.9,3.9v31.4c0,2.2,1.8,3.9,3.9,3.9h18.8c2.2,0,4,1.8,3.9,4l-14.9,675.4c0,2.2,1.7,4,3.9,4h114.1
					c2.2,0,4-1.8,3.9-4l-14.7-675.4c0-2.2,1.7-4,3.9-4h18.6c2.2,0,3.9-1.8,3.9-3.9v-31.4c0-2.2-1.8-3.9-3.9-3.9h-19.7
					c-2.1,0-3.9-1.7-3.9-3.8l-0.9-39.9h-0.1l63-30.8c1.2-0.6,2-1.8,2.2-3.1l8.1-78.3C1367.2,438.3,1367,437.3,1366.4,436.5z"/>
				<linearGradient id="SVGID_10_" gradientUnits="userSpaceOnUse" x1="1308.2488" y1="337.4073" x2="1304.1715" y2="1167.1359">
					<stop  offset="0" style="stop-color:#110641"/>
					<stop  offset="4.982096e-02" style="stop-color:#140A45"/>
					<stop  offset="0.2672" style="stop-color:#1E1653"/>
					<stop  offset="0.5348" style="stop-color:#231E5C"/>
					<stop  offset="1" style="stop-color:#25205E"/>
				</linearGradient>
				<path class="st10" d="M1340.2,399.4c-0.7-1-1.9-1.7-3.2-1.7h-50.2c-2,0-3.6-1.4-3.9-3.4l-4.2-28.1c-0.3-1.9-1.9-3.4-3.9-3.4h-16
					c-2.2,0-3.9-1.8-3.9-3.9v-38.3c0-2.2,1.8-3.9,3.9-3.9h0c2.2,0,3.9-1.8,3.9-3.9v-50.7c0-2.2-1.8-3.9-3.9-3.9h0
					c-2.2,0-3.9-1.8-3.9-3.9v-70.6c0-2.2-1.8-3.9-3.9-3.9h-1.4v1138.1h57c2.2,0,4-1.8,3.9-4l-14.7-675.4c0-2.2,1.7-4,3.9-4h18.6
					c2.2,0,3.9-1.8,3.9-3.9v-31.4c0-2.2-1.8-3.9-3.9-3.9h-19.7c-2.1,0-3.9-1.7-3.9-3.8l-0.9-39.9h-0.1l63-30.8
					c1.2-0.6,2-1.8,2.2-3.1l8.1-78.3c0.1-0.9-0.2-1.9-0.7-2.7L1340.2,399.4z"/>
				<linearGradient id="SVGID_11_" gradientUnits="userSpaceOnUse" x1="1300.3219" y1="617.0407" x2="1236.9932" y2="1454.7079">
					<stop  offset="0" style="stop-color:#110641"/>
					<stop  offset="4.982096e-02" style="stop-color:#140A45"/>
					<stop  offset="0.2672" style="stop-color:#1E1653"/>
					<stop  offset="0.5348" style="stop-color:#231E5C"/>
					<stop  offset="1" style="stop-color:#25205E"/>
				</linearGradient>
				<path class="st11" d="M1289,548.1l65.7-29.4l-100.9,10l-4.2,766.2l52.6,0.7l-11.6-660.3c-0.1-3,2.3-5.6,5.3-5.8l16.2-1.3
					c2.2-0.2,3.8-2,3.8-4.1v-16.7c0-2.3-1.8-4.1-4.1-4.2l-18.2-0.4c-2,0-3.6-1.7-3.7-3.7L1289,548.1z"/>
				<g>
					<path class="st12" d="M1163.1,472.8c-5.1-0.4-10.1-0.8-15.1-1.3c0.1,1.1,0.2,2.2,0.4,3.3c6.1,0.6,12.2,1.1,18.3,1.6
						c-0.9-10.4-1.8-20.9-2.8-31.3"/>
					<path class="st12" d="M1186.8,474.4c-5-0.3-10.1-0.6-15.1-1c0.1,1.1,0.2,2.2,0.3,3.3c6.1,0.4,12.2,0.8,18.3,1.2
						c-0.7-10.4-1.3-20.8-2-31.3"/>
					<path class="st12" d="M1210.4,475.5c-5-0.2-10-0.4-15-0.6c0.1,1.1,0.1,2.3,0.2,3.4c6.1,0.3,12.2,0.6,18.3,0.8
						c-0.4-10.4-0.8-20.8-1.2-31.2"/>
					<path class="st12" d="M1234.1,476.1c-5-0.1-10-0.2-15-0.3c0,1.2,0.1,2.3,0.1,3.5c6.1,0.2,12.2,0.3,18.3,0.4
						c-0.2-10.4-0.3-20.8-0.5-31.2"/>
					<path class="st12" d="M1257.8,476.1c-5,0-9.9,0-14.9,0c0,1.2,0,2.4,0,3.6c6.1,0.1,12.2,0.1,18.3,0c0.1-10.4,0.2-20.8,0.3-31.2"
						/>
					<path class="st12" d="M1281.5,475.7c-4.9,0.1-9.9,0.2-14.8,0.3c0,1.2,0,2.4-0.1,3.6c6.1-0.1,12.2-0.2,18.3-0.4
						c0.4-10.4,0.7-20.8,1.1-31.2"/>
					<path class="st12" d="M1305.1,474.7c-4.9,0.3-9.8,0.4-14.7,0.6c0,1.2-0.1,2.5-0.1,3.7c6.1-0.2,12.2-0.5,18.3-0.8
						c0.6-10.4,1.2-20.8,1.8-31.2"/>
					<path class="st12" d="M1328.8,473.2c-4.9,0.4-9.7,0.7-14.6,0.9c-0.1,1.3-0.2,2.5-0.2,3.8c6.1-0.3,12.2-0.7,18.3-1.2
						c0.9-10.4,1.7-20.9,2.6-31.3"/>
					<path class="st12" d="M1352.4,471.3c-4.8,0.5-9.6,0.9-14.4,1.2c-0.1,1.3-0.2,2.6-0.3,3.9c6.1-0.5,12.2-1,18.3-1.6
						c1.1-10.5,2.2-20.9,3.4-31.4"/>
				</g>
				<g>
					<path class="st12" d="M1166.6,512.8c-4.9-0.3-9.7-0.7-14.6-1.1c0.1,0.9,0.2,1.9,0.3,2.8c5.9,0.5,11.7,0.9,17.6,1.3
						c-0.9-8.9-1.8-17.7-2.7-26.6"/>
					<path class="st12" d="M1189.3,514.2c-4.8-0.2-9.7-0.5-14.5-0.8c0.1,0.9,0.2,1.9,0.3,2.8c5.9,0.4,11.7,0.7,17.6,1
						c-0.6-8.8-1.3-17.7-1.9-26.5"/>
					<path class="st12" d="M1212,515.1c-4.8-0.1-9.6-0.3-14.5-0.5c0.1,1,0.1,1.9,0.2,2.9c5.9,0.3,11.8,0.5,17.6,0.7
						c-0.4-8.8-0.8-17.7-1.2-26.5"/>
					<path class="st12" d="M1234.8,515.5c-4.8-0.1-9.6-0.2-14.4-0.3c0,1,0.1,2,0.1,3c5.9,0.2,11.8,0.3,17.6,0.3
						c-0.2-8.8-0.3-17.7-0.5-26.5"/>
					<path class="st12" d="M1257.6,515.6c-4.8,0-9.5,0-14.3,0c0,1,0,2,0,3c5.9,0,11.8,0,17.6,0c0.1-8.8,0.2-17.7,0.3-26.5"/>
					<path class="st12" d="M1280.3,515.2c-4.7,0.1-9.5,0.2-14.2,0.3c0,1,0,2.1-0.1,3.1c5.9-0.1,11.8-0.2,17.6-0.3
						c0.3-8.8,0.7-17.7,1-26.5"/>
					<path class="st12" d="M1303.1,514.4c-4.7,0.2-9.4,0.4-14.1,0.5c0,1.1-0.1,2.1-0.1,3.2c5.9-0.2,11.8-0.4,17.6-0.7
						c0.6-8.8,1.2-17.7,1.8-26.5"/>
					<path class="st12" d="M1328,489.8c-0.7,7.8-1.5,15.6-2.2,23.3c-4.7,0.3-9.3,0.6-14,0.8c-0.1,1.1-0.2,2.2-0.2,3.2
						c5.9-0.3,11.7-0.6,17.6-1c0.8-8.9,1.7-17.7,2.5-26.6C1330.5,489.7,1329.2,489.7,1328,489.8z"/>
					<path class="st12" d="M1351.4,488.1c-0.9,7.8-1.9,15.5-2.8,23.3c-4.6,0.4-9.3,0.7-13.9,1.1c-0.1,1.1-0.2,2.2-0.3,3.3
						c5.9-0.4,11.7-0.8,17.6-1.3c1.1-8.9,2.2-17.8,3.2-26.6C1353.9,488,1352.6,488,1351.4,488.1z"/>
				</g>
				<g>
					<path class="st12" d="M1261.1,363.6c0,2.2,1.8,3.9,3.9,3.9h13.9l-0.2-1.1c-0.3-1.9-1.9-3.4-3.9-3.4h-13.8V363.6z"/>
					<path class="st12" d="M1262.8,262.1c0-1.3-0.7-2.4-1.7-3.1C1261.1,260.3,1261.8,261.4,1262.8,262.1z"/>
					<path class="st12" d="M1289.1,398.9c0.3,1.9,1.9,3.4,3.9,3.4h49.2l-2-2.8c-0.7-1-1.9-1.7-3.2-1.7h-48.1L1289.1,398.9z"/>
					<path class="st12" d="M1318.4,595.1H1301l0,0.7c0,2.1,1.8,3.8,3.9,3.8h17.5v-0.6C1322.4,596.9,1320.6,595.1,1318.4,595.1z"/>
					<path class="st12" d="M1209.7,642.9c0-2.2-1.7-4-3.9-4h-2.2l-14.9,675c0,2.2,1.7,4,3.9,4h2.2L1209.7,642.9z"/>
					<path class="st12" d="M1183,603.6c0-2.2,1.8-3.9,3.9-3.9h19.9c2.1,0,3.9-1.7,3.9-3.8l0.9-39.9h-0.1l-6.1-3l-0.8,38.3
						c0,2.1-1.8,3.8-3.9,3.8h-19.9c-2.2,0-3.9,1.8-3.9,3.9v31.4c0,2.2,1.8,3.9,3.9,3.9h2.2V603.6z"/>
					<path class="st12" d="M1146.3,522l-8.1-78.3c-0.1-0.9,0.2-1.9,0.7-2.7l26.2-37.1c0.7-1,1.9-1.7,3.2-1.7h50.2
						c2,0,3.6-1.4,3.9-3.4l4.2-28.1c0.3-1.9,1.9-3.4,3.9-3.4h16c2.2,0,3.9-1.8,3.9-3.9v-38.3c0-2.2-1.8-3.9-3.9-3.9h0
						c-0.8,0-1.6-0.3-2.2-0.7c0,0,0,0.1,0,0.1v38.3c0,2.2-1.8,3.9-3.9,3.9h-16c-2,0-3.6,1.4-3.9,3.4l-4.2,28.1
						c-0.3,1.9-1.9,3.4-3.9,3.4h-50.2c-1.3,0-2.5,0.6-3.2,1.7l-26.2,37.1c-0.5,0.8-0.8,1.7-0.7,2.7l8.1,78.3c0.1,1.4,1,2.5,2.2,3.1
						l4.1,2C1146.4,522.5,1146.4,522.3,1146.3,522z"/>
					<path class="st12" d="M1240.4,316.8L1240.4,316.8c0.8,0,1.6,0.3,2.2,0.7c0,0,0-0.1,0-0.1v-50.7c0-2.2,1.8-3.9,3.9-3.9h0
						c2.2,0,3.9-1.8,3.9-3.9v-70.6c0-2.2,1.8-3.9,3.9-3.9h0.5v-0.6c0-2.2-1.8-3.9-3.9-3.9h-2.7c-2.2,0-3.9,1.8-3.9,3.9v70.6
						c0,2.2-1.8,3.9-3.9,3.9h0c-2.2,0-3.9,1.8-3.9,3.9v50.7C1236.5,315.1,1238.2,316.8,1240.4,316.8z"/>
				</g>
			</g>
			<g class="st2">
				<g>
					<linearGradient id="SVGID_12_" gradientUnits="userSpaceOnUse" x1="506.4934" y1="698.1075" x2="506.4934" y2="1282.3942">
						<stop  offset="0" style="stop-color:#51B189"/>
						<stop  offset="0.1085" style="stop-color:#499781"/>
						<stop  offset="0.3073" style="stop-color:#3C6C75"/>
						<stop  offset="0.5008" style="stop-color:#324B6B"/>
						<stop  offset="0.6848" style="stop-color:#2B3364"/>
						<stop  offset="0.8555" style="stop-color:#27255F"/>
						<stop  offset="1" style="stop-color:#25205E"/>
					</linearGradient>
					<polygon class="st13" points="845.3,1001.1 785.8,976.7 750.7,974 664.1,1009.2 607.3,1033.5 550.5,1047.1 409.8,995.7 
						280,903.7 228.6,887.5 117.7,941.6 44.7,995.7 -31.1,1020 -136.6,1052.5 -194.8,1057.5 -194.8,1202.2 1207.8,1179.6 
						1053.6,1112 945.4,1068.7 					"/>
					<linearGradient id="SVGID_13_" gradientUnits="userSpaceOnUse" x1="262.1526" y1="867.4377" x2="227.8887" y2="1033.3469">
						<stop  offset="0" style="stop-color:#51B189"/>
						<stop  offset="1.317060e-02" style="stop-color:#4FAB87"/>
						<stop  offset="0.1031" style="stop-color:#44867C"/>
						<stop  offset="0.2007" style="stop-color:#3A6673"/>
						<stop  offset="0.3061" style="stop-color:#334D6B"/>
						<stop  offset="0.4222" style="stop-color:#2C3965"/>
						<stop  offset="0.5546" style="stop-color:#282B61"/>
						<stop  offset="0.7174" style="stop-color:#26225F"/>
						<stop  offset="1" style="stop-color:#25205E"/>
					</linearGradient>
					<polygon class="st14" points="64.5,981.2 124,961.4 154.7,947 190.7,932.5 176.3,959.6 192.5,957.8 239.4,956 284.5,961.4 
						253.8,945.2 219.6,936.2 268.3,941.6 302.5,956 365.7,981.2 409.8,995.7 342.2,945.2 286.3,903.7 223.2,880.2 156.5,919.9 
						97,956 					"/>
					<linearGradient id="SVGID_14_" gradientUnits="userSpaceOnUse" x1="871.4309" y1="892.8307" x2="760.5242" y2="1379.7375">
						<stop  offset="0" style="stop-color:#51B189"/>
						<stop  offset="1.317060e-02" style="stop-color:#4FAB87"/>
						<stop  offset="0.1031" style="stop-color:#44867C"/>
						<stop  offset="0.2007" style="stop-color:#3A6673"/>
						<stop  offset="0.3061" style="stop-color:#334D6B"/>
						<stop  offset="0.4222" style="stop-color:#2C3965"/>
						<stop  offset="0.5546" style="stop-color:#282B61"/>
						<stop  offset="0.7174" style="stop-color:#26225F"/>
						<stop  offset="1" style="stop-color:#25205E"/>
					</linearGradient>
					<polygon class="st15" points="592.9,1038.9 683,1024.5 737.1,1006.5 780.4,1004.7 742.6,997.5 773.2,990.3 814.7,1006.5 
						894,1057 928.3,1076.8 895.8,1091.2 836.3,1102.1 791.2,1111.1 870.6,1111.1 939.1,1102.1 993.2,1103.9 1065.4,1118.3 
						951.7,1066 798.5,977.6 753.4,966.8 650.6,1015.5 					"/>
					<linearGradient id="SVGID_15_" gradientUnits="userSpaceOnUse" x1="471.6604" y1="981.4635" x2="376.9838" y2="1416.9751">
						<stop  offset="0" style="stop-color:#25205E"/>
						<stop  offset="0.1407" style="stop-color:#25205E"/>
						<stop  offset="1" style="stop-color:#25205E"/>
					</linearGradient>
					<path class="st16" d="M1089.8,1127.8l-36.2-15.9l-3.4-1.3l-84.1,2.2l-84.8-3.6l-101-18l-66.7,19.8l-97.4,3.6l-57.7-9l-45.1-7.2
						l28.9,14.4l-37.9,1.8l-30.7-16.2l-39.7,21.6l-92,7.2c0,0-93.8-9-99.2-10.8c-5.4-1.8-110-7.2-110-7.2l-86.6-21.6l-64.9-7.2
						l-84.8,18l28.9-28.9l46.9-27.1l27-32.4l-30.6,9.8l-105.5,32.5l-58.2,5v144.7l1251.4-20.1
						C1064.6,1168.5,1079.4,1144.5,1089.8,1127.8z"/>
				</g>
				<linearGradient id="SVGID_16_" gradientUnits="userSpaceOnUse" x1="701.2936" y1="1042.5894" x2="703.9987" y2="1207.5964">
					<stop  offset="0" style="stop-color:#25205E"/>
					<stop  offset="0.1407" style="stop-color:#25205E"/>
					<stop  offset="1" style="stop-color:#25205E"/>
				</linearGradient>
				<polygon class="st17" points="580.3,1055.2 635.7,1076.8 664.1,1094.4 712.8,1103.9 762.8,1116 823.7,1113.3 760.1,1105.2 
					699.3,1086.3 664.1,1086.3 635.7,1070 				"/>
			</g>
			<g class="st2">
				<ellipse class="st12" cx="737.3" cy="1305.1" rx="1.6" ry="0.8"/>
				<ellipse class="st12" cx="559" cy="1346" rx="1.6" ry="0.8"/>
				<ellipse class="st12" cx="689.6" cy="1338.1" rx="1.6" ry="0.8"/>
				<ellipse class="st12" cx="1085.2" cy="1316" rx="1.6" ry="0.8"/>
				<path class="st12" d="M1161.9,1313.8c0,0.7-1.2,1.3-2.6,1.3s-2.6-0.6-2.6-1.3c0-0.7,1.2-1.3,2.6-1.3
					S1161.9,1313.1,1161.9,1313.8z"/>
				<path class="st12" d="M1308,1341.5c0,0.7-1.2,1.3-2.6,1.3c-1.5,0-2.6-0.6-2.6-1.3c0-0.7,1.2-1.3,2.6-1.3
					C1306.9,1340.2,1308,1340.8,1308,1341.5z"/>
				<path class="st12" d="M1342.3,1288c0,0.7-1.2,1.3-2.6,1.3c-1.5,0-2.6-0.6-2.6-1.3c0-0.7,1.2-1.3,2.6-1.3
					C1341.1,1286.7,1342.3,1287.3,1342.3,1288z"/>
				<ellipse class="st12" cx="1249.8" cy="1314.4" rx="1.6" ry="0.8"/>
				<ellipse class="st12" cx="801.1" cy="1338.1" rx="1.6" ry="0.8"/>
				<ellipse class="st12" cx="589.9" cy="1306.5" rx="1.6" ry="0.8"/>
				<ellipse class="st12" cx="803.5" cy="1292.2" rx="1.6" ry="0.8"/>
				<ellipse class="st12" cx="956.2" cy="1296.2" rx="1.6" ry="0.8"/>
				<ellipse class="st12" cx="1160.4" cy="1364.2" rx="1.6" ry="0.8"/>
				<ellipse class="st12" cx="1037.7" cy="1330.2" rx="1.6" ry="0.8"/>
				<ellipse class="st12" cx="887.4" cy="1321.5" rx="1.6" ry="0.8"/>
				<ellipse class="st12" cx="889" cy="1292.2" rx="1.6" ry="0.8"/>
			</g>
			<g class="st2">
				<linearGradient id="SVGID_17_" gradientUnits="userSpaceOnUse" x1="917.4203" y1="1059.8461" x2="917.4203" y2="1311.4495">
					<stop  offset="0" style="stop-color:#51B189"/>
					<stop  offset="0.1085" style="stop-color:#499781"/>
					<stop  offset="0.3073" style="stop-color:#3C6C75"/>
					<stop  offset="0.5008" style="stop-color:#324B6B"/>
					<stop  offset="0.6848" style="stop-color:#2B3364"/>
					<stop  offset="0.8555" style="stop-color:#27255F"/>
					<stop  offset="1" style="stop-color:#25205E"/>
				</linearGradient>
				<path class="st18" d="M1818.9,1108.2l-259.8,4.7c0,0-410-19-426.3-14.2c-16.2,4.7-530.9,2.4-531.8,9.5
					c-1.5,11.7-349.1,2.4-349.1,2.4l-349.4-8.4v147.5h2030v-152.4L1818.9,1108.2z"/>
				<linearGradient id="SVGID_18_" gradientUnits="userSpaceOnUse" x1="1029.8" y1="1129.0222" x2="1516.204" y2="1129.0222">
					<stop  offset="0" style="stop-color:#25205E"/>
					<stop  offset="0.1407" style="stop-color:#25205E"/>
					<stop  offset="1" style="stop-color:#25205E"/>
				</linearGradient>
				<path class="st19" d="M1081.7,1111.7c-1.1-3.2-51.9,7.6-51.9,7.6l48.6,10.8l80,4.3l75.6,14l122.1-6.5l68.1-9.7
					c0,0,88.6,2.2,91.8,3.2c3.2,1.1-43.2-15.1-43.2-15.1l-51.9-7.6c0,0-181.5,1.1-186.9,1.1s-114.5-4.3-117.8-4.3
					S1081.7,1111.7,1081.7,1111.7z"/>
				<g>
					<linearGradient id="SVGID_19_" gradientUnits="userSpaceOnUse" x1="1249.3452" y1="986.1405" x2="1238.5402" y2="1396.7445">
						<stop  offset="0" style="stop-color:#51B189"/>
						<stop  offset="4.962695e-02" style="stop-color:#4EA886"/>
						<stop  offset="0.3748" style="stop-color:#3D6E75"/>
						<stop  offset="0.653" style="stop-color:#304369"/>
						<stop  offset="0.8703" style="stop-color:#282A61"/>
						<stop  offset="1" style="stop-color:#25205E"/>
					</linearGradient>
					<polygon class="st20" points="1443.3,1117.5 1423.1,1106 1388.5,1082.9 1361.2,1070 1330.9,1075.7 1302.1,1080 1264.6,1065.6 
						1228.6,1045.5 1204.1,1046.9 1166.7,1070 1135,1088.7 1090.3,1100.2 1048.5,1116.1 1072.3,1115 1083.1,1121.8 1114.8,1121.8 
						1145.1,1126.1 1196.9,1123.3 1222.9,1123.3 1244.5,1123.3 1258.9,1126.1 1270.4,1121.8 1326.6,1118.9 1351.1,1124.7 
						1377,1118.9 1401.3,1115.8 					"/>
					<linearGradient id="SVGID_20_" gradientUnits="userSpaceOnUse" x1="1276.8186" y1="981.0691" x2="1189.1354" y2="1366.019">
						<stop  offset="0" style="stop-color:#51B189"/>
						<stop  offset="1.317060e-02" style="stop-color:#4FAB87"/>
						<stop  offset="0.1031" style="stop-color:#44867C"/>
						<stop  offset="0.2007" style="stop-color:#3A6673"/>
						<stop  offset="0.3061" style="stop-color:#334D6B"/>
						<stop  offset="0.4222" style="stop-color:#2C3965"/>
						<stop  offset="0.5546" style="stop-color:#282B61"/>
						<stop  offset="0.7174" style="stop-color:#26225F"/>
						<stop  offset="1" style="stop-color:#25205E"/>
					</linearGradient>
					<path class="st21" d="M1396.1,1100.9l-32.4-19.4l-15.1-4.3l7.6,8.6l10.8,5.4l4.3,8.6l-17.3-5.4l-22.7-3.2l-27,9.7l-20.5-4.3
						l-35.7-18.4l-22.7-21.6l-19.4-4.3l-33.5,27l5.4-10.8l-16.2,13c0,0-18.4,13-21.6,13c-1.5,0-13.4-0.2-25.4-0.5l-24.3,6.3
						l-41.8,15.8l23.8-1.1l10.8,6.8h31.7l30.3,4.3l51.9-2.9h25.9h21.6l14.4,2.9l11.5-4.3l56.2-2.9l24.5,5.8l25.9-5.8l24.3-3.2
						l42,1.7L1396.1,1100.9z"/>
				</g>
			</g>
			<polygon class="st22" points="1932.4,1230 1932.4,766.1 1797,831.1 1722.6,926.3 1585.7,1003.7 1532.1,1099 1472.5,1176.4 
				1400.9,1193.3 			"/>
			<polygon class="st22" points="662.6,1181.7 586.8,1154.2 566.1,1109.4 517.8,1074.9 424.8,1085.2 331.7,1126.6 259.3,1071.4 
				93.9,999.1 -19.9,885.3 -97.6,854.2 -97.6,1230 738.4,1210.3 			"/>
		</g>
		<g>
			<g>
				<path class="st23" d="M27.5,1600c0,0,21.7,131.6,26.8,153.7c5.1,22.1,11.1,47.9,11.1,47.9l409.9-94.7c0,0-15.8-112.2-34-147.2
					c-18.3-35-40.1-60.5-40.1-60.5s-41.2,35.9-155.8,68C126.5,1600.4,27.5,1600,27.5,1600z"/>
				<path class="st24" d="M439.4,1556.3c-17.9-33.3-38.4-57.1-38.4-57.1s-41.2,35.9-155.8,68C126.5,1600.4,27.5,1600,27.5,1600
					s1.4,8.2,3.5,20.8c45.3,22.2,97.4,31.2,150.6,29.3C276.7,1646.3,370.1,1615.5,439.4,1556.3z"/>
				<path class="st23" d="M-219.2,1314.7c0,0,0.8,14.4,7.2,21.6c4.6,5.2,6.1,4.2,9.8,1.6c3.8-2.6,13.4-39.7,13.4-39.7L-219.2,1314.7
					z"/>
				<path class="st25" d="M-219.2,1314.7c0,0,0.8,14.4,7.2,21.6c4.6,5.2,6.1,4.2,9.8,1.6c3.8-2.6,13.4-39.7,13.4-39.7L-219.2,1314.7
					z"/>
				<path class="st26" d="M-371.9,1362.3c0,0,31.6,15,89.9-5.3c58.3-20.3,80-43.7,148.7-65.4c68.6-21.7,91.9-26.1,91.9-26.1
					l-22.7-152.7c0,0-96.3,31.9-160.4,65.2C-288.6,1211.3-406,1319.8-371.9,1362.3z"/>
				<path class="st23" d="M-371.9,1362.3c0,0,31.6,15,89.9-5.3c58.3-20.3,80-43.7,148.7-65.4c68.6-21.7,91.9-26.1,91.9-26.1
					l-22.7-152.7c0,0-96.3,31.9-160.4,65.2C-288.6,1211.3-406,1319.8-371.9,1362.3z"/>
				<path class="st27" d="M-274.3,1319.4c22.3-16.8,30.9-55.1,61.2-62.1c56.2-13.9,109.8-34,161.6-58.4l-12.8-86
					c0,0-96.3,31.9-160.4,65.2c-43.6,22.6-111.9,80.1-140.3,127.9C-339,1328-300.9,1338.5-274.3,1319.4z"/>
				<path class="st25" d="M-216.5,1174c16.5,48.5,18.7,102.5,4.3,151.3c21.5-11.2,44.2-22.6,78.9-33.6
					c68.6-21.7,91.9-26.1,91.9-26.1l-22.7-152.7C-64.2,1112.9-152.8,1142.3-216.5,1174z"/>
				<path class="st23" d="M-61.2,1100.6c0,0,38.1-15.6,103.9-32.7c65.8-17.1,110.9-27.6,162.7-29.8c51.8-2.3,148.5-3.3,203.6,13
					c55.1,16.3,123.3,97.5,123.3,97.5s-59,340.2-83,374.8c-24,34.6-44.9,49.1-124.9,80.2c-80,31.1-178.8,31.6-218.5,27.2
					c-39.8-4.4-81.3-16.1-81.3-16.1s-14.5-46.1-20-86.5c-5.5-40.4-3.9-104.7-2.5-128.3c1.3-23.6,2.5-64.5-6.1-81
					c-8.6-16.4-19-23.7-37.3-27.2c-15.3-3-27.5-64.4-22.4-105.3C-58.6,1145.5-61.2,1100.6-61.2,1100.6z"/>
				<path class="st23" d="M-219.4,1163.5c0,0,21.2,39,25.4,92.2c4.7,59.1-12.4,84.3-12.4,84.3s37.8-16,72.2-27.6
					s58.6-15.7,76.6-19.9c17.9-4.1,40.2,6.2,40.2,6.2s10.6-95.7,6.9-146.5c-3.7-50.7-8.7-64.9-8.7-64.9s-25.8,4.9-96.1,28.5
					C-173.6,1135.5-219.4,1163.5-219.4,1163.5z"/>
				<path class="st23" d="M-191.4,1298.3c1.6-26.5,1.5-50.2-6.6-85.2c-5.7-24.7-15.5-42-20.8-49.9c-0.4,0.2-0.6,0.4-0.6,0.4
					s21.2,39,25.4,92.2c4.7,59.1-12.4,84.3-12.4,84.3s1.8-0.8,5-2.1C-198,1330.7-192.5,1316.4-191.4,1298.3z"/>
				<path class="st27" d="M378,1053.5c44.4,7.2,139.7,86.6,153.9,97.2c0.2-1.4,0.4-2.2,0.4-2.2s-68.2-81.2-123.3-97.5
					c-55.1-16.3-151.8-15.3-203.6-13c-51.8,2.3-96.9,12.7-162.7,29.8c-36.2,9.4-64,18.4-81.7,24.5c-15.1,4.1-39.7,11.3-76.3,23.6
					c-58.2,19.5-104.1,47.6-104.1,47.6s0.8,1.6,2.2,4.4c90.7-40.9,223.5-82,320.9-103.4C205.3,1042.1,327,1045.2,378,1053.5z"/>
				<path class="st23" d="M-285.8,1146.9c0,0-43.9,17.4-78.4,60.3s-51.9,127.6-18.5,149.6c33.4,22.1,63.9,2.7,88.8-21.3
					s41.2-92.4,55.3-106.5c14.2-14.2,32.2-21.2,32.2-21.2L-285.8,1146.9z"/>
				<path class="st27" d="M-389.8,1303.9c8.6-67.1,57.2-115.9,109.6-152.8l-5.6-4.3c0,0-43.9,17.4-78.4,60.3
					c-32.7,40.7-50.2,119.3-23.1,145.9C-391.3,1337.2-391.7,1319.8-389.8,1303.9z"/>
				<g>
					<path class="st26" d="M-284.9,1205.3c0,0-8.1-54.5-7.4-83.3c0.6-28.8,6-53.3,29-68.5c23-15.1,52.3-17.3,60.3-16.8
						c8,0.5-3.9-156.2,23.1-153.8c35,3.1,25.5,83.2,22.4,113.9c-2.7,26.6-12.6,46.6,4.6,48.4c17.2,1.8,90.7-88,102.4-89.2
						c11.7-1.2,22,15.5,8.5,41c-15,28.5-66.6,73.6-79.9,103.8c-13.3,30.2-37.4,76.2-72,103.4s-55,34.9-69.1,33.5
						C-277.1,1236.5-284.9,1205.3-284.9,1205.3z"/>
					<path class="st28" d="M-260.7,1179.7c-10.6-3.6-22.4-9.5-29.5-18.3c-1.3-13.9-2.4-28.5-2.1-39.4c0.1-6.7,0.6-13.2,1.4-19.4
						c1.1,7.7,0.3,15.7,0.8,23.5c0.7,10.2,4.6,21.5,14,25.4c6,2.5,13.1,1.3,18.6-2c5.6-3.3,9.7-8.6,12.8-14.3
						c4.8-8.9,6.3-20.3,6.1-30.5c0-2.9-0.5-24.1,0.5-26.8c1-2.8,4.9-1.4,7.7-0.9c3.8,0.5,9.1,24.2,11.5,26.8
						c3.8,4.2,2.6,10.1,2,15.8c-1.5,12.5-2.5,18.5-9.4,29.1c-3.7,5.7-8.3,11.6-8.1,18.4c0.2,6.9,5.5,12.7,11.6,16.1
						c13.5,7.6,27.3,11,42.3,9.1c-4.3,4.3-8.9,8.4-13.6,12.1c-16.3,12.8-37.1,25.9-52.5,32c-7.9-1.1-0.1-15.1-2.2-22.9
						c-1.9-7.2-2.9-14.7-3-22.2c0-2.4,0-5-1.3-7.1C-254.6,1181.6-257.8,1180.7-260.7,1179.7z"/>
					<path class="st29" d="M-198.8,1057.2c-8.9,0.2-8.5,10.5-4.5,15.7c17.5,14.6,21.8,37.6,13.5,56.9c-8.3,19.4-30.7,59.1-45.9,41.1
						c-13-13.9,13.2-41,1.5-64.1c-27.2,8.3-36.9-17.9-42-41.9c3.5-4.2,7.7-8,12.8-11.4c23-15.1,52.3-17.3,60.3-16.8
						c0.6,0,1.1-0.8,1.5-2.3C-200,1041.8-199,1049.5-198.8,1057.2z"/>
					<path class="st29" d="M-223.6,1106c-12.4-10.5-11.6-45.1-13-64.4c13.7-4,26.2-5,32.1-4.9c2.6,10.9,3.9,20.5,3.9,20.5
						s1.2,18.4,1.1,34C-199.7,1106.8-215.6,1112.8-223.6,1106z"/>
					<path class="st26" d="M-197.9,1054.1c0,0-5.8-45-19-50c-13.2-5-21.3,13.6-20.5,31.2c0.8,17.7,5.4,60.6,13.4,68.1
						c7.9,7.4,26.3,0.3,26.7-15.3C-197,1072.5-197.9,1054.1-197.9,1054.1z"/>
					<path class="st29" d="M-240.7,1098c-10,10-24.1,2.2-28.1-23.8c-0.7-4.7-1.5-9.7-2.1-14.8c2.3-2.1,4.8-4.1,7.6-5.9
						c7.5-5,15.8-8.5,23.7-11.1C-235.6,1061.1-231.2,1088.5-240.7,1098z"/>
					<path class="st26" d="M-255.6,1012.3c5,0.8,13,6.3,17.2,24.9c4.2,18.5,10.3,47.8-0.4,57.9c-10.7,10.1-25.4,2.5-29.4-23.5
						C-272.2,1045.5-276.8,1009-255.6,1012.3z"/>
					<path class="st29" d="M-224.6,1128.7c0.1-0.2,0.2-0.3,0.3-0.5c9.6-17.6,9.3-34.4-8.2-43c-17.4-8.7-28-14.9-23.6-27.6
						c3.8-11.1,26-25.3,55.1-2c29.1,23.4,40.9,85,40.9,85s-2.4,5.3-6.8,13.6C-187.7,1151-209.1,1143.2-224.6,1128.7z"/>
					<path class="st29" d="M-157.6,1137.3c0,0-4.6-57.3-37.6-83.4c-29.3-23.1-53-13.3-56.8-2.1c-4.3,12.7,6.2,18.9,23.6,27.6
						c17.4,8.7,17.8,25.4,8.2,43c-9.6,17.6-10,21.6-8.2,42.1c1.8,20.5,7.7,11.1,20,7.8c12.3-3.3,22.1,2.2,31.9-14.4
						C-166.7,1141.2-157.6,1137.3-157.6,1137.3z"/>
					<path class="st26" d="M-158.2,1137.9c0,0-10.1-57.5-39.2-80.9c-29.1-23.4-53-13.3-56.8-2.1c-4.3,12.7,6.2,18.9,23.6,27.6
						c17.4,8.7,18.6,25.9,8.2,43c-35.8,58.9,16.3,69.7,26.4,63c9.1-6.1,17.7-13.6,22.4-21.5
						C-163.8,1150.3-158.2,1137.9-158.2,1137.9z"/>
					<path class="st30" d="M-175.1,1093.5c-8.1-12.6-18.5-23.7-30.6-32.6c-8.3-6-17.9-11.2-28.2-10.6c-9.1,0.5-18.2,7-19.9,15.6
						c-1.6-3.2-1.9-6.7-0.4-11c3.8-11.1,27.8-21.2,56.8,2.1c19.5,15.6,30.4,46.6,35.5,65.4C-166.6,1112.9-172.7,1097.3-175.1,1093.5
						z"/>
					<path class="st30" d="M-236.9,1039.2c-0.1-0.4-0.3-0.7-0.4-1.1c-0.1-1-0.1-1.9-0.1-2.7c-0.8-17.7,7.3-36.2,20.5-31.2
						c6,2.2,10.4,12.6,13.5,23.3c-1.1-2.2-1.8-5-2.6-6.7c-1.9-3.6-4.3-7-7.4-9.8c-3-2.7-7.5-3.7-11.4-1.9c-2.7,1.2-4.2,3.8-5.4,6.4
						C-233.9,1023.5-235.5,1030.8-236.9,1039.2z"/>
					<path class="st30" d="M-255.6,1012.3c3.8,0.6,9.5,4.1,13.8,14.1c-1.1-1.4-2.3-2.8-3.8-4.1c-3.5-3.2-8.7-4.1-13.3-2.2
						c-4.7,2-6.5,7-8.1,11.6c-2.2,6.3-3.3,13.4-3.9,20.3C-272.9,1030.5-271.8,1009.7-255.6,1012.3z"/>
				</g>
				<g>
					<g>
						<path class="st31" d="M165.1,959.1c0,0-9.2-30.6-24.7-19s-2.6,58,10.2,63.1c12.8,5,18.9-2.9,18.9-2.9L165.1,959.1z"/>
						<path class="st32" d="M157.2,984.2c1.7,2.2,2.2,7.4,0.3,9.5c-6.8-1.7-11.9-11.6-14.2-18.9c-2.1-6.6-2.1-17.5,2-23.1
							c4.5-6,9.8,1.2,11.4,6c1.9,5.8-1.2,7.4-5.7,9.4C141.5,971.6,153.6,979.6,157.2,984.2z"/>
					</g>
					<g>
						<path class="st31" d="M377,955c0,0,5.2-31.5,22.1-22.1c16.9,9.5,11,53.1-1.9,63.8c-10.6,8.8-19.2-0.4-19.2-0.4L377,955z"/>
						<path class="st32" d="M388,978.8c-1.4,2.4-1.2,7.7,1,9.4c6.5-2.6,10.3-13.1,11.6-20.6c1.2-6.8-0.2-17.6-5-22.6
							c-5.2-5.3-9.5,2.4-10.5,7.4c-1.2,6,2.2,7.1,6.9,8.6C402,964.2,391,973.8,388,978.8z"/>
					</g>
					<path class="st31" d="M169.8,1099c0,0,3.7,63.1,24.3,89.6c20.7,26.5,70.1,48.5,116.9,15.1s48.4-64.2,49.3-88.4
						s-37.2-72.8-84.5-69.9C228.6,1048.4,177.1,1071.2,169.8,1099z"/>
					<path class="st33" d="M171.3,1092.9c0,0-12.4,47.4,3.9,89.2c16.1,41.3,61,56.1,100.7,48.7c47.6-8.8,69-28.3,82.1-56.8
						c13-28.5,12.2-41.4,9-58.8c-3.3-17.4-15.8-30.5-15.8-30.5s18.7,109.1-69.4,127.3C168.2,1235.4,171.3,1092.9,171.3,1092.9z"/>
					<path class="st34" d="M171.3,1092.9c0,0-12.4,47.4,3.9,89.2c16.1,41.3,61,56.1,100.7,48.7c47.6-8.8,69-28.3,82.1-56.8
						c13-28.5,12.2-41.4,9-58.8c-3.3-17.4-15.8-30.5-15.8-30.5s18.7,109.1-69.4,127.3C168.2,1235.4,171.3,1092.9,171.3,1092.9z"/>
					<path class="st31" d="M166.8,821.1c0,0-16.8,32-12.1,115.2c4.7,83.2,14.5,117.9,34.3,140.5s64.6,44.1,114.5,17
						c50-27.1,69.3-60.6,78.4-92.7c9-32.1,3.9-88.1-0.4-119.1c-4.3-31-5.8-62.6-26.8-86.8C333.6,770.9,206.6,762.5,166.8,821.1z"/>
					<path class="st35" d="M354.7,795.1c-21.1-24.2-148.1-32.7-187.8,26c0,0-1.8,3.5-4.1,11c3.3,2.4,7.7,4.1,13.9,4
						c20.3-0.3,28.3-9.8,72.2-8.3c44,1.5,83.2,10.9,103,8.5c12-1.5,17.1-4.1,20.5-7.9C368.8,816.5,363.4,805.2,354.7,795.1z"/>
					<path class="st36" d="M162.3,967.8c0,0-6.2,17.4-6.6,54.6c-0.3,26.3-0.9,96.9,31.6,127.2s60.4,54.2,104.7,31.8
						c47.5-24.1,63-45.1,76.7-73.7s16.9-99.8,17.4-110.1c0.5-10.3,0.8-37.6,0.8-37.6s-6.9,34.1-19.1,55.7
						c-11.9,20.9-23,29.3-23,29.3s-3.9-23.1-32.6-31c-28.7-7.9-87.2-3.1-101,0.1c-13.8,3.2-23,7.5-27.6,15.8
						c-4.6,8.3-8.3,20.8-8.3,20.8s-5.9-16.8-7.8-33.8C164.7,992.3,162.3,967.8,162.3,967.8z"/>
					<path class="st36" d="M163.1,963.2c0,0-11.8-51.1-2.6-86.6c9.2-35.6,25.7-55.4,25.7-55.4s-16.1-29-26-24.5
						c-9.9,4.5-26.7,17-26,51.1C135.9,927.3,163.1,963.2,163.1,963.2z"/>
					<path class="st36" d="M386.7,951.7c0,0-12.7-31-12.3-87.1c0.2-36.8-43.3-45.6-43.3-45.6s9-31.9,19.6-29.9
						c10.6,2,39.3,2.8,46.6,36.1C414.1,902.9,386.7,951.7,386.7,951.7z"/>
					<g>
						<path class="st3" d="M202.1,1041.8l112.3-3.8c0,0-18.5,39-56.9,41.3S202.1,1041.8,202.1,1041.8z"/>
					</g>
					<path class="st35" d="M186.3,821.2c0,0-16.1-29-26-24.5c-3.5,1.6-7.8,4.2-11.9,8.3c3.8,14.6,12.9,28.5,25.3,36.7
						C180.3,828.4,186.3,821.2,186.3,821.2z"/>
					<path class="st35" d="M383.6,800.9c-11.3-9.7-26-10.5-32.9-11.8c-10.6-2-19.6,29.9-19.6,29.9s23.2,4.7,35.6,21.6
						C376,829.2,382.1,815.4,383.6,800.9z"/>
					<path class="st36" d="M170.4,739.9c-11.5,7.5-24.6,18.3-19,51.9c5.6,33.6,25.4,41.9,25.4,41.9s17-8.6,47.9-9.6
						c35.6-1.2,65.6,1.8,90.4,5.5s44.8,3.9,47.9,1.8s17.5-30.4,18.7-49.1c1.6-24.6-1.3-29.6-17.1-41.4c-9.7-7.2-83-23.5-146.5-16.3
						C202.5,726.2,179.6,733.8,170.4,739.9z"/>
				</g>
				<path class="st37" d="M135.3,1615.4c-11.4-11.7-23.9-22.3-37.2-31.7c-6.3-4.5-13.1-8.9-17.1-15.5c-4-6.7-4.1-16.4,2-21.2
					c4-3.2,9.8-3.6,13.7-7c5.7-4.9,4.9-14.5,0.5-20.6c-4.4-6.1-11.3-9.8-17.8-13.7c-14.8-8.8-29.7-23.2-27.1-40.2
					c1.6-10.3,6.4-12.5,15.7-17.1s31.3-3.9,33.6-14.1c7.3-32.4-55.3-28.1-66.8-55.5c-5-11.9-1.9-25.5,0.2-38.2
					c3.9-23.5,2.4-51.4-16.5-65.8c-14.7-11.2-66.2-9.4-113.9,26.3c34.5-9.4,48.9-10.2,54.1-9.2c18.3,3.5,28.7,10.8,37.3,27.2
					c8.6,16.4,7.4,57.4,6.1,81c-1.3,23.6-2.9,87.9,2.5,128.3c5.5,40.4,20,86.5,20,86.5s41.5,11.7,81.3,16.1
					c9.6,1.1,22.7,1.8,38.1,1.9C144.4,1626.8,139.9,1620.1,135.3,1615.4z"/>
				<path class="st37" d="M492.3,1286.8c-15.1,6.5,1.1,40.8-9.9,54.2c-11.1,13.6-37.1,9.6-44.6,25.5c-6.5,13.7,7.1,28.3,9.3,43.3
					c2,14.1-6.7,28-18.1,36.6c-11.4,8.6-25.3,13.1-38.5,18.3c-7.2,2.9-14.7,6.2-19.4,12.4c-4.7,6.2-5.5,16,0.4,21.2
					c4.3,3.8,10.7,4,15.9,6.5c11.4,5.4,14.6,21,10.1,32.8c-4.5,11.8-14.6,20.3-24.6,27.9c-10,7.6-20.7,15.1-27.2,25.9
					c-0.8,1.4-1.6,3-2.1,4.6c64.4-26.1,83.8-41,105.7-72.6c13.6-19.6,38.3-136.9,57.3-235.1C503.1,1285.2,498.5,1284.1,492.3,1286.8
					z"/>
				<path class="st23" d="M118.9,1580.3c-25.4-21.8,25.8-39.4,26.7-54.1c2.1-22.3-47.5-16.7-54.7-35.3
					c-10.5-26.6,54.2-16.9,76.3-40.9c11.6-12.8-3-25.5-12.9-30.5c-23.1-12.1-41.4-28.2-53.4-48.7c-12.6-23.2,1.3-51.2-1.7-76.6
					c-4.9-33.8-27.8-76.4-61.4-83.2c-77.4-15.1-155.5,25.9-232.3,40.6c0.1,1.4,0.3,2.8,0.4,4.3c4.7,59.1-12.4,84.3-12.4,84.3
					s37.8-16,72.2-27.6s58.6-15.7,76.6-19.9c7-1.6,14.6-1,21.3,0.3c15.2,3.9,24.5,11.3,32.3,26.1c8.6,16.4,7.4,57.4,6.1,81
					c-1.3,23.6-2.9,87.9,2.5,128.3c5.5,40.4,20,86.5,20,86.5s41.5,11.7,81.3,16.1c25.2,2.8,74.1,3.6,126.8-4.1
					c-1.1-1.7-2.4-3.3-3.9-4.9C199.8,1590.7,149.7,1606.6,118.9,1580.3z"/>
				<path class="st38" d="M460.3,1277.6c-3.8,21.2,7.7,52-20.7,61.5c-29.4,11.2-96.1,13.7-85,47.3c7.2,21.9,45.1,12.8,58.5,33
					c8.4,11.1-6.9,20.5-15.6,26.9c-25,17.4-90.5,14.6-80.6,47.7c6.7,22.1,70,26,47.5,54.4c-10.2,12.5-26.7,16.4-35.6,28.6
					c-7.1,8.6-8.1,17.9-5.8,27.2c0.4-0.2,0.9-0.3,1.3-0.5c80-31.1,100.9-45.6,124.9-80.2c16.1-23.3,48.1-184.8,67.3-288.1
					C490.4,1240.3,465.1,1251.9,460.3,1277.6z"/>
			</g>
			<path class="st39" d="M584.5,1189.9c-131.1,0-256.6,48.1-380.4,90.7c-0.4,3.4-0.8,6.7-1.1,9.9c-3.8,40.6,0,88.8,0,88.8
				s1.8,1,5.1,2.7c-0.9,15-5.4,4.5-6.8,27.9c56.4-24.2,78.5-42.4,134.8-66.5c60.9-26.9,170.4,32.1,177.5,100.1
				c5.6,42.4,3.8,85.1-3.5,127h111.1c0,0,9.9-112.9,0-151.1c-1.5-5.8-3.2-11.5-4.9-16.9c7.1-4.7,13.8-10.2,20.9-16.7
				c5.6-5.1,14.6-19.6,25.5-40c-6.1-34.8-15.3-69.1-28.8-102.1C625.6,1219.7,610,1189.9,584.5,1189.9z"/>
			<g>
				<path class="st23" d="M1079.1,1626.1c0,0,22.2,36.4,28.3,66.6c6.8,33.6,7.1,53.4,7.1,53.4H783.1c0,0-29.7-36.4-32.6-67.6
					c-2.8-31.2,22.7-55.2,28.3-62.3C784.5,1609.1,1079.1,1626.1,1079.1,1626.1z"/>
				<path class="st23" d="M778.9,1616.2c-4.5,5.7-21.7,22.2-27,44.5c32.3,13.5,67,20.8,100.6,22c76.8,2.3,169.7,5.4,238.7-34.3
					c-6.4-13.1-12.1-22.4-12.1-22.4S784.5,1609.1,778.9,1616.2z"/>
				<path class="st40" d="M734.5,771.6c-25,30.7-43,51.9-39.2,153.4c4.2,113.3,25.5,222.4,25.5,222.4l9.9,70.8l279-31.2
					c0,0-1.4-113.3-18.4-206.8S965,819.1,936.1,783.4c-45.3-55.9-99.1-50.5-127.5-47.7C780.3,738.6,751.4,750.9,734.5,771.6z"/>
				<path class="st41" d="M1006.8,1117.7c-11.2-28-25.5-55.3-36.8-80.8c-4.2-11.3-7.1-24.1-4.2-35.4c9.6-30.1,16.5-65.6-1-93.5
					c-0.1,0-0.3,0-0.5,0c0.2,0,0.3,0,0.5,0c-0.4-0.7-0.9-1.4-1.4-2.1c-10.9-2.3-23.7,6.4-31.7,7.8c-41.1,2.8-97.7,15.6-85,68
					c17.3,74.8,25.2,146.8,27.5,220.5l135.3-15.1C1009.7,1187.1,1009.4,1158.3,1006.8,1117.7z"/>
				<path class="st42" d="M697.6,851.3c-2.5,18.7-3.5,42.4-2.3,73.7c4.2,113.3,25.5,222.4,25.5,222.4l9.9,70.8l112.9-12.6
					c-21.8-68.5-35.7-138.1-46.3-212.6C787.6,933.3,758.8,873.7,697.6,851.3z"/>
				<path class="st43" d="M747.4,893.2L735,834c-18.6,24.7-42.3,3.6-39.9,84.9c6.5-1.9,14.8-4.9,23.9-9.9
					C740.6,897.4,747.4,893.2,747.4,893.2z"/>
				<path class="st23" d="M804.8,1094.1c0,0-99.6,34.2-125.8,51.2c-15.1,9.8-17.7,14.9-17.7,14.9s24,214.3,45.7,237.9
					c21.7,23.6,45.9,304.6,64.7,296.1c18.9-8.5,344.8,59.9,344.8,59.9s37.6-409.9,28.2-492c-5.5-47.8-22.7-86.9-64.2-112.4
					c-41.5-25.5-161.5-59.5-161.5-59.5S841.7,1082.7,804.8,1094.1z"/>
				<path class="st44" d="M763.5,1130.2c-0.3-6.5-0.7-14.9-0.2-21.6c-13.8,5.1-29.5,11.5-43.6,17.3c-4.5,100.3,14,202.4,52.7,295.8
					c19.2,13.5,42,29,65.5,44.4C796.4,1355.4,768.8,1248.8,763.5,1130.2z"/>
				<path class="st27" d="M1144.8,1262.1c-5.5-47.8-22.7-86.9-64.2-112.4c-37-22.7-136.1-52.1-157.4-58.3c1.6,5.7,4.1,10.5,8.7,12
					c59.5,19.8,114.5,41,162.9,82.1c30,25.6,33.1,63.7,34,75.1c9.6,116.3-4.2,189.8-7.1,284.7c-1.5,47.3-1.4,94.7,0.8,141.8
					C1132.6,1567.5,1151.8,1323.5,1144.8,1262.1z"/>
				<path class="st44" d="M662.8,1167.9c7.4,36.9,39.7,194.3,58.9,215.1c1.9,2.1,5.4,5.2,10.2,9c18.4-25.4,35.2-52.5,51.2-80.3
					c40-68.3,56.6-142.5,59.4-217.7c-1.4,0.3-2.8,0.6-4.1,1C776.1,1113.2,715.1,1131.3,662.8,1167.9z"/>
				<path class="st45" d="M795.4,1075.2c0,0,10.5,67.5,7.6,90.6c-6.1,47.7,43.4,65.6,85,45.8s68.9-84.5,68.9-84.5s-17,0.9-21.7-20.8
					c-4.7-21.7-14.2-78.4-14.2-78.4s-39.7,30.2-64.2,33C832.2,1063.8,795.4,1075.2,795.4,1075.2z"/>
				<path class="st46" d="M862.4,1114.8c26-11.6,46.2-31,64.4-52.6c-3.2-18.3-5.9-34.3-5.9-34.3s-39.7,30.2-64.2,33
					c-24.6,2.8-61.4,14.2-61.4,14.2l3.5,25.5C817.4,1114.6,842.2,1123.2,862.4,1114.8z"/>
				<path class="st45" d="M714.2,863.7c0,0,15.1,159.6,31.2,187c16.1,27.4,58.5,59.5,102,56.7c43.4-2.8,87.8-63.3,96.3-102
					c8.5-38.7-4.7-121.8-7.6-138.8c-2.8-17-58.5-74.6-75.5-85c-17-10.4-68.9-17.9-84-7.6C761.4,784.4,714.2,863.7,714.2,863.7z"/>
				<path class="st47" d="M860.5,781.5c-17-10.4-68.9-17.9-84-7.6c-15.1,10.4-62.3,89.7-62.3,89.7s3.7,147.8,6.7,174
					c130-37.5,145.3-252,78.1-223.1c12.7,31.2,40.7,58.1,71.9,69.4c-1.4-8.5-1.4-17-4.2-24.1c20.2,22.1,46.5,43,75.6,50.2
					c-2.4-20.2-5.1-37-6.2-43.6C933.2,849.5,877.5,791.9,860.5,781.5z"/>
				<path class="st40" d="M786.9,795.7c0,0,19.8,35.4,43.2,55.9s36.1,24.1,36.1,24.1l-3.5-26.2c0,0,29,33.3,52.4,46
					c23.4,12.7,30.5,17,30.5,17s12.9-26.1,13.2-45.6c0.5-26-4-36.6-9-50s-7.2-49.8-67-73.6c-48.6-19.4-88-2.1-88-2.1L786.9,795.7z"
					/>
				<path class="st45" d="M931.8,918c0,0,14.2-22.7,28.3-16.3c14.2,6.4,14.2,55.9,7.1,71.5c-7.1,15.6-29.7,12-29.7,12L931.8,918z"/>
				<g>
					<path class="st3" d="M783.7,1029.5c0,0,28.3,2.6,57.3-2.7c25.4-4.7,57.7-20.7,57.7-20.7s-7.9,49.9-54,56.9
						C812.5,1067.9,783.7,1029.5,783.7,1029.5z"/>
				</g>
				<path class="st48" d="M950.1,957.4c-1.8,2.8-1.7,9.1,0.8,11.3c7.9-2.8,12.7-15.3,14.6-24.2c1.7-8.1,0.4-21.1-5.2-27.2
					c-6-6.5-11.5,2.6-12.8,8.5c-1.6,7.1,2.4,8.6,7.9,10.5C967.3,940.5,953.8,951.5,950.1,957.4z"/>
				<path class="st39" d="M709,1356.2c-0.8,28.2-0.2,54.7,3.3,70.3c9,39.3,40.7,176.4,49,212.3c-6.6,10.7-12.1,24.4-10.7,39.8
					c2.8,31.2,32.6,67.6,32.6,67.6h62.8c-3.5-64.3-10.8-127.8-0.5-193.6c2.8-15.6,14.6-38.6,29.7-45.3
					c76.5-34,182.4,23.8,254.7,89.1c3.6-46.2,7.3-97.3,10.3-145.9c-143.5-64.1-288.8-105.8-445.6-142.3
					C699.4,1326.2,704.3,1342.9,709,1356.2z"/>
				<path class="st40" d="M835,771.9c0,0,13,210.2-114,265.7l-26-132c0,0-6.8-85.2,20.5-108.4C742.8,774,813.1,737.1,835,771.9z"/>
			</g>
			<g>
				<path class="st49" d="M472.9,1163.6c0,0-21.2,5-27.6,31.2c-6.4,26.2,36.1,80.7,94.2,87.1c58.1,6.4,111.2-22.7,122.5-61.6
					c11.3-38.9-25.5-58.8-37.5-61.6S489.1,1158.6,472.9,1163.6z"/>
				<g>
					<path class="st50" d="M463.2,1175c-4.2,3.7-8.5,8.7-11.1,15.1C456.5,1186.1,460.8,1180.9,463.2,1175z"/>
					<path class="st50" d="M649.5,1177.7c-3.7-3.3-8.6-5.2-12.9-6.8c4.4,4.2,10.8,7.7,16.5,10.3
						C651.9,1179.9,650.7,1178.8,649.5,1177.7z"/>
				</g>
				<g>
					<g>
						<path class="st23" d="M199,1461.5c0,0-62.3,22.7-130.3,62.3s-197.8,129.8-231.8,155.3s-80.7,71.8-80.7,71.8h-193.5v-291.3
							c0,0,271.9-61.4,379-94.9c65-20.3,195.5-77.9,195.5-77.9s76.5,19.8,92.1,58.1S199,1461.5,199,1461.5z"/>
						<path class="st25" d="M199,1461.5l20.7-46.6c0,0-88.2,19.2-201.5,74.5c-99.7,48.6-277.6,144.5-388.1,220.9
							c-15.6,10.8-36.2,25.5-57.3,40.6h183.3c0,0,46.7-46.3,80.7-71.8S0.7,1563.5,68.7,1523.8C123.7,1491.7,170.1,1474.5,199,1461.5
							z"/>
						<path class="st27" d="M-437.3,1459.6v77.1c1.5-0.5,2.9-1,4.4-1.4c104.1-34,266.3-91.2,386.7-142.2
							c70.5-29.8,129.1-71.7,163-87.6c-11.3-4.1-14.3-4.5-14.3-4.5s-95.8,43.4-160.8,63.7C-165.4,1398.2-437.3,1459.6-437.3,1459.6z
							"/>
						<path class="st23" d="M950.2,1279.7c0,0,144.5,62.3,247.9,90.6c103.4,28.3,160.6,43.9,160.6,43.9v336.7h-23.2
							c0,0-109.1-97.3-218.1-172.4c-109.1-75.1-239.4-140.7-239.4-140.7s-22.7-63.3,4.2-111.4
							C909.1,1278.3,950.2,1279.7,950.2,1279.7z"/>
						<path class="st27" d="M1058.4,1359.6c67.6,34.6,220.9,93.5,300.2,120.9v-66.2c0,0-57.2-15.6-160.6-43.9
							c-103.4-28.3-247.9-90.6-247.9-90.6s-12.7-0.4-28.5,7.4C948.9,1302.1,998.7,1329.1,1058.4,1359.6z"/>
						<path class="st25" d="M1165.4,1551.7c-84.9-51.8-233.3-119.1-294.9-146.3c2.6,19.2,7.4,32.6,7.4,32.6s130.3,65.6,239.4,140.7
							c109.1,75.1,218.1,172.4,218.1,172.4h23.2v-72.7C1310.9,1645.4,1234,1593.5,1165.4,1551.7z"/>
						<path class="st23" d="M476.6,1156.5c0,0-156.7,38.7-179.4,44.4c-22.7,5.7-67.3,23.6-106.2,45.6
							c-31.3,17.7-88.5,54.5-88.5,54.5s35,6,62,41.8c46.9,62.1,34.6,118.7,34.6,118.7s53.6-7.2,105.3-26.3
							c23.1,27.3,21.6,128,25.5,151.5c5.2,31.5,14.9,58.5,1.4,88.2c-9.4,20.8-4.2,76-4.2,76h465c0,0-14.9-22.7-7.6-58.1
							c5.7-27.4-19.7-49.6-15.1-70.8c4.7-21.7-9.4-51,0-78.4c9.4-27.3,8.5-68,7.6-90.6c-0.9-22.7,1.9-49.1,1.9-49.1
							s46.2,11.3,69.9,22.7c25.5,12.3,51.9,23.6,51.9,23.6s-14.2-43.4,14.2-99.1c25.7-50.5,60.4-62.3,60.4-62.3
							s-23.6-22.7-73.6-48.2c-43.3-22.1-79.3-37.8-105.8-51.9c-12.7-6.8-82.1-20.8-136-32.1C612.7,1146.6,501.2,1151.8,476.6,1156.5
							z"/>
						<path class="st27" d="M742.9,1184.4c88.8,35.9,133.6,60,208.7,118c0.2,0.2,0.4,0.3,0.6,0.5c13.1-10.8,23-14.2,23-14.2
							s-23.6-22.7-73.6-48.2c-43.3-22.1-79.3-37.8-105.8-51.9c-12.7-6.8-82.1-20.8-136-32.1c-47.1-9.9-158.6-4.7-183.2,0
							c0,0-156.7,38.7-179.4,44.4c-22.7,5.7-67.3,23.6-106.2,45.6c-31.3,17.7-88.5,54.5-88.5,54.5s5.7,1,14.3,4.5
							c59.8-35.8,128.6-81.1,196.1-98c98.2-24.5,157.1-49.9,242.2-52.4C606.1,1153.6,692.4,1170.5,742.9,1184.4z"/>
						<path class="st25" d="M304.3,1435.2c6.5,7.7,11.1,21.1,14.3,37.1c0.1-28.9-4-57.8-12.2-85.4c0.2,0.6-70.8,24-107,33.8
							c5.9,28.6-0.5,40.8-0.5,40.8S252.6,1454.3,304.3,1435.2z"/>
						<g>
							<path class="st51" d="M310,1444.3c-0.1-0.3-0.3-0.5-0.4-0.8C309.7,1443.7,309.9,1444,310,1444.3z"/>
							<path class="st51" d="M310.9,1446.3c-0.1-0.3-0.2-0.5-0.4-0.8C310.7,1445.8,310.8,1446,310.9,1446.3z"/>
							<polygon class="st51" points="294.7,1438.6 294.7,1438.6 294.7,1438.6 							"/>
							<path class="st51" d="M468.4,1678.4c-3-11.2-20.4-13.5-34.1-14.9c-23.8-2.5-50-12.9-54.8-32.5c-4.1-16.9,9.5-33.1,11.8-50.2
								c2-14.8-4.5-29.4-10.9-43.3c-7.8-17-56.8-134.4-73.9-150.2c8.1,27.6,12.1,56.3,12,85c0-0.1,0-0.1,0-0.2
								c8.4,40.7,8.4,97.7,11.2,114.7c5.2,31.5,14.9,58.5,1.4,88.2c-9.4,20.8-4.2,76-4.2,76h118.2c-0.1-0.6-0.3-1.1-0.5-1.7
								c-5.5-13.2-33.6-8.9-40.9-21.4c-4.9-8.4,3.7-18.4,14-22.2c10.2-3.7,21.9-3.7,32.4-6.8
								C460.6,1695.8,470.8,1687.5,468.4,1678.4z"/>
							<path class="st51" d="M316.8,1464c-0.1-0.4-0.2-0.7-0.3-1.1C316.6,1463.3,316.7,1463.6,316.8,1464z"/>
							<path class="st51" d="M317.4,1466.7c-0.1-0.4-0.2-0.7-0.3-1.1C317.3,1466,317.3,1466.3,317.4,1466.7z"/>
							<path class="st51" d="M312.7,1450.7C312.7,1450.6,312.7,1450.6,312.7,1450.7C312.7,1450.6,312.7,1450.6,312.7,1450.7z"/>
							<path class="st51" d="M316.1,1461.4c-0.1-0.4-0.2-0.7-0.3-1.1C315.9,1460.6,316,1461,316.1,1461.4z"/>
							<path class="st51" d="M318.1,1469.5c-0.1-0.3-0.1-0.7-0.2-1C317.9,1468.8,318,1469.1,318.1,1469.5z"/>
						</g>
						<path class="st25" d="M774.1,1366.1c1,0.5-4.8,29.8-2.6,51.8c1.1,11.6,3.1,21.5,5.3,27.4c-0.2-20.5,2.1-41.4,2.1-41.4
							s46.2,11.3,69.9,22.7c25.5,12.3,51.9,23.6,51.9,23.6s-4.8-9.5-3.2-32.9C852.4,1403,817.1,1380.6,774.1,1366.1z"/>
						<g>
							<path class="st51" d="M778.7,1404.8L778.7,1404.8L778.7,1404.8z"/>
							<path class="st51" d="M778.7,1404.2c0-0.1,0-0.1,0-0.1C778.8,1404.1,778.8,1404.1,778.7,1404.2z"/>
							<path class="st51" d="M778.6,1405.4c0,0,0-0.1,0-0.1C778.6,1405.3,778.6,1405.4,778.6,1405.4z"/>
							<path class="st51" d="M778.7,1404.4c0-0.1,0-0.1,0-0.2C778.7,1404.3,778.7,1404.4,778.7,1404.4z"/>
							<path class="st51" d="M778.6,1406c0,0,0-0.1,0-0.1C778.6,1405.9,778.6,1406,778.6,1406z"/>
							<path class="st51" d="M779.2,1404c-0.3-0.1-0.4-0.1-0.4-0.1S778.9,1403.9,779.2,1404z"/>
							<path class="st51" d="M784.4,1692.8c5.7-27.4-19.7-49.6-15.1-70.8c4.7-21.7-9.4-51,0-78.4c9.4-27.3,8.5-68,7.6-90.6
								c-0.1-2.5-0.2-5.1-0.2-7.7c-2.2-5.9-4.1-15.8-5.3-27.4c-1.8-18.5,2-42.1,2.6-49.5c-9.9,43.7-12.4,78.3-13.7,91.2
								c-2.3,23.5-3.8,21.8-6.2,45.3c-1.4,14.2-3.8,30.1-15.3,38.4c-8.8,6.4-23.6,10.3-22.2,21.1c1,7.5,9.8,10.8,14.9,16.3
								c8.9,9.4,6,25.7-2.9,35c-8.9,9.4-22,13.3-34.6,16.1c-12.6,2.8-25.8,4.9-36.8,11.7c-4.9,3-9.6,7.5-10.2,13.2
								c-0.9,8.4,7.1,15.2,15.2,17.5c12,3.4,24.7,0.7,37.1-0.7c12.4-1.3,26.2-0.8,35.4,7.6c9.2,8.4,8.9,26.8-2.9,30.8
								c-8.1,2.7-20.9,0.2-22.2,8.6c-0.6,4.1,2.7,7.7,4.3,11.6c2.6,6.7-0.3,13.6-5.6,18.8H792C792,1750.9,777.1,1728.3,784.4,1692.8
								z"/>
						</g>
					</g>
					<g>
						<g>
							<path class="st52" d="M465.8,1104.1c0,0,0,41.8-0.7,62.3c-0.7,20.5-28.3,34.7-28.3,34.7s14.2,72.6,94.2,88.5
								c39.6,7.9,95.4-12.7,108.3-22.7c35.8-27.6,26.9-80.7,26.9-80.7s-30.5-9.2-34.7-22.7c-4.2-13.5-7.1-52.4-7.1-52.4
								s-38.2,18.4-82.9,14.9C496.9,1122.5,465.8,1104.1,465.8,1104.1z"/>
							<path class="st53" d="M666.2,1186.2c0,0-5.5-1.7-12.1-4.6c4.7,13.7,5.2,34.7-7,55.9c-14.6,25.2-55.5,47.9-104.1,40.4
								c-48.6-7.6-82.9-38.2-88.5-60.9c-3.1-12.4-2.7-21.7-1.6-27.6c-7.7,7.3-16.1,11.6-16.1,11.6s14.2,72.6,94.2,88.5
								c39.6,7.9,95.4-12.7,108.3-22.7C675,1239.4,666.2,1186.2,666.2,1186.2z"/>
							<path class="st53" d="M526.7,1190.5c42.2,8.9,73.9-17,99.9-46.3c-1.4-17-2.2-33-2.2-33s-38.2,18.4-82.9,14.9
								c-44.6-3.5-75.8-22-75.8-22s0,10.7-0.1,24.5C477.6,1156.8,496.5,1184.5,526.7,1190.5z"/>
							<path class="st34" d="M668.3,1179.9c-12.1-20.5-28.7-23.8-38.6-23.7c0.6,2.9,1.2,5.4,1.8,7.4c0.8,2.6,2.7,5.1,5.1,7.4
								c4.4,1.6,9.2,3.4,12.9,6.8c1.1,1,2.4,2.2,3.6,3.5c4.4,4.8,8.5,12.5,6.3,28c-2.8,19.8-9.7,41.1-41.4,59.1
								c-25.5,14.5-66.6,20.5-104.8,5s-60.3-40.9-63.4-65.2c-0.9-7,0.2-12.9,2.2-18c2.6-6.5,6.9-11.5,11.1-15.1
								c1.1-2.7,1.8-5.6,1.9-8.6c0-0.7,0-1.5,0.1-2.3c-5.5,0.5-13,3.8-22,14.6c-10.6,12.7-13.4,38.2-0.4,61.3
								c15.8,27.9,43.6,49.9,88.2,59.5c37,7.9,83.1,0.9,112.6-24.1C667.2,1255.3,688.5,1214.1,668.3,1179.9z"/>
						</g>
						<g>
							<g>
								<path class="st52" d="M452.3,1000c0,0-12.6-39.9-24.8-31.9c-14.6,9.7-12.5,48.9-0.4,70.8c9.6,17.2,18.1,19.4,24.4,15.8
									C460.1,1050,457.3,1018.4,452.3,1000z"/>
								<path class="st54" d="M442.9,1026.8c2.3,2.8,5.5,8.3,0.6,12.1c-8.4,2.1-15.5-14.5-18.6-23.7c-2.9-8.3-3.2-22.3,2-29.5
									c5.5-7.7,11.2,0.9,13.5,7c1.8,4.9,0.3,12.1-5.4,14.5C422.7,1012.3,438.2,1021.1,442.9,1026.8z"/>
							</g>
							<g>
								<path class="st52" d="M661.7,1008.1c0,0,12.6-39.9,24.8-31.9c14.6,9.7,12.5,48.9,0.4,70.8c-9.6,17.2-18.1,19.4-24.4,15.8
									C653.9,1058.2,656.8,1026.5,661.7,1008.1z"/>
								<path class="st54" d="M671.2,1034.9c-2.3,2.8-5.5,8.3-0.6,12.1c8.4,2.1,15.5-14.5,18.6-23.7c2.9-8.3,3.2-22.3-2-29.5
									c-5.5-7.7-11.2,0.9-13.5,7c-1.8,4.9-0.3,12.1,5.4,14.5C691.4,1020.5,675.9,1029.2,671.2,1034.9z"/>
							</g>
							<path class="st52" d="M470.7,851.3c0,0-26.2,70.8-24.8,160c1.4,89.2,27.6,165.7,102.7,166.4
								c75.1,0.7,106.9-106.7,117.6-153.7c11.7-51.7,7.8-123.9-1.4-154.4s-65.2-45.3-87.8-46.7C554.3,821.5,487.7,820.1,470.7,851.3
								z"/>
							<path class="st47" d="M603.2,876.8c24.8-5.7,35.6-9.7,53.1-24.1c-18.3-21.8-60.1-28.5-79.3-29.7
								c-22.7-1.4-89.2-2.8-106.2,28.3c0,0-0.1,0.3-0.3,0.9C486.3,869,556.9,887.3,603.2,876.8z"/>
							<path class="st55" d="M449.5,1006.4c0,0-21.2-40.4-24.1-78.6s8.5-72.9,16.3-85.7c7.8-12.7,17-20.5,17-20.5
								s32.6,7.1,33.3,17.7c-6,11.3-19.9,34.9-29.7,66.6c-11.3,36.5-11.3,62.3-11.3,70.8C450.9,985.1,449.5,1006.4,449.5,1006.4z"/>
							<path class="st55" d="M637.4,860c0,0,23.1,19.4,22.4,88.3c-0.4,36.9,2.1,80.4,2.1,80.4s17.3-41.2,22-72.9
								c7.1-48.5,1.8-83.9-6.4-101.4c-6.5-14-15.3-17-15.3-17L637.4,860z"/>
							<g>
								<path class="st3" d="M612.8,1079l-117.5-4.4c0,0,5,47.5,54.6,50.1C599.5,1127.1,612.8,1079,612.8,1079z"/>
							</g>
							<path class="st47" d="M477.2,867.7c6-12.6,11.5-22.3,14.8-28.5c-0.7-10.6-33.3-17.7-33.3-17.7s-6.5,5.5-13.2,14.9
								C451.8,850,463.6,860.5,477.2,867.7z"/>
							<path class="st47" d="M670.3,843.4c-4.4-4.8-8.2-6.1-8.2-6.1L637.4,860c0,0,3.2,2.7,7.2,9.7
								C654.5,862.4,662.9,853.3,670.3,843.4z"/>
							<path class="st47" d="M439.4,930.5c-1.8,4.5-3.5,9.1-5.3,13.7c-6.6-14.9-7.8-29-8.4-44.1c-0.8,8.8-1,18.2-0.3,27.7
								c2.8,38.2,24.1,78.6,24.1,78.6s1.4-21.2,1.4-29.7c0-4.2,0-12.8,1.4-24.7c-2.2,3.9-4.1,6-5.5,7.7
								C442.9,949.3,441.1,941.6,439.4,930.5z"/>
							<path class="st47" d="M659.8,964.3c0.3,32.4,2.1,64.4,2.1,64.4s17.3-41.2,22-72.9c1.2-8.4,2.1-16.4,2.6-24
								c-2.2,12.2-5.5,24.1-9.1,34.5c-1.5-5.6-2.9-11.3-4.4-16.9c-2.4,9.3-4.7,18.6-7.1,27.8C664.7,973.4,662.7,969.1,659.8,964.3z"
								/>
							<path class="st55" d="M450.9,777.6c0,0-24.8,50.8,19.8,73.6c45.8,23.5,103.2,24.3,147.3,15.6c33.7-6.7,49.6-27.6,49.6-27.6
								s2.1-54.5-42.5-63.7c-44.6-9.2-82.9,17.7-124.6,15.6S450.9,777.6,450.9,777.6z"/>
						</g>
					</g>
				</g>
				<g>
					<g>
						<path class="st3" d="M623.8,1387.2c-1.1-4.1-16.4-4.5-32.7-2.8c-0.1-0.1-0.2-0.3-0.3-0.5c-1.5-2.3-3.1-4.4-5-6.3
							c-3.6-3.9-7.9-7-12.4-9.3l-1.7-0.8l-1.8-0.7l-1.8-0.7c-0.6-0.2-1.2-0.4-1.8-0.6c-2.4-0.7-4.9-1.2-7.4-1.5
							c-2.5-0.3-5-0.3-7.5-0.1c-2.5,0.2-5,0.6-7.4,1.3c-2.4,0.6-4.8,1.5-7,2.6c-2.3,1.1-4.4,2.4-6.5,3.8c-2,1.5-3.9,3.2-5.7,5
							c-1.7,1.8-3.4,3.8-4.8,6c-2.8,4.3-4.9,9.1-6.1,14.3c-0.6,2.5-1,5.2-1.1,7.8c-15.3,6.8-28.1,15.3-27,19.4
							c0.4,1.7,2.5,2.8,5.8,3.5c3.2,0.5,8.8,0.8,18.8-0.2c13.5-1.4,30.5-4.7,47.8-9.3c17.4-4.7,33.7-10.3,46.1-15.8
							c9.1-4.1,13.9-7.2,16.4-9.2C623,1390.9,624.2,1388.9,623.8,1387.2z"/>
					</g>
					<g>
						<path class="st3" d="M523.7,1434.6c10.3,11.1,26.3,16.3,42,12.1c15.7-4.2,26.9-16.7,30.3-31.5c-10.6,4.1-22.8,8-35.7,11.5
							C547.4,1430.1,534.9,1432.8,523.7,1434.6z"/>
					</g>
				</g>
				<path class="st34" d="M1034.5,1314.3l-55-23.4l-31.4-23.2c-20.3,3.3-35.6,14-38.6,29.3c-4.4,22.5,19.9,46.3,54.3,53.1
					c34.4,6.8,66-6,70.4-28.5c0.5-2.7,0.6-5.3,0.4-8L1034.5,1314.3z"/>
				<path class="st56" d="M1024.5,1307.4l-43.3-19.2l-23.5-15.1c-16.4,2.7-32.3,12.7-34.8,25.1c-3.6,18.3,16.1,37.6,44,43.1
					c27.9,5.5,53.5-4.8,57.1-23.1c0.4-2.2,0.5-4.3,0.3-6.5L1024.5,1307.4z"/>
				<path class="st25" d="M1019.3,1307.5l-38.9-17.3l-21.1-13.5c-14.8,2.4-29,11.5-31.2,22.5c-3.2,16.4,14.5,33.7,39.6,38.7
					c25.1,4.9,48.1-4.3,51.3-20.8c0.4-1.9,0.5-3.9,0.3-5.8L1019.3,1307.5z"/>
			</g>
			<g>
				<g>
					<path class="st57" d="M1508.9,1067.9"/>
				</g>
			</g>
		</g>
		<rect x="11" y="1521" class="st58" width="1058" height="250"/>
	</g>
	<g class="st0">
		<circle class="st3" cx="540" cy="1638.5" r="76.5"/>
		<circle class="st59" cx="540" cy="1638.5" r="60"/>
	</g>
	<g class="st0">
		<path class="st3" d="M142.5,222.5c-0.2,3.8-0.7,7.5-1.3,11.1c-0.6,3.6-1.3,7.2-2.1,10.8c-0.4,1.8-0.9,3.5-1.3,5.3l-1.4,5.3
			c-1,3.5-2,7-3.2,10.4l-6.3-9.1c6.3-0.5,12.7-0.4,19,0.2l10.1,1l-4.2,8.1c-1.7,3.2-3.3,6.4-5.1,9.5c-0.9,1.6-1.8,3.2-2.7,4.7
			c-0.9,1.6-1.9,3.1-2.8,4.7c-1.9,3.1-3.9,6.1-6,9.1c-2.1,3-4.3,6-6.7,8.8c0.5-3.7,1.2-7.3,2-10.9c0.8-3.6,1.7-7.1,2.7-10.6
			c0.5-1.7,1-3.5,1.6-5.2c0.5-1.7,1.1-3.5,1.7-5.2c1.1-3.4,2.3-6.8,3.6-10.2l5.9,9.1c-6.3,0.6-12.7,0.7-19,0.2l-9.9-0.7l3.7-8.4
			c1.5-3.3,3-6.6,4.6-9.9l2.5-4.9c0.9-1.6,1.7-3.2,2.6-4.8c1.8-3.2,3.6-6.3,5.6-9.5C138,228.5,140.1,225.5,142.5,222.5z"/>
	</g>
	<circle class="st0" cx="149" cy="1630" r="57"/>
</g>
</svg>
