<?xml version="1.0" encoding="utf-8"?>
<!-- Generator: Adobe Illustrator 23.0.3, SVG Export Plug-In . SVG Version: 6.00 Build 0)  -->
<svg version="1.1" xmlns="http://www.w3.org/2000/svg" xmlns:xlink="http://www.w3.org/1999/xlink" x="0px" y="0px"
	 viewBox="0 0 1920 1080" style="enable-background:new 0 0 1920 1080;" xml:space="preserve">
<style type="text/css">
	.st0{clip-path:url(#SVGID_2_);}
	.st1{fill:url(#SVGID_3_);}
	.st2{fill:url(#SVGID_4_);}
	.st3{fill:url(#SVGID_5_);}
	.st4{fill:url(#SVGID_6_);}
	.st5{fill:url(#SVGID_7_);}
	.st6{fill:url(#SVGID_8_);}
	.st7{opacity:0.5;}
	.st8{fill:#51B189;}
	.st9{fill:#FFFFFF;}
	.st10{opacity:0.1;fill:#FFFFFF;}
	.st11{fill:url(#SVGID_9_);}
</style>
<g id="Layer_1">
</g>
<g id="Layer_2">
	<g>
		<defs>
			<rect id="SVGID_1_" x="0" y="1" width="1920" height="1079"/>
		</defs>
		<clipPath id="SVGID_2_">
			<use xlink:href="#SVGID_1_"  style="overflow:visible;"/>
		</clipPath>
		<g class="st0">
			<linearGradient id="SVGID_3_" gradientUnits="userSpaceOnUse" x1="1282.3225" y1="-126.1842" x2="457.0673" y2="1580.7539">
				<stop  offset="0" style="stop-color:#51B189"/>
				<stop  offset="2.740759e-02" style="stop-color:#4EA987"/>
				<stop  offset="0.1809" style="stop-color:#427F7A"/>
				<stop  offset="0.3378" style="stop-color:#375D70"/>
				<stop  offset="0.4966" style="stop-color:#2F4268"/>
				<stop  offset="0.6581" style="stop-color:#2A2F62"/>
				<stop  offset="0.8237" style="stop-color:#26245F"/>
				<stop  offset="1" style="stop-color:#25205E"/>
			</linearGradient>
			<rect x="0" y="1" class="st1" width="1920" height="1079"/>
			<linearGradient id="SVGID_4_" gradientUnits="userSpaceOnUse" x1="1556.3783" y1="-931.2495" x2="-1045.5297" y2="1897.3809">
				<stop  offset="0" style="stop-color:#51B189"/>
				<stop  offset="2.740759e-02" style="stop-color:#4EA987"/>
				<stop  offset="0.1809" style="stop-color:#427F7A"/>
				<stop  offset="0.3378" style="stop-color:#375D70"/>
				<stop  offset="0.4966" style="stop-color:#2F4268"/>
				<stop  offset="0.6581" style="stop-color:#2A2F62"/>
				<stop  offset="0.8237" style="stop-color:#26245F"/>
				<stop  offset="1" style="stop-color:#25205E"/>
			</linearGradient>
			<path class="st2" d="M488.3,573.5c-274,135.7,26.8,622.5-372.5,622.5c-305.8,0-579.2-681.3-288.3-775.6
				C559.7,183.2,18-211,323.8-211S1188.6,226.5,488.3,573.5z"/>
			<linearGradient id="SVGID_5_" gradientUnits="userSpaceOnUse" x1="2263.6089" y1="-280.7053" x2="-338.2991" y2="2547.925">
				<stop  offset="0" style="stop-color:#51B189"/>
				<stop  offset="4.045177e-02" style="stop-color:#499681"/>
				<stop  offset="9.847105e-02" style="stop-color:#3F7778"/>
				<stop  offset="0.1641" style="stop-color:#375B70"/>
				<stop  offset="0.2384" style="stop-color:#304569"/>
				<stop  offset="0.3251" style="stop-color:#2B3464"/>
				<stop  offset="0.4322" style="stop-color:#282961"/>
				<stop  offset="0.5826" style="stop-color:#26225F"/>
				<stop  offset="1" style="stop-color:#25205E"/>
			</linearGradient>
			<path class="st3" d="M1241,427.4c302.5-44.5,166.7-600.4,546.4-477.1c290.8,94.4,340.6,826.8,34.8,826.7
				c-769.7-0.3-376.1,541.8-666.9,447.4S467.8,541.3,1241,427.4z"/>
			<linearGradient id="SVGID_6_" gradientUnits="userSpaceOnUse" x1="1876.9478" y1="-636.3746" x2="-724.9604" y2="2192.2559">
				<stop  offset="0" style="stop-color:#51B189"/>
				<stop  offset="4.045177e-02" style="stop-color:#499681"/>
				<stop  offset="9.847105e-02" style="stop-color:#3F7778"/>
				<stop  offset="0.1641" style="stop-color:#375B70"/>
				<stop  offset="0.2384" style="stop-color:#304569"/>
				<stop  offset="0.3251" style="stop-color:#2B3464"/>
				<stop  offset="0.4322" style="stop-color:#282961"/>
				<stop  offset="0.5826" style="stop-color:#26225F"/>
				<stop  offset="1" style="stop-color:#25205E"/>
			</linearGradient>
			<path class="st4" d="M1443.4-512.6c299.2,63.1,364.5-505.3,678-258c240,189.4,32.7,893.6-254.1,787.4
				c-721.8-267.3-540.6,377.7-780.7,188.4S678.6-674,1443.4-512.6z"/>
			<linearGradient id="SVGID_7_" gradientUnits="userSpaceOnUse" x1="2760.4836" y1="176.3436" x2="158.5757" y2="3004.9741">
				<stop  offset="0" style="stop-color:#51B189"/>
				<stop  offset="4.045177e-02" style="stop-color:#499681"/>
				<stop  offset="9.847105e-02" style="stop-color:#3F7778"/>
				<stop  offset="0.1641" style="stop-color:#375B70"/>
				<stop  offset="0.2384" style="stop-color:#304569"/>
				<stop  offset="0.3251" style="stop-color:#2B3464"/>
				<stop  offset="0.4322" style="stop-color:#282961"/>
				<stop  offset="0.5826" style="stop-color:#26225F"/>
				<stop  offset="1" style="stop-color:#25205E"/>
			</linearGradient>
			<path class="st5" d="M1255,1409.4c302.5-44.5,166.7-600.4,546.4-477.1c290.8,94.4,340.6,826.8,34.8,826.7
				c-769.7-0.3-376.1,541.8-666.9,447.4C878.6,2112.1,481.8,1523.3,1255,1409.4z"/>
			<linearGradient id="SVGID_8_" gradientUnits="userSpaceOnUse" x1="1508.0026" y1="256.6912" x2="1534.097" y2="493.7162">
				<stop  offset="0.2576" style="stop-color:#51B189"/>
				<stop  offset="1" style="stop-color:#25205E;stop-opacity:0"/>
			</linearGradient>
			<path class="st6" d="M1525.5,270c-80.4,0-145.5,65.1-145.5,145.5c0,80.4,65.1,145.5,145.5,145.5S1671,495.9,1671,415.5
				C1671,335.1,1605.9,270,1525.5,270z M1437.8,365.7c-8.8,0-15.9-7.1-15.9-15.9c0-8.8,7.1-15.9,15.9-15.9s15.9,7.1,15.9,15.9
				C1453.7,358.6,1446.6,365.7,1437.8,365.7z M1557.3,359.1c-17.6,0-31.8-14.2-31.8-31.8s14.2-31.8,31.8-31.8
				c17.6,0,31.8,14.2,31.8,31.8S1574.9,359.1,1557.3,359.1z M1617.2,403.7c-8.8,0-15.9-7.1-15.9-15.9c0-8.8,7.1-15.9,15.9-15.9
				s15.9,7.1,15.9,15.9C1633.1,396.6,1626,403.7,1617.2,403.7z"/>
			<g class="st7">
				<g>
					<ellipse class="st8" cx="832.2" cy="1033.3" rx="1.1" ry="0.6"/>
					<ellipse class="st8" cx="705.8" cy="1062.3" rx="1.1" ry="0.6"/>
					<ellipse class="st8" cx="798.4" cy="1056.7" rx="1.1" ry="0.6"/>
					<ellipse class="st8" cx="1079" cy="1041" rx="1.1" ry="0.6"/>
					<path class="st8" d="M1133.5,1039.5c0,0.5-0.8,0.9-1.9,0.9c-1,0-1.9-0.4-1.9-0.9s0.8-0.9,1.9-0.9
						C1132.6,1038.5,1133.5,1039,1133.5,1039.5z"/>
					<path class="st8" d="M1237.1,1059.1c0,0.5-0.8,0.9-1.9,0.9c-1,0-1.9-0.4-1.9-0.9c0-0.5,0.8-0.9,1.9-0.9
						C1236.3,1058.2,1237.1,1058.6,1237.1,1059.1z"/>
					<path class="st8" d="M1261.4,1021.1c0,0.5-0.8,0.9-1.9,0.9c-1,0-1.9-0.4-1.9-0.9c0-0.5,0.8-0.9,1.9-0.9
						C1260.6,1020.2,1261.4,1020.6,1261.4,1021.1z"/>
					<ellipse class="st8" cx="1195.8" cy="1039.8" rx="1.1" ry="0.6"/>
					<ellipse class="st8" cx="877.5" cy="1056.7" rx="1.1" ry="0.6"/>
					<ellipse class="st8" cx="727.7" cy="1034.2" rx="1.1" ry="0.6"/>
					<ellipse class="st8" cx="879.2" cy="1024.1" rx="1.1" ry="0.6"/>
					<ellipse class="st8" cx="987.5" cy="1026.9" rx="1.1" ry="0.6"/>
					<ellipse class="st8" cx="1132.3" cy="1075.2" rx="1.1" ry="0.6"/>
					<ellipse class="st8" cx="1045.3" cy="1051.1" rx="1.1" ry="0.6"/>
					<ellipse class="st8" cx="938.7" cy="1044.9" rx="1.1" ry="0.6"/>
					<ellipse class="st8" cx="939.8" cy="1024.1" rx="1.1" ry="0.6"/>
				</g>
				<g>
					<path class="st9" d="M1473.4,9.8c36.3-20,68.1-37.1,94.9-51.3c1.1-0.6,2.2-1.1,3.2-1.7c5.2-2.7,10-5.3,14.3-7.5
						c4.9-2.6,9.4-5,13.5-7.1c4.8-2.5,9.2-4.8,13.1-6.9c4.7-2.5,9-4.7,12.9-6.8c24.2-12.7,37-19.5,36.5-20.4
						c-1.3-2-72,36.3-191.3,97.2c-210.6,107.4-219.1,112.6-216.3,117.1C1256.5,125.9,1266.1,124.1,1473.4,9.8z"/>
					<g>
						<path class="st10" d="M1664-93c4.4,8.9-391.1,225.7-400,230.1c-8.9,4.4-19.7,0.8-24.1-8c-4.4-8.9-0.8-19.7,8-24.1
							C1256.8,100.5,1659.6-101.9,1664-93z"/>
					</g>
				</g>
				<g>
					<path class="st9" d="M1681.4,701.8c36.3-20,68.1-37.1,94.9-51.3c1.1-0.6,2.2-1.1,3.2-1.7c5.2-2.7,10-5.3,14.3-7.5
						c4.9-2.6,9.4-5,13.5-7.1c4.8-2.5,9.2-4.8,13.1-6.9c4.7-2.5,9-4.7,12.9-6.8c24.2-12.7,37-19.5,36.5-20.4
						c-1.3-2-72,36.3-191.3,97.2c-210.6,107.4-219.1,112.6-216.3,117.1C1464.5,817.9,1474.1,816.1,1681.4,701.8z"/>
					<g>
						<path class="st10" d="M1872,599c4.4,8.9-391.1,225.7-400,230.1s-19.7,0.8-24.1-8c-4.4-8.9-0.8-19.7,8-24.1
							S1867.6,590.1,1872,599z"/>
					</g>
				</g>
				<g>
					<path class="st9" d="M1132.8,804.3c21.2-11.7,39.9-21.7,55.6-30c0.6-0.3,1.3-0.7,1.9-1c3.1-1.6,5.9-3.1,8.4-4.4
						c2.9-1.5,5.5-2.9,7.9-4.2c2.8-1.5,5.4-2.8,7.7-4c2.8-1.5,5.3-2.8,7.6-4c14.2-7.4,21.7-11.4,21.4-11.9
						c-0.7-1.2-42.2,21.3-112,56.9c-123.3,62.9-128.3,65.9-126.6,68.5C1005.8,872.3,1011.5,871.3,1132.8,804.3z"/>
					<g>
						<path class="st10" d="M1244.4,744.2c2.6,5.2-229,132.1-234.2,134.7c-5.2,2.6-11.5,0.5-14.1-4.7c-2.6-5.2-0.5-11.5,4.7-14.1
							C1006,857.4,1241.8,739,1244.4,744.2z"/>
					</g>
				</g>
				<g>
					<path class="st9" d="M1842.8,171.3c21.2-11.7,39.9-21.7,55.6-30c0.6-0.3,1.3-0.7,1.9-1c3.1-1.6,5.9-3.1,8.4-4.4
						c2.9-1.5,5.5-2.9,7.9-4.2c2.8-1.5,5.4-2.8,7.7-4c2.8-1.5,5.3-2.8,7.6-4c14.2-7.4,21.7-11.4,21.4-11.9
						c-0.7-1.2-42.2,21.3-112,56.9c-123.3,62.9-128.3,65.9-126.6,68.5C1715.8,239.3,1721.5,238.3,1842.8,171.3z"/>
					<g>
						<path class="st10" d="M1954.4,111.2c2.6,5.2-229,132.1-234.2,134.7c-5.2,2.6-11.5,0.5-14.1-4.7c-2.6-5.2-0.5-11.5,4.7-14.1
							C1716,224.4,1951.8,106,1954.4,111.2z"/>
					</g>
				</g>
				<g>
					<path class="st9" d="M932.6,225.5c16.4-9.1,30.9-16.8,43-23.2c0.5-0.3,1-0.5,1.5-0.8c2.4-1.2,4.5-2.4,6.5-3.4
						c2.2-1.2,4.3-2.2,6.1-3.2c2.2-1.1,4.2-2.2,5.9-3.1c2.1-1.1,4.1-2.1,5.8-3.1c11-5.7,16.8-8.8,16.5-9.2
						c-0.6-0.9-32.6,16.5-86.7,44c-95.4,48.6-99.3,51-98,53C834.4,278.1,838.7,277.3,932.6,225.5z"/>
					<g>
						<path class="st10" d="M1019,178.9c2,4-177.2,102.2-181.2,104.2c-4,2-8.9,0.4-10.9-3.6s-0.4-8.9,3.6-10.9
							S1017,174.9,1019,178.9z"/>
					</g>
				</g>
				<g>
					<path class="st9" d="M188.6,756.5c16.4-9.1,30.9-16.8,43-23.2c0.5-0.3,1-0.5,1.5-0.8c2.4-1.2,4.5-2.4,6.5-3.4
						c2.2-1.2,4.3-2.2,6.1-3.2c2.2-1.1,4.2-2.2,5.9-3.1c2.1-1.1,4.1-2.1,5.8-3.1c11-5.7,16.8-8.8,16.5-9.2
						c-0.6-0.9-32.6,16.5-86.7,44c-95.4,48.6-99.3,51-98,53C90.4,809.1,94.7,808.3,188.6,756.5z"/>
					<g>
						<path class="st10" d="M275,709.9c2,4-177.2,102.2-181.2,104.2s-8.9,0.4-10.9-3.6c-2-4-0.4-8.9,3.6-10.9
							C90.5,797.5,273,705.9,275,709.9z"/>
					</g>
				</g>
				<g>
					<path class="st9" d="M1073.8,504.2c28-15.4,52.6-28.7,73.3-39.6c0.8-0.4,1.7-0.9,2.5-1.3c4-2.1,7.7-4.1,11.1-5.8
						c3.8-2,7.3-3.8,10.4-5.5c3.7-1.9,7.1-3.7,10.1-5.3c3.6-1.9,7-3.7,10-5.2c18.7-9.8,28.6-15.1,28.2-15.7c-1-1.5-55.6,28-147.7,75
						c-162.6,82.9-169.2,87-167,90.4C906.3,593.9,913.7,592.5,1073.8,504.2z"/>
					<g>
						<path class="st10" d="M1221,424.8c3.4,6.9-302,174.3-308.9,177.7c-6.9,3.4-15.2,0.7-18.6-6.2c-3.4-6.9-0.7-15.2,6.2-18.6
							C906.5,574.2,1217.5,418,1221,424.8z"/>
					</g>
				</g>
				<g>
					<path class="st9" d="M661.8,910.2c28-15.4,52.6-28.7,73.3-39.6c0.8-0.4,1.7-0.9,2.5-1.3c4-2.1,7.7-4.1,11.1-5.8
						c3.8-2,7.3-3.8,10.4-5.5c3.7-1.9,7.1-3.7,10.1-5.3c3.6-1.9,7-3.7,10-5.2c18.7-9.8,28.6-15.1,28.2-15.7c-1-1.5-55.6,28-147.7,75
						c-162.6,82.9-169.2,87-167,90.4C494.3,999.9,501.7,998.5,661.8,910.2z"/>
					<g>
						<path class="st10" d="M809,830.8c3.4,6.9-302,174.3-308.9,177.7c-6.9,3.4-15.2,0.7-18.6-6.2c-3.4-6.9-0.7-15.2,6.2-18.6
							C494.5,980.2,805.5,824,809,830.8z"/>
					</g>
				</g>
				<g>
					<path class="st9" d="M491.9,133.2c34.2-18.9,64.3-35,89.5-48.4c1-0.5,2-1.1,3-1.6c4.9-2.6,9.4-5,13.5-7.1
						c4.6-2.4,8.9-4.7,12.7-6.7c4.5-2.4,8.7-4.5,12.4-6.5c4.5-2.3,8.5-4.5,12.2-6.4c22.8-12,34.9-18.4,34.4-19.2
						c-1.2-1.9-67.9,34.2-180.4,91.6C290.7,230.1,282.6,235.1,285.3,239.2C287.4,242.6,296.5,241,491.9,133.2z"/>
					<g>
						<path class="st10" d="M671.6,36.3c4.2,8.4-368.7,212.7-377.1,216.9c-8.4,4.2-18.6,0.8-22.8-7.6c-4.2-8.4-0.8-18.6,7.6-22.8
							C287.8,218.7,667.4,27.9,671.6,36.3z"/>
					</g>
				</g>
				<g>
					<circle class="st9" cx="1094.3" cy="153" r="6"/>
					<circle class="st10" cx="1094.3" cy="153" r="13"/>
				</g>
				<g>
					<circle class="st9" cx="842.3" cy="271" r="6"/>
					<circle class="st10" cx="842.3" cy="271" r="13"/>
				</g>
				<g>
					<circle class="st9" cx="1133.3" cy="626" r="6"/>
					<circle class="st10" cx="1133.3" cy="626" r="13"/>
				</g>
				<g>
					<circle class="st9" cx="684.3" cy="846" r="6"/>
					<circle class="st10" cx="684.3" cy="846" r="13"/>
				</g>
				<g>
					<circle class="st9" cx="1392.3" cy="978" r="6"/>
					<circle class="st10" cx="1392.3" cy="978" r="13"/>
				</g>
				<g>
					<circle class="st9" cx="894.3" cy="36" r="6"/>
					<circle class="st10" cx="894.3" cy="36" r="13"/>
				</g>
				<g>
					<circle class="st9" cx="631.3" cy="159" r="6"/>
					<circle class="st10" cx="631.3" cy="159" r="13"/>
				</g>
				<g>
					<circle class="st9" cx="716.3" cy="36" r="6"/>
					<circle class="st10" cx="716.3" cy="36" r="13"/>
				</g>
				<g>
					<circle class="st9" cx="277.3" cy="398" r="6"/>
					<circle class="st10" cx="277.3" cy="398" r="13"/>
				</g>
				<g>
					<circle class="st9" cx="264.3" cy="577" r="6"/>
					<circle class="st10" cx="264.3" cy="577" r="13"/>
				</g>
				<g>
					<circle class="st9" cx="188.3" cy="895" r="6"/>
					<circle class="st10" cx="188.3" cy="895" r="13"/>
				</g>
				<g>
					<circle class="st9" cx="321.3" cy="994" r="6"/>
					<circle class="st10" cx="321.3" cy="994" r="13"/>
				</g>
				<g>
					<circle class="st9" cx="456.3" cy="262" r="6"/>
					<circle class="st10" cx="456.3" cy="262" r="13"/>
				</g>
				<g>
					<circle class="st9" cx="1032.3" cy="61" r="6"/>
					<circle class="st10" cx="1032.3" cy="61" r="13"/>
				</g>
				<g>
					<circle class="st9" cx="1181.8" cy="225.8" r="2.7"/>
					<circle class="st10" cx="1181.8" cy="225.8" r="5.9"/>
				</g>
				<g>
					<circle class="st9" cx="1718.8" cy="417.8" r="2.7"/>
					<circle class="st10" cx="1718.8" cy="417.8" r="5.9"/>
				</g>
				<g>
					<circle class="st9" cx="1781.8" cy="270.8" r="2.7"/>
					<circle class="st10" cx="1781.8" cy="270.8" r="5.9"/>
				</g>
				<g>
					<circle class="st9" cx="1810.8" cy="323.8" r="2.7"/>
					<circle class="st10" cx="1810.8" cy="323.8" r="5.9"/>
				</g>
				<g>
					<circle class="st9" cx="1602.8" cy="152.8" r="2.7"/>
					<circle class="st10" cx="1602.8" cy="152.8" r="5.9"/>
				</g>
				<g>
					<circle class="st9" cx="1712.8" cy="66.8" r="2.7"/>
					<circle class="st10" cx="1712.8" cy="66.8" r="5.9"/>
				</g>
				<g>
					<circle class="st9" cx="982.8" cy="283.8" r="2.7"/>
					<circle class="st10" cx="982.8" cy="283.8" r="5.9"/>
				</g>
				<g>
					<circle class="st9" cx="924.8" cy="171.8" r="2.7"/>
					<circle class="st10" cx="924.8" cy="171.8" r="5.9"/>
				</g>
				<g>
					<circle class="st9" cx="1149.8" cy="66.8" r="2.7"/>
					<circle class="st10" cx="1149.8" cy="66.8" r="5.9"/>
				</g>
				<g>
					<circle class="st9" cx="771.8" cy="116.8" r="2.7"/>
					<circle class="st10" cx="771.8" cy="116.8" r="5.9"/>
				</g>
				<g>
					<circle class="st9" cx="370.8" cy="340.8" r="2.7"/>
					<circle class="st10" cx="370.8" cy="340.8" r="5.9"/>
				</g>
				<g>
					<circle class="st9" cx="295.8" cy="769.8" r="2.7"/>
					<circle class="st10" cx="295.8" cy="769.8" r="5.9"/>
				</g>
				<g>
					<circle class="st9" cx="367.8" cy="897.8" r="2.7"/>
					<circle class="st10" cx="367.8" cy="897.8" r="5.9"/>
				</g>
				<g>
					<circle class="st9" cx="46.8" cy="914.8" r="2.7"/>
					<circle class="st10" cx="46.8" cy="914.8" r="5.9"/>
				</g>
				<g>
					<circle class="st9" cx="206.8" cy="821.8" r="2.7"/>
					<circle class="st10" cx="206.8" cy="821.8" r="5.9"/>
				</g>
				<g>
					<circle class="st9" cx="43.8" cy="675.8" r="2.7"/>
					<circle class="st10" cx="43.8" cy="675.8" r="5.9"/>
				</g>
				<g>
					<circle class="st9" cx="163.8" cy="582.8" r="2.7"/>
					<circle class="st10" cx="163.8" cy="582.8" r="5.9"/>
				</g>
				<g>
					<circle class="st9" cx="503.8" cy="1023.8" r="2.7"/>
					<circle class="st10" cx="503.8" cy="1023.8" r="5.9"/>
				</g>
				<g>
					<circle class="st9" cx="811.8" cy="702.8" r="2.7"/>
					<circle class="st10" cx="811.8" cy="702.8" r="5.9"/>
				</g>
				<g>
					<circle class="st9" cx="209.8" cy="995.8" r="2.7"/>
					<circle class="st10" cx="209.8" cy="995.8" r="5.9"/>
				</g>
				<g>
					<circle class="st9" cx="276.8" cy="294.8" r="2.7"/>
					<circle class="st10" cx="276.8" cy="294.8" r="5.9"/>
				</g>
				<g>
					<circle class="st9" cx="157.8" cy="470.8" r="2.7"/>
					<circle class="st10" cx="157.8" cy="470.8" r="5.9"/>
				</g>
				<g>
					<circle class="st9" cx="597.8" cy="66.8" r="2.7"/>
					<circle class="st10" cx="597.8" cy="66.8" r="5.9"/>
				</g>
				<g>
					<circle class="st9" cx="703.8" cy="264.8" r="2.7"/>
					<circle class="st10" cx="703.8" cy="264.8" r="5.9"/>
				</g>
				<g>
					<circle class="st9" cx="480.8" cy="149.8" r="2.7"/>
					<circle class="st10" cx="480.8" cy="149.8" r="5.9"/>
				</g>
				<g>
					<circle class="st9" cx="315.8" cy="60.8" r="2.7"/>
					<circle class="st10" cx="315.8" cy="60.8" r="5.9"/>
				</g>
				<g>
					<circle class="st9" cx="154.8" cy="143.8" r="2.7"/>
					<circle class="st10" cx="154.8" cy="143.8" r="5.9"/>
				</g>
				<g>
					<circle class="st9" cx="180.8" cy="41.8" r="2.7"/>
					<circle class="st10" cx="180.8" cy="41.8" r="5.9"/>
				</g>
				<g>
					<circle class="st9" cx="46.8" cy="239.8" r="2.7"/>
					<circle class="st10" cx="46.8" cy="239.8" r="5.9"/>
				</g>
				<g>
					<circle class="st9" cx="1259.8" cy="382.8" r="2.7"/>
					<circle class="st10" cx="1259.8" cy="382.8" r="5.9"/>
				</g>
				<g>
					<circle class="st9" cx="1535.8" cy="276.8" r="2.7"/>
					<circle class="st10" cx="1535.8" cy="276.8" r="5.9"/>
				</g>
				<g>
					<circle class="st9" cx="1314.8" cy="705.8" r="2.7"/>
					<circle class="st10" cx="1314.8" cy="705.8" r="5.9"/>
				</g>
				<g>
					<circle class="st9" cx="1408.8" cy="583.8" r="2.7"/>
					<circle class="st10" cx="1408.8" cy="583.8" r="5.9"/>
				</g>
				<g>
					<circle class="st9" cx="1581.8" cy="584.8" r="2.7"/>
					<circle class="st10" cx="1581.8" cy="584.8" r="5.9"/>
				</g>
				<g>
					<circle class="st9" cx="1632.8" cy="651.8" r="2.7"/>
					<circle class="st10" cx="1632.8" cy="651.8" r="5.9"/>
				</g>
				<g>
					<circle class="st9" cx="1793.8" cy="586.8" r="2.7"/>
					<circle class="st10" cx="1793.8" cy="586.8" r="5.9"/>
				</g>
				<g>
					<circle class="st9" cx="1739.8" cy="648.8" r="2.7"/>
					<circle class="st10" cx="1739.8" cy="648.8" r="5.9"/>
				</g>
				<g>
					<circle class="st9" cx="1661.8" cy="815.8" r="2.7"/>
					<circle class="st10" cx="1661.8" cy="815.8" r="5.9"/>
				</g>
				<g>
					<circle class="st9" cx="1877.8" cy="469.8" r="2.7"/>
					<circle class="st10" cx="1877.8" cy="469.8" r="5.9"/>
				</g>
				<g>
					<circle class="st9" cx="1181.8" cy="527.8" r="2.7"/>
					<circle class="st10" cx="1181.8" cy="527.8" r="5.9"/>
				</g>
				<g>
					<circle class="st9" cx="1127.8" cy="439.8" r="2.7"/>
					<circle class="st10" cx="1127.8" cy="439.8" r="5.9"/>
				</g>
				<g>
					<circle class="st9" cx="1087.8" cy="689.8" r="2.7"/>
					<circle class="st10" cx="1087.8" cy="689.8" r="5.9"/>
				</g>
				<g>
					<circle class="st9" cx="677.8" cy="954.8" r="2.7"/>
					<circle class="st10" cx="677.8" cy="954.8" r="5.9"/>
				</g>
				<g>
					<circle class="st9" cx="924.8" cy="666.8" r="2.7"/>
					<circle class="st10" cx="924.8" cy="666.8" r="5.9"/>
				</g>
				<g>
					<circle class="st9" cx="880.8" cy="878.8" r="2.7"/>
					<circle class="st10" cx="880.8" cy="878.8" r="5.9"/>
				</g>
				<g>
					<circle class="st9" cx="1019.8" cy="848.8" r="2.7"/>
					<circle class="st10" cx="1019.8" cy="848.8" r="5.9"/>
				</g>
				<g>
					<circle class="st9" cx="745.8" cy="866.8" r="2.7"/>
					<circle class="st10" cx="745.8" cy="866.8" r="5.9"/>
				</g>
				<g>
					<circle class="st9" cx="847.8" cy="382.8" r="2.7"/>
					<circle class="st10" cx="847.8" cy="382.8" r="5.9"/>
				</g>
				<g>
					<circle class="st9" cx="998.8" cy="556.8" r="2.7"/>
					<circle class="st10" cx="998.8" cy="556.8" r="5.9"/>
				</g>
				<g>
					<circle class="st9" cx="1242.8" cy="854.8" r="2.7"/>
					<circle class="st10" cx="1242.8" cy="854.8" r="5.9"/>
				</g>
				<g>
					<circle class="st9" cx="982.8" cy="1001.8" r="2.7"/>
					<circle class="st10" cx="982.8" cy="1001.8" r="5.9"/>
				</g>
				<g>
					<circle class="st9" cx="1155.8" cy="1039.8" r="2.7"/>
					<circle class="st10" cx="1155.8" cy="1039.8" r="5.9"/>
				</g>
				<g>
					<circle class="st9" cx="1094.6" cy="287.4" r="7.5"/>
					<circle class="st10" cx="1094.6" cy="287.4" r="16.2"/>
				</g>
				<g>
					<circle class="st9" cx="331.6" cy="203.4" r="7.5"/>
					<circle class="st10" cx="331.6" cy="203.4" r="16.2"/>
				</g>
				<g>
					<circle class="st9" cx="62.6" cy="74.4" r="7.5"/>
					<circle class="st10" cx="62.6" cy="74.4" r="16.2"/>
				</g>
				<g>
					<circle class="st9" cx="469.6" cy="42.4" r="7.5"/>
					<circle class="st10" cx="469.6" cy="42.4" r="16.2"/>
				</g>
				<g>
					<circle class="st9" cx="188.6" cy="256.4" r="7.5"/>
					<circle class="st10" cx="188.6" cy="256.4" r="16.2"/>
				</g>
				<g>
					<circle class="st9" cx="78.6" cy="380.4" r="7.5"/>
					<circle class="st10" cx="78.6" cy="380.4" r="16.2"/>
				</g>
				<g>
					<circle class="st9" cx="148.6" cy="711.4" r="7.5"/>
					<circle class="st10" cx="148.6" cy="711.4" r="16.2"/>
				</g>
				<g>
					<circle class="st9" cx="55.6" cy="815.4" r="7.5"/>
					<circle class="st10" cx="55.6" cy="815.4" r="16.2"/>
				</g>
				<g>
					<circle class="st9" cx="94.6" cy="1007.4" r="7.5"/>
					<circle class="st10" cx="94.6" cy="1007.4" r="16.2"/>
				</g>
				<g>
					<circle class="st9" cx="46.6" cy="554.4" r="7.5"/>
					<circle class="st10" cx="46.6" cy="554.4" r="16.2"/>
				</g>
				<g>
					<circle class="st9" cx="976.6" cy="393.4" r="7.5"/>
					<circle class="st10" cx="976.6" cy="393.4" r="16.2"/>
				</g>
				<g>
					<circle class="st9" cx="869.6" cy="556.4" r="7.5"/>
					<circle class="st10" cx="869.6" cy="556.4" r="16.2"/>
				</g>
				<g>
					<circle class="st9" cx="739.6" cy="1007.4" r="7.5"/>
					<circle class="st10" cx="739.6" cy="1007.4" r="16.2"/>
				</g>
				<g>
					<circle class="st9" cx="1292.6" cy="584.4" r="7.5"/>
					<circle class="st10" cx="1292.6" cy="584.4" r="16.2"/>
				</g>
				<g>
					<circle class="st9" cx="1184.6" cy="762.4" r="7.5"/>
					<circle class="st10" cx="1184.6" cy="762.4" r="16.2"/>
				</g>
				<g>
					<circle class="st9" cx="496.6" cy="884.4" r="7.5"/>
					<circle class="st10" cx="496.6" cy="884.4" r="16.2"/>
				</g>
				<g>
					<circle class="st9" cx="1120.6" cy="962.4" r="7.5"/>
					<circle class="st10" cx="1120.6" cy="962.4" r="16.2"/>
				</g>
				<g>
					<circle class="st9" cx="918.6" cy="755.4" r="7.5"/>
					<circle class="st10" cx="918.6" cy="755.4" r="16.2"/>
				</g>
				<g>
					<circle class="st9" cx="1616.6" cy="978.4" r="7.5"/>
					<circle class="st10" cx="1616.6" cy="978.4" r="16.2"/>
				</g>
				<g>
					<circle class="st9" cx="1672.6" cy="515.4" r="7.5"/>
					<circle class="st10" cx="1672.6" cy="515.4" r="16.2"/>
				</g>
				<g>
					<circle class="st9" cx="1870.6" cy="583.4" r="7.5"/>
					<circle class="st10" cx="1870.6" cy="583.4" r="16.2"/>
				</g>
				<g>
					<circle class="st9" cx="1500.6" cy="683.4" r="7.5"/>
					<circle class="st10" cx="1500.6" cy="683.4" r="16.2"/>
				</g>
				<g>
					<circle class="st9" cx="1781.6" cy="727.4" r="7.5"/>
					<circle class="st10" cx="1781.6" cy="727.4" r="16.2"/>
				</g>
				<g>
					<circle class="st9" cx="1427.6" cy="808.4" r="7.5"/>
					<circle class="st10" cx="1427.6" cy="808.4" r="16.2"/>
				</g>
				<g>
					<circle class="st9" cx="1276.6" cy="994.4" r="7.5"/>
					<circle class="st10" cx="1276.6" cy="994.4" r="16.2"/>
				</g>
				<g>
					<circle class="st9" cx="1352.6" cy="303.4" r="7.5"/>
					<circle class="st10" cx="1352.6" cy="303.4" r="16.2"/>
				</g>
				<g>
					<circle class="st9" cx="1408.6" cy="146.4" r="7.5"/>
					<circle class="st10" cx="1408.6" cy="146.4" r="16.2"/>
				</g>
				<g>
					<circle class="st9" cx="1816.6" cy="914.4" r="7.5"/>
					<circle class="st10" cx="1816.6" cy="914.4" r="16.2"/>
				</g>
				<g>
					<circle class="st9" cx="1818.6" cy="140.4" r="7.5"/>
					<circle class="st10" cx="1818.6" cy="140.4" r="16.2"/>
				</g>
				<g>
					<circle class="st9" cx="1663.6" cy="296.4" r="7.5"/>
					<circle class="st10" cx="1663.6" cy="296.4" r="16.2"/>
				</g>
				<g>
					<circle class="st9" cx="1572.6" cy="69.4" r="7.5"/>
					<circle class="st10" cx="1572.6" cy="69.4" r="16.2"/>
				</g>
			</g>
			<linearGradient id="SVGID_9_" gradientUnits="userSpaceOnUse" x1="521.8649" y1="185.8602" x2="587.1011" y2="722.9717">
				<stop  offset="0.2576" style="stop-color:#51B189"/>
				<stop  offset="1" style="stop-color:#25205E;stop-opacity:0"/>
			</linearGradient>
			<path class="st11" d="M564.7,255.6c-156.1,0-282.7,126.6-282.7,282.7S408.5,821,564.7,821s282.7-126.6,282.7-282.7
				S720.8,255.6,564.7,255.6z M429.8,438.5c-14.8,0-26.9-12-26.9-26.9c0-14.8,12-26.9,26.9-26.9s26.9,12,26.9,26.9
				C456.6,426.4,444.6,438.5,429.8,438.5z M525.6,497.6c-9.1,0-16.4-7.4-16.4-16.4c0-9.1,7.4-16.4,16.4-16.4s16.4,7.4,16.4,16.4
				C542,490.2,534.7,497.6,525.6,497.6z M631,431.2c-33.7,0-60.9-27.3-60.9-60.9s27.3-60.9,60.9-60.9c33.7,0,60.9,27.3,60.9,60.9
				S664.6,431.2,631,431.2z"/>
		</g>
	</g>
</g>
</svg>
