<?xml version="1.0" encoding="utf-8"?>
<!-- Generator: Adobe Illustrator 23.0.3, SVG Export Plug-In . SVG Version: 6.00 Build 0)  -->
<svg version="1.1" id="Layer_1" xmlns="http://www.w3.org/2000/svg" xmlns:xlink="http://www.w3.org/1999/xlink" x="0px" y="0px"
	 viewBox="0 0 1440 800" style="enable-background:new 0 0 1440 800;" xml:space="preserve">
<style type="text/css">
	.st0{clip-path:url(#SVGID_1_);fill:url(#SVGID_2_);}
	.st1{clip-path:url(#SVGID_1_);}
	.st2{fill:#FFFFFF;}
	.st3{clip-path:url(#SVGID_1_);fill:url(#SVGID_3_);}
	.st4{clip-path:url(#SVGID_1_);fill:url(#SVGID_4_);}
	.st5{clip-path:url(#SVGID_1_);fill-rule:evenodd;clip-rule:evenodd;fill:url(#SVGID_5_);}
	.st6{clip-path:url(#SVGID_1_);fill-rule:evenodd;clip-rule:evenodd;fill:url(#SVGID_6_);}
	.st7{clip-path:url(#SVGID_1_);fill:url(#SVGID_7_);}
	.st8{fill:url(#SVGID_8_);}
	.st9{fill:url(#SVGID_9_);}
	.st10{fill:url(#SVGID_10_);}
	.st11{fill:#51B189;}
	.st12{fill:url(#SVGID_11_);}
	.st13{fill:url(#SVGID_12_);}
	.st14{fill:url(#SVGID_13_);}
	.st15{fill:url(#SVGID_14_);}
	.st16{fill:url(#SVGID_15_);}
	.st17{fill:url(#SVGID_16_);}
	.st18{fill:url(#SVGID_17_);}
	.st19{fill:url(#SVGID_18_);}
	.st20{fill:url(#SVGID_19_);}
	.st21{clip-path:url(#SVGID_1_);fill:#51B189;}
</style>
<g>
	<g>
		<defs>
			<rect id="SVGID_25_" width="1440" height="799.7"/>
		</defs>
		<clipPath id="SVGID_1_">
			<use xlink:href="#SVGID_25_"  style="overflow:visible;"/>
		</clipPath>
		<linearGradient id="SVGID_2_" gradientUnits="userSpaceOnUse" x1="720" y1="800.5104" x2="720" y2="6.6612">
			<stop  offset="0" style="stop-color:#51B189"/>
			<stop  offset="2.740759e-02" style="stop-color:#4EA987"/>
			<stop  offset="0.1809" style="stop-color:#427F7A"/>
			<stop  offset="0.3378" style="stop-color:#375D70"/>
			<stop  offset="0.4966" style="stop-color:#2F4268"/>
			<stop  offset="0.6581" style="stop-color:#2A2F62"/>
			<stop  offset="0.8237" style="stop-color:#26245F"/>
			<stop  offset="1" style="stop-color:#25205E"/>
		</linearGradient>
		<rect class="st0" width="1440" height="811.7"/>
		<g class="st1">
			<path class="st2" d="M1420.5,229.6c-1.2-2.1-46.7,25.7-123.9,69c-136.3,76.4-141.7,80.4-138.9,85.2c2.3,3.8,9,3.5,141.7-80.3
				c23.2-14.7,43.7-27.1,60.9-37.3c0.7-0.4,1.4-0.8,2.1-1.2c3.4-2,6.4-3.8,9.2-5.4c3.2-1.9,6.1-3.6,8.7-5.1c3.1-1.8,5.9-3.5,8.4-5
				c3-1.8,5.8-3.4,8.3-4.9C1412.7,235.5,1421,230.5,1420.5,229.6z"/>
			<path class="st2" d="M344.5,110.6c-1.2-2.1-46.7,25.7-123.9,69C84.3,256.1,78.9,260,81.7,264.8c2.3,3.8,9,3.5,141.7-80.3
				c23.2-14.7,43.7-27.1,60.9-37.3c0.7-0.4,1.4-0.8,2.1-1.2c3.4-2,6.4-3.8,9.2-5.4c3.2-1.9,6.1-3.6,8.7-5.1c3.1-1.8,5.9-3.5,8.4-5
				c3-1.8,5.8-3.4,8.3-4.9C336.7,116.5,345,111.5,344.5,110.6z"/>
			<path class="st2" d="M885.1,68.6c17.3-10.5,32.6-19.6,45.4-27c0.5-0.3,1-0.6,1.5-0.9c2.5-1.5,4.8-2.8,6.9-4
				c2.4-1.4,4.5-2.6,6.5-3.7c2.3-1.3,4.4-2.5,6.3-3.6c2.3-1.3,4.3-2.5,6.2-3.6c11.6-6.7,17.7-10.3,17.5-10.7
				c-0.6-1-34.4,19.1-91.5,51.2c-100.7,56.6-104.8,59.3-103.4,61.7C781.3,129.8,785.9,128.9,885.1,68.6z"/>
			<path class="st2" d="M79.5,145.8c2.6,0,4.8-2.1,4.8-4.8c0-2.6-2.1-4.8-4.8-4.8s-4.8,2.1-4.8,4.8
				C74.7,143.7,76.8,145.8,79.5,145.8z"/>
			<path class="st2" d="M633.2,446.8c2.6,0,4.8-2.1,4.8-4.8s-2.1-4.8-4.8-4.8c-2.6,0-4.8,2.1-4.8,4.8S630.6,446.8,633.2,446.8z"/>
			<path class="st2" d="M1211.8,48.2c-2.6,0-4.8,2.1-4.8,4.8c0,2.6,2.1,4.8,4.8,4.8s4.8-2.1,4.8-4.8
				C1216.6,50.3,1214.4,48.2,1211.8,48.2z"/>
			<path class="st2" d="M491.9,148.6c2.6,0,4.8-2.1,4.8-4.8c0-2.6-2.1-4.8-4.8-4.8c-2.6,0-4.8,2.1-4.8,4.8
				C487.1,146.4,489.3,148.6,491.9,148.6z"/>
			<path class="st2" d="M1368.3,468.6c-2.6,0-4.8,2.1-4.8,4.8c0,2.6,2.1,4.8,4.8,4.8c2.6,0,4.8-2.1,4.8-4.8
				C1373.1,470.7,1371,468.6,1368.3,468.6z"/>
			<path class="st2" d="M1250.3,143.6c-2.6,0-4.8,2.1-4.8,4.8c0,2.6,2.1,4.8,4.8,4.8c2.6,0,4.8-2.1,4.8-4.8
				C1255.1,145.7,1253,143.6,1250.3,143.6z"/>
			<circle class="st2" cx="1129.9" cy="124.1" r="4.8"/>
			<path class="st2" d="M277.7,408.8c0-1.8-1.4-3.2-3.2-3.2c-1.8,0-3.2,1.4-3.2,3.2c0,1.8,1.4,3.2,3.2,3.2
				C276.2,412,277.7,410.6,277.7,408.8z"/>
			<path class="st2" d="M40.2,712c-1.8,0-3.2,1.4-3.2,3.2c0,1.8,1.4,3.2,3.2,3.2c1.8,0,3.2-1.4,3.2-3.2C43.5,713.4,42,712,40.2,712z
				"/>
			<path class="st2" d="M408.6,62.7c-1.8,0-3.2,1.4-3.2,3.2c0,1.8,1.4,3.2,3.2,3.2c1.8,0,3.2-1.4,3.2-3.2
				C411.9,64.1,410.4,62.7,408.6,62.7z"/>
			<path class="st2" d="M81.5,332c0-1.8-1.4-3.2-3.2-3.2c-1.8,0-3.2,1.4-3.2,3.2c0,1.8,1.4,3.2,3.2,3.2
				C80.1,335.2,81.5,333.8,81.5,332z"/>
			<path class="st2" d="M659,159.4c1.8,0,3.2-1.4,3.2-3.2c0-1.8-1.4-3.2-3.2-3.2c-1.8,0-3.2,1.4-3.2,3.2
				C655.8,158,657.2,159.4,659,159.4z"/>
			<path class="st2" d="M327,202.4c1.8,0,3.2-1.4,3.2-3.2c0-1.8-1.4-3.2-3.2-3.2c-1.8,0-3.2,1.4-3.2,3.2
				C323.8,201,325.2,202.4,327,202.4z"/>
			<path class="st2" d="M1211.4,242c1.8,0,3.2-1.4,3.2-3.2c0-1.8-1.4-3.2-3.2-3.2c-1.8,0-3.2,1.4-3.2,3.2
				C1208.2,240.6,1209.7,242,1211.4,242z"/>
			<path class="st2" d="M156.4,37c1.8,0,3.2-1.4,3.2-3.2c0-1.8-1.4-3.2-3.2-3.2c-1.8,0-3.2,1.4-3.2,3.2
				C153.2,35.6,154.7,37,156.4,37z"/>
			<path class="st2" d="M418.5,426.3c-0.9,0-1.7,0.8-1.7,1.7c0,0.9,0.8,1.7,1.7,1.7c0.9,0,1.7-0.8,1.7-1.7
				C420.2,427,419.4,426.3,418.5,426.3z"/>
			<path class="st2" d="M575.4,21.2c0,0.9,0.8,1.7,1.7,1.7c0.9,0,1.7-0.8,1.7-1.7c0-0.9-0.8-1.7-1.7-1.7
				C576.2,19.5,575.4,20.3,575.4,21.2z"/>
			<path class="st2" d="M41.4,48.2c0,0.9,0.8,1.7,1.7,1.7c0.9,0,1.7-0.8,1.7-1.7c0-0.9-0.8-1.7-1.7-1.7
				C42.2,46.5,41.4,47.3,41.4,48.2z"/>
			<path class="st2" d="M858.4,421.3c0,0.9,0.8,1.7,1.7,1.7c0.9,0,1.7-0.8,1.7-1.7c0-0.9-0.8-1.7-1.7-1.7
				C859.2,419.6,858.4,420.4,858.4,421.3z"/>
			<path class="st2" d="M1105.7,784.2c-0.9,0-1.7,0.8-1.7,1.7c0,0.9,0.8,1.7,1.7,1.7s1.7-0.8,1.7-1.7
				C1107.4,784.9,1106.7,784.2,1105.7,784.2z"/>
			<path class="st2" d="M1390.1,624.8c-0.9,0-1.7,0.8-1.7,1.7c0,0.9,0.8,1.7,1.7,1.7s1.7-0.8,1.7-1.7
				C1391.8,625.6,1391,624.8,1390.1,624.8z"/>
			<path class="st2" d="M787.8,60.3c-0.9,0-1.7,0.8-1.7,1.7c0,0.9,0.8,1.7,1.7,1.7c0.9,0,1.7-0.8,1.7-1.7
				C789.5,61,788.7,60.3,787.8,60.3z"/>
			<path class="st2" d="M1082.8,45.3c-0.9,0-1.7,0.8-1.7,1.7c0,0.9,0.8,1.7,1.7,1.7c0.9,0,1.7-0.8,1.7-1.7
				C1084.5,46,1083.7,45.3,1082.8,45.3z"/>
			<path class="st2" d="M83.7,498.6c-1.8,0-3.2,1.4-3.2,3.2c0,1.8,1.4,3.2,3.2,3.2c1.8,0,3.2-1.4,3.2-3.2
				C86.9,500.1,85.5,498.6,83.7,498.6z"/>
			<path class="st2" d="M1258.3,735.9c-1.8,0-3.2,1.4-3.2,3.2c0,1.8,1.4,3.2,3.2,3.2c1.8,0,3.2-1.4,3.2-3.2
				C1261.5,737.4,1260.1,735.9,1258.3,735.9z"/>
			<path class="st2" d="M1339.8,185.9c2.6,0,4.8-2.1,4.8-4.8s-2.1-4.8-4.8-4.8c-2.6,0-4.8,2.1-4.8,4.8S1337.2,185.9,1339.8,185.9z"
				/>
			<path class="st2" d="M786.1,477.4c-2.6,0-4.8,2.1-4.8,4.8c0,2.6,2.1,4.8,4.8,4.8c2.6,0,4.8-2.1,4.8-4.8
				C790.8,479.5,788.7,477.4,786.1,477.4z"/>
			<path class="st2" d="M275.5,96.3c-2.6,0-4.8,2.1-4.8,4.8c0,2.6,2.1,4.8,4.8,4.8c2.6,0,4.8-2.1,4.8-4.8
				C280.2,98.4,278.1,96.3,275.5,96.3z"/>
			<path class="st2" d="M896.6,159.9c0,2.6,2.1,4.8,4.8,4.8s4.8-2.1,4.8-4.8c0-2.6-2.1-4.8-4.8-4.8S896.6,157.3,896.6,159.9z"/>
			<path class="st2" d="M891.6,9.9c0,2.6,2.1,4.8,4.8,4.8s4.8-2.1,4.8-4.8c0-2.6-2.1-4.8-4.8-4.8S891.6,7.3,891.6,9.9z"/>
			
				<ellipse transform="matrix(0.7071 -0.7071 0.7071 0.7071 -348.119 186.3864)" class="st2" cx="50.9" cy="513.4" rx="4.8" ry="4.8"/>
			<path class="st2" d="M1148,448.9c0-1.8-1.4-3.2-3.2-3.2c-1.8,0-3.2,1.4-3.2,3.2c0,1.8,1.4,3.2,3.2,3.2
				C1146.6,452.1,1148,450.6,1148,448.9z"/>
			<path class="st2" d="M1379,752.1c-1.8,0-3.2,1.4-3.2,3.2c0,1.8,1.4,3.2,3.2,3.2c1.8,0,3.2-1.4,3.2-3.2
				C1382.3,753.5,1380.8,752.1,1379,752.1z"/>
			<path class="st2" d="M1009.4,106c0,1.8,1.4,3.2,3.2,3.2c1.8,0,3.2-1.4,3.2-3.2c0-1.8-1.4-3.2-3.2-3.2
				C1010.9,102.7,1009.4,104.2,1009.4,106z"/>
			<path class="st2" d="M1341,368.9c-1.8,0-3.2,1.4-3.2,3.2c0,1.8,1.4,3.2,3.2,3.2c1.8,0,3.2-1.4,3.2-3.2
				C1344.2,370.3,1342.8,368.9,1341,368.9z"/>
			<path class="st2" d="M760.3,193.1c-1.8,0-3.2,1.4-3.2,3.2c0,1.8,1.4,3.2,3.2,3.2c1.8,0,3.2-1.4,3.2-3.2
				C763.5,194.5,762,193.1,760.3,193.1z"/>
			<path class="st2" d="M705.3,20.1c-1.8,0-3.2,1.4-3.2,3.2c0,1.8,1.4,3.2,3.2,3.2c1.8,0,3.2-1.4,3.2-3.2
				C708.5,21.5,707,20.1,705.3,20.1z"/>
			<circle class="st2" cx="215.8" cy="278.9" r="3.2"/>
			<path class="st2" d="M999.1,468.1c0,0.9,0.8,1.7,1.7,1.7c0.9,0,1.7-0.8,1.7-1.7c0-0.9-0.8-1.7-1.7-1.7
				C999.8,466.4,999.1,467.1,999.1,468.1z"/>
			<path class="st2" d="M845.8,61.3c0-0.9-0.8-1.7-1.7-1.7c-0.9,0-1.7,0.8-1.7,1.7c0,0.9,0.8,1.7,1.7,1.7
				C845.1,63,845.8,62.2,845.8,61.3z"/>
			<path class="st2" d="M559.1,459.7c-0.9,0-1.7,0.8-1.7,1.7c0,0.9,0.8,1.7,1.7,1.7c0.9,0,1.7-0.8,1.7-1.7
				C560.8,460.5,560.1,459.7,559.1,459.7z"/>
			<path class="st2" d="M311.5,322.3c-0.9,0-1.7,0.8-1.7,1.7c0,0.9,0.8,1.7,1.7,1.7c0.9,0,1.7-0.8,1.7-1.7
				C313.2,323,312.5,322.3,311.5,322.3z"/>
			<path class="st2" d="M29.2,664.9c-0.9,0-1.7,0.8-1.7,1.7c0,0.9,0.8,1.7,1.7,1.7c0.9,0,1.7-0.8,1.7-1.7
				C30.9,665.7,30.1,664.9,29.2,664.9z"/>
			<path class="st2" d="M631.8,102.1c0,0.9,0.8,1.7,1.7,1.7c0.9,0,1.7-0.8,1.7-1.7c0-0.9-0.8-1.7-1.7-1.7
				C632.6,100.4,631.8,101.1,631.8,102.1z"/>
			<path class="st2" d="M1335.6,538.7c-1.8,0-3.2,1.4-3.2,3.2c0,1.8,1.4,3.2,3.2,3.2s3.2-1.4,3.2-3.2
				C1338.8,540.2,1337.3,538.7,1335.6,538.7z"/>
			<path class="st2" d="M1347.6,52.7c-1.8,0-3.2,1.4-3.2,3.2c0,1.8,1.4,3.2,3.2,3.2s3.2-1.4,3.2-3.2
				C1350.8,54.2,1349.3,52.7,1347.6,52.7z"/>
			<path class="st2" d="M161,776c-1.8,0-3.2,1.4-3.2,3.2c0,1.8,1.4,3.2,3.2,3.2c1.8,0,3.2-1.4,3.2-3.2
				C164.2,777.5,162.8,776,161,776z"/>
		</g>
		<linearGradient id="SVGID_3_" gradientUnits="userSpaceOnUse" x1="585.6683" y1="99.4416" x2="585.6683" y2="517.0136">
			<stop  offset="0.2576" style="stop-color:#51B189"/>
			<stop  offset="1" style="stop-color:#25205E;stop-opacity:0"/>
		</linearGradient>
		<path class="st3" d="M585.7,195.2c-135.4,0-245.1,109.7-245.1,245.1s109.7,245.1,245.1,245.1s245.1-109.7,245.1-245.1
			S721,195.2,585.7,195.2z M468.7,353.8c-12.9,0-23.3-10.4-23.3-23.3c0-12.9,10.4-23.3,23.3-23.3c12.9,0,23.3,10.4,23.3,23.3
			C492,343.3,481.6,353.8,468.7,353.8z M551.8,405c-7.9,0-14.2-6.4-14.2-14.2c0-7.9,6.4-14.2,14.2-14.2s14.2,6.4,14.2,14.2
			C566,398.6,559.7,405,551.8,405z M643.2,347.5c-29.2,0-52.8-23.7-52.8-52.8c0-29.2,23.7-52.8,52.8-52.8s52.8,23.7,52.8,52.8
			C696,323.8,672.3,347.5,643.2,347.5z"/>
		<linearGradient id="SVGID_4_" gradientUnits="userSpaceOnUse" x1="1038.298" y1="155.3497" x2="1041.3021" y2="389.6707">
			<stop  offset="0.2576" style="stop-color:#51B189"/>
			<stop  offset="1" style="stop-color:#25205E;stop-opacity:0"/>
		</linearGradient>
		<path class="st4" d="M1040.4,233.8c-47.3,0-85.6,38.3-85.6,85.6c0,47.3,38.3,85.6,85.6,85.6c47.3,0,85.6-38.3,85.6-85.6
			C1126,272.1,1087.7,233.8,1040.4,233.8z M988.8,290c-5.2,0-9.4-4.2-9.4-9.4c0-5.2,4.2-9.4,9.4-9.4c5.2,0,9.4,4.2,9.4,9.4
			C998.2,285.9,994,290,988.8,290z M1059.1,286.1c-10.3,0-18.7-8.4-18.7-18.7c0-10.3,8.4-18.7,18.7-18.7s18.7,8.4,18.7,18.7
			C1077.8,277.8,1069.5,286.1,1059.1,286.1z M1094.4,312.4c-5.2,0-9.4-4.2-9.4-9.4c0-5.2,4.2-9.4,9.4-9.4s9.4,4.2,9.4,9.4
			C1103.7,308.2,1099.5,312.4,1094.4,312.4z"/>
		<linearGradient id="SVGID_5_" gradientUnits="userSpaceOnUse" x1="758.6373" y1="506.7769" x2="811.2094" y2="708.0526">
			<stop  offset="0" style="stop-color:#51B189"/>
			<stop  offset="1" style="stop-color:#25205E;stop-opacity:0"/>
		</linearGradient>
		<path class="st5" d="M1429.5,372.9c-3.8,0.8-7.3,2.6-10.3,5.2c-3.3,2.5-5.8,5.6-7.4,9.3c-0.5,0.7-0.9,1.5-1.3,2.2
			c-1.8-0.1-3.6-0.1-5.5,0c-4.2,0.3-8,1.5-11.5,3.7c-3.7,1.6-6.9,4-9.5,7.3c-2.9,3.2-4.8,6.8-5.7,10.9c-1.6,4-2.2,8.1-1.6,12.4
			c0.6,2.6,1.2,5.3,1.8,7.9c0.2,0.5,0.5,1,0.7,1.6c-3.4,2.7-6.1,6.1-7.4,10.4c-0.1,0.3-0.2,0.7-0.2,1.1c-0.1,0.1-0.1,0.1-0.2,0.2
			c-2.5-0.5-5.1-0.7-7.7-0.7c-0.4,0-0.9,0.1-1.3,0.1c-4.2-1.8-8.8-2.7-13.5-2.7c-3.2,0-6.3,0.6-9.2,1.7c-5-7-12.8-12-21.7-12
			c-15.7,0-29.7,11.1-30.6,27.4c-0.1,1.4,0,2.7,0.1,4.1c-6.3,1.5-11.9,5.4-15.9,10.6c-3.6-15-17.6-23.8-33-23.8
			c-16.5,0-29.2,17.1-28.6,32.6c-6.4-3.7-13.6-4.7-21.7-2.9c-5,1.3-9.4,3.7-13.1,7.3c-3,2.9-5.3,6.3-6.8,10.1
			c-1.6-0.2-3.2-0.4-4.9-0.4c-9.2,0-17.5,4.8-23,11.9c-0.1,0.1-0.3,0.3-0.4,0.4c-5.7-5.8-13.6-9.4-22.2-9.4c-3.6,0-7,0.7-10.2,1.9
			c-1.1-1.6-2.2-3.2-3.3-4.8c-3.7-4.1-8.2-6.9-13.5-8.6c-2.7-0.5-5.4-0.9-8.1-1.4c-5.4-0.2-10.5,1-15.3,3.5
			c-0.4,0.2-0.7,0.4-1.1,0.6c-2,0.8-3.9,1.7-5.8,2.9c-0.2,0.1-0.3,0.2-0.5,0.3c-0.4,0.2-0.8,0.4-1.2,0.6c-3.6,2.1-6.4,4.9-8.4,8.4
			c-2.7,3.2-4.4,6.9-5.2,11.1c-0.4,1.7-0.6,3.3-0.7,5c-4.1,0.3-8,1.4-11.7,3.4c-6.8,3.9-13.2,10.1-15,18c-0.1,0.6-0.3,1.1-0.4,1.7
			c-0.9,0.2-1.8,0.5-2.8,0.9c-0.5-0.5-1-0.9-1.5-1.4c-0.4-0.4-0.8-0.8-1.3-1.1c-1.2-0.9-2.5-1.7-3.8-2.3c-3.1-2.2-6.6-3.5-10.5-3.9
			c-6.7-1.8-13-2-19.6,0.3c-5.9,2.1-12.1,5.9-15.4,11.5c-0.5,0.8-0.9,1.6-1.4,2.4c-0.4,0.6-0.7,1.3-1,1.9c-2.6,0.6-5.1,1.4-7.5,2.4
			c-0.7,0-1.5-0.1-2.2-0.1c-5.4,0-10.3,2-14.4,5.2c-0.1,0-0.3,0-0.4,0c-2.6,0.7-5.3,1.3-7.9,2c-0.4,0.1-0.7,0.3-1.1,0.5
			c-6.2-7.6-16-11.9-26.5-11.9c-12.7,0-23.2,9.7-27.3,21.3c-1.4-0.5-2.8-0.8-4.3-1c-7.8-1-15.3,0.5-22,4.9l-6.6,4.3
			c-0.6,0.4-1.1,0.8-1.7,1.2c-4.3-1.6-8.7-2.3-13.3-2c-0.2,0-0.5,0.1-0.7,0.1c-0.2-0.2-0.3-0.3-0.5-0.5c-3-2.9-6.4-4.8-10.4-5.8
			c-3.6-1.6-7.4-2.2-11.5-1.8c-2.5,0.5-5,1-7.5,1.5c-0.3,0.1-0.5,0.2-0.8,0.3c-1.9-2.3-4.3-4.2-7-5.7c-2.5-1.1-5.1-2.1-7.6-3.2
			c-5.4-1.4-10.8-1.4-16.1,0.1c-2.4,1-4.9,2-7.3,3.1c-3.9,2.3-7.1,5.3-9.7,9c-1-0.7-2-1.4-3.1-2.1c-1-1.5-1.9-3-2.9-4.4
			c-3.5-4-7.7-6.9-12.7-8.7l-6.4-3.2c-3.6-1.4-7.3-1.8-11.1-1.3c-3.8-0.1-7.3,0.7-10.8,2.5c-3.6,1.6-6.6,3.9-8.9,7
			c-0.2,0.2-0.5,0.5-0.7,0.7c-8.9-2.8-19-1.3-27.7,3.6c-9.6,5.4-20.5,10.2-28.6,17.7c-2.9,3.5-6,6.8-9.2,10
			c-1.8,1.6-3.7,3.2-5.5,4.8c-0.6-0.5-1.3-1-1.9-1.5c-4.6-2.6-9.6-4-14.9-4c-1.2,0-2.4,0-3.6,0.2c-1.1-0.9-2.3-1.8-3.6-2.6
			c-1.6-1-3.3-1.8-4.9-2.4c-0.2-0.2-0.4-0.4-0.7-0.6c-2.5-3-5.7-5.2-9.4-6.5c-2.4-0.6-4.8-1.2-7.2-1.8c-2.4,0-4.9,0-7.3,0.1
			c-3.8,0.4-7.2,1.6-10.3,3.8c-3.5,1.6-6.4,4.1-8.7,7.3c-0.6,0.6-1.1,1.3-1.6,1.9c-0.8,0-1.7,0.1-2.5,0.2c-2.6,0.7-5.3,1.4-7.9,2.1
			c-5.1,2.1-9.4,5.3-12.8,9.6c-0.5,0.6-0.9,1.2-1.3,1.9c-1.5-0.3-3-0.4-4.6-0.4c-5.9,0-11.7,1.5-16.9,4.1c-0.3-0.2-0.6-0.4-0.9-0.6
			c-3.3-2.6-6.9-4.3-11-4.9c-3.8-1.3-7.7-1.6-11.8-0.8c-4,0.5-7.6,1.8-10.7,4.1c-0.2,0.1-0.3,0.2-0.4,0.2c-1.2-1.9-2.7-3.5-4.5-5
			c-2.2-1.5-4.4-2.9-6.7-4.4c-4.8-2.3-10-3.3-15.3-2.9c-2.5,0.5-5,1-7.5,1.6c-4.9,1.7-9.2,4.6-12.6,8.5c-0.3,0.3-0.5,0.5-0.8,0.8
			c-3.4,0-6.8,0.5-10.1,1.7c-7.6,3-14,8-17.8,15.4c-1.1,2.2-2.4,4.4-3.4,6.7c-0.4,0.8-0.8,1.6-1.1,2.4c-4.1,1.9-7.8,4.5-10.8,8
			c-2.5,2.9-4.3,6.1-5.6,9.6c-2.2-0.5-4.4-0.9-6.7-0.9c-0.9,0-1.8,0.1-2.7,0.1c-12.5-8.4-32.4-8.8-42.1,4.6c-3.6,5-7.2,10-10.8,15
			c-2.8,3.9-5.9,7.7-8.3,11.9c-2.3,4-3.8,8.6-4.3,13.3c-0.5-0.1-0.9-0.2-1.4-0.4c-5.3-0.6-10.4,0.1-15.3,2.2c0.2-1-0.1-1.4-0.8-1
			c-0.5,0.1-1.1,0.3-1.6,0.4c-1.1,0.3-2.1,0.5-3.2,0.8c-3.9,1.4-7.2,3.7-9.9,6.8c-1.6,1.3-3.1,2.9-4.3,4.6c-2.2-0.6-4.6-0.9-7-0.9
			c-12.9,0-24.2,9.1-27.9,21c-2.7-2.7-6-4.9-9.3-6c-6.9-2.4-14.9-2.9-21.7,0.3c-7.2,3.4-12.3,8.7-15.6,16c-0.4,0.9-0.8,1.9-1.2,2.8
			c-0.1,0-0.1,0-0.2,0c-3.9,0-7.6,1-10.9,2.8c-0.1,0-0.3,0.1-0.4,0.2c-0.8-0.7-1.7-1.2-2.5-1.8c-0.3-0.2-0.6-0.5-0.9-0.7
			c-4.9-2.9-10.1-4.4-15.8-4.4c-3.2-0.1-6.3,0.4-9.2,1.4c-1.6,0.5-3.2,1.1-4.7,1.9c-1.3,0.5-2.5,1.2-3.6,2c-1.1,0.6-2.2,1.2-3.3,1.9
			c-3.7,1.8-6.7,4.3-9,7.5c-1.7,1.7-3.1,3.6-4.2,5.7h790.5c1.5,0,3,0.1,4.4,0.1h536.8v-388C1436.2,371.1,1432.8,371.6,1429.5,372.9z
			"/>
		<linearGradient id="SVGID_6_" gradientUnits="userSpaceOnUse" x1="763.4031" y1="409.5492" x2="713.8352" y2="718.973">
			<stop  offset="0.2576" style="stop-color:#51B189"/>
			<stop  offset="1" style="stop-color:#25205E;stop-opacity:0"/>
		</linearGradient>
		<path class="st6" d="M11.3,328.5c4.3,0.9,8.1,2.8,11.5,5.8c3.7,2.7,6.4,6.2,8.2,10.3c0.5,0.8,1,1.6,1.4,2.5c2-0.2,4-0.2,6.1,0
			c4.7,0.3,8.9,1.7,12.8,4.1c4.2,1.8,7.7,4.5,10.6,8.1c3.2,3.5,5.3,7.6,6.3,12.1c1.8,4.4,2.4,9,1.8,13.9c-0.7,2.9-1.4,5.9-2,8.8
			c-0.2,0.6-0.5,1.2-0.8,1.8c3.8,3,6.8,6.7,8.2,11.6c0.1,0.4,0.2,0.8,0.3,1.2c0.1,0.1,0.2,0.2,0.2,0.2c2.8-0.5,5.7-0.8,8.6-0.8
			c0.5,0,1,0.1,1.5,0.1c4.7-2,9.8-3,15.1-3c3.6,0,7,0.7,10.3,1.9c5.6-7.8,14.3-13.3,24.2-13.3c17.5,0,33.2,12.4,34.2,30.6
			c0.1,1.5,0,3.1-0.1,4.6c7.1,1.7,13.2,6,17.7,11.8c4-16.7,19.6-26.5,36.7-26.5c18.4,0,32.6,19,31.9,36.3c7.1-4.2,15.1-5.3,24.2-3.2
			c5.6,1.4,10.4,4.1,14.6,8.1c3.3,3.2,5.9,7.1,7.6,11.3c1.8-0.3,3.6-0.4,5.5-0.4c10.3,0,19.5,5.4,25.6,13.3c0.2,0.1,0.3,0.3,0.5,0.4
			c6.4-6.4,15.2-10.5,24.7-10.5c4,0,7.8,0.8,11.4,2.1c1.2-1.8,2.5-3.5,3.7-5.3c4.2-4.5,9.2-7.7,15.1-9.6c3-0.5,6-1,9-1.6
			c6-0.2,11.7,1.1,17,3.9c0.4,0.2,0.8,0.5,1.2,0.7c2.2,0.8,4.4,1.9,6.5,3.2c0.2,0.1,0.4,0.2,0.6,0.3c0.4,0.2,0.9,0.5,1.3,0.7
			c4,2.3,7.1,5.5,9.4,9.4c3,3.6,4.9,7.7,5.8,12.4c0.5,1.9,0.7,3.7,0.8,5.5c4.6,0.4,8.9,1.6,13.1,3.8c7.5,4.4,14.7,11.3,16.8,20
			c0.2,0.6,0.3,1.3,0.4,1.9c1,0.2,2.1,0.6,3.1,1c0.6-0.5,1.2-1,1.7-1.6c0.5-0.4,0.9-0.9,1.5-1.3c1.3-1,2.7-1.8,4.3-2.5
			c3.5-2.5,7.4-3.9,11.8-4.4c7.5-2,14.5-2.2,21.9,0.3c6.6,2.3,13.5,6.6,17.2,12.9c0.5,0.9,1.1,1.8,1.6,2.7c0.4,0.7,0.8,1.4,1.1,2.1
			c2.9,0.7,5.7,1.6,8.3,2.6c0.8,0,1.6-0.1,2.4-0.1c6,0,11.5,2.3,16,5.8c0.2,0,0.3,0,0.5,0c2.9,0.7,5.9,1.5,8.8,2.2
			c0.4,0.2,0.8,0.4,1.2,0.6c6.9-8.4,17.9-13.3,29.6-13.3c14.1,0,25.9,10.8,30.4,23.8c1.6-0.5,3.2-0.9,4.8-1.1
			c8.7-1.1,17.1,0.5,24.5,5.5l7.3,4.8c0.7,0.4,1.3,0.9,1.9,1.4c4.7-1.8,9.7-2.6,14.9-2.3c0.3,0,0.5,0.1,0.8,0.1
			c0.2-0.2,0.4-0.4,0.6-0.6c3.3-3.2,7.2-5.3,11.6-6.4c4-1.8,8.3-2.5,12.8-2c2.8,0.5,5.5,1.1,8.3,1.6c0.3,0.1,0.6,0.2,0.8,0.3
			c2.1-2.6,4.7-4.7,7.8-6.4c2.8-1.2,5.7-2.4,8.5-3.5c6-1.6,12-1.6,18,0.1c2.7,1.1,5.4,2.3,8.1,3.4c4.4,2.6,8,6,10.8,10.1
			c1.1-0.8,2.3-1.6,3.5-2.3c1.1-1.6,2.1-3.3,3.2-4.9c3.9-4.5,8.6-7.7,14.2-9.7l7.2-3.6c4-1.5,8.2-2,12.3-1.4c4.2-0.1,8.2,0.8,12,2.8
			c4,1.7,7.4,4.3,9.9,7.8c0.3,0.3,0.5,0.5,0.8,0.8c9.9-3.1,21.1-1.5,30.9,4c10.7,6,22.8,11.3,31.9,19.7c3.2,3.9,6.7,7.6,10.3,11.2
			c2,1.8,4.1,3.6,6.2,5.3c0.7-0.5,1.4-1.1,2.1-1.6c5.1-3,10.6-4.4,16.6-4.4c1.4,0,2.7,0.1,4,0.2c1.3-1,2.6-2,4-2.9
			c1.8-1.1,3.6-2,5.5-2.7c0.3-0.2,0.5-0.5,0.8-0.7c2.8-3.3,6.3-5.7,10.5-7.3c2.7-0.7,5.4-1.4,8-2c2.7,0,5.5,0.1,8.2,0.1
			c4.2,0.4,8.1,1.8,11.5,4.2c3.9,1.8,7.1,4.6,9.6,8.2c0.6,0.7,1.2,1.4,1.8,2.1c0.9,0,1.9,0.1,2.8,0.2c2.9,0.8,5.9,1.5,8.8,2.3
			c5.7,2.3,10.4,5.9,14.3,10.7c0.5,0.7,1,1.4,1.5,2.1c1.7-0.3,3.3-0.5,5.1-0.5c6.5,0,13.1,1.6,18.9,4.6c0.3-0.2,0.7-0.4,1-0.6
			c3.7-3,7.7-4.8,12.3-5.5c4.2-1.5,8.6-1.8,13.1-0.9c4.4,0.5,8.4,2.1,12,4.6c0.2,0.1,0.3,0.2,0.5,0.3c1.4-2.1,3-3.9,5.1-5.6
			c2.5-1.6,5-3.3,7.4-4.9c5.4-2.6,11.1-3.7,17.1-3.2c2.8,0.6,5.5,1.2,8.3,1.7c5.5,1.9,10.2,5.1,14.1,9.5c0.3,0.3,0.6,0.6,0.9,0.9
			c3.8,0,7.5,0.6,11.2,1.9c8.5,3.3,15.6,8.9,19.8,17.2c1.3,2.5,2.7,4.9,3.8,7.4c0.5,0.9,0.9,1.8,1.2,2.7c4.6,2.1,8.6,5.1,12.1,8.9
			c2.8,3.2,4.8,6.8,6.2,10.7c2.4-0.6,4.9-1,7.5-1c1,0,2,0.1,3,0.1c13.9-9.3,36.1-9.8,46.9,5.1c4,5.6,8,11.1,12,16.7
			c3.1,4.4,6.6,8.6,9.3,13.3c2.6,4.5,4.2,9.6,4.8,14.8c0.5-0.1,1-0.3,1.5-0.4c5.9-0.7,11.6,0.1,17,2.4c-0.2-1.2,0.1-1.6,0.9-1.2
			c0.6,0.1,1.2,0.3,1.8,0.4c1.2,0.3,2.4,0.6,3.6,0.9c4.4,1.6,8.1,4.1,11,7.6c1.8,1.5,3.4,3.2,4.7,5.1c2.5-0.6,5.1-1,7.8-1
			c14.4,0,27,10.1,31.1,23.4c3.1-3,6.7-5.4,10.4-6.7c7.7-2.6,16.6-3.3,24.2,0.3c8,3.8,13.7,9.7,17.4,17.8c0.5,1,0.9,2.1,1.3,3.1
			c0.1,0,0.2,0,0.2,0c4.4,0,8.4,1.1,12.2,3.1c0.1,0.1,0.3,0.1,0.4,0.2c0.9-0.7,1.9-1.4,2.8-2c0.3-0.3,0.6-0.5,1-0.8
			c5.4-3.2,11.3-4.9,17.6-5c3.6-0.1,7,0.4,10.2,1.6c1.8,0.6,3.6,1.3,5.3,2.1c1.4,0.6,2.8,1.4,4.1,2.2c1.2,0.7,2.5,1.4,3.7,2.1
			c4.1,2,7.4,4.8,10,8.4c1.9,1.9,3.4,4.1,4.6,6.4H603.1c-1.7,0-3.3,0.1-4.9,0.1H-0.2l0-432.5C3.8,326.5,7.6,327,11.3,328.5z"/>
		<linearGradient id="SVGID_7_" gradientUnits="userSpaceOnUse" x1="1124.7957" y1="159.8655" x2="1124.7957" y2="840.3177">
			<stop  offset="0" style="stop-color:#51B189"/>
			<stop  offset="0.1085" style="stop-color:#499781"/>
			<stop  offset="0.3073" style="stop-color:#3C6C75"/>
			<stop  offset="0.5008" style="stop-color:#324B6B"/>
			<stop  offset="0.6848" style="stop-color:#2B3364"/>
			<stop  offset="0.8555" style="stop-color:#27255F"/>
			<stop  offset="1" style="stop-color:#25205E"/>
		</linearGradient>
		<polygon class="st7" points="1483.6,751.8 1447,730.9 1384.1,689 1334.3,665.4 1279.3,675.9 1227,683.7 1158.8,657.5 
			1093.4,620.9 1048.8,623.5 980.7,665.4 923.1,699.5 841.9,720.4 765.9,749.2 809.2,747.3 828.8,759.7 886.4,759.7 941.4,767.6 
			1035.7,762.3 1082.9,762.3 1122.2,762.3 1148.4,767.6 1169.3,759.7 1271.5,754.5 1316,764.9 1363.2,754.5 1407.3,748.7 		"/>
		<g class="st1">
			<linearGradient id="SVGID_8_" gradientUnits="userSpaceOnUse" x1="956.0065" y1="166.3922" x2="953.1135" y2="755.1232">
				<stop  offset="0" style="stop-color:#1E1853"/>
				<stop  offset="1.044172e-02" style="stop-color:#1E1853"/>
				<stop  offset="0.3719" style="stop-color:#231E5C"/>
				<stop  offset="1" style="stop-color:#25205E"/>
			</linearGradient>
			<path class="st8" d="M1038.5,236.9l-18.6-26.3c-0.5-0.7-1.4-1.2-2.3-1.2H982c-1.4,0-2.6-1-2.8-2.4l-3-19.9
				c-0.2-1.4-1.4-2.4-2.8-2.4h-11.4c-1.5,0-2.8-1.2-2.8-2.8v-27.2c0-1.5,1.3-2.8,2.8-2.8l0,0c1.5,0,2.8-1.2,2.8-2.8v-36
				c0-1.5-1.3-2.8-2.8-2.8l0,0c-1.5,0-2.8-1.2-2.8-2.8V57.5c0-1.5-1.2-2.8-2.8-2.8h-1.9c-1.5,0-2.8,1.2-2.8,2.8v50.1
				c0,1.5-1.2,2.8-2.8,2.8h0c-1.5,0-2.8,1.2-2.8,2.8v36c0,1.5,1.3,2.8,2.8,2.8h0c1.5,0,2.8,1.2,2.8,2.8v27.2c0,1.5-1.2,2.8-2.8,2.8
				h-11.4c-1.4,0-2.6,1-2.8,2.4l-3,19.9c-0.2,1.4-1.4,2.4-2.8,2.4h-35.6c-0.9,0-1.8,0.4-2.3,1.2l-18.6,26.3
				c-0.4,0.6-0.6,1.2-0.5,1.9l5.7,55.6c0.1,1,0.7,1.8,1.6,2.2l44.7,21.8h0.1l-0.6,28.3c0,1.5-1.3,2.7-2.8,2.7h-14.1
				c-1.5,0-2.8,1.2-2.8,2.8v22.3c0,1.5,1.2,2.8,2.8,2.8h13.4c1.6,0,2.8,1.3,2.8,2.9l-10.6,479.1c0,1.6,1.2,2.9,2.8,2.9h80.9
				c1.6,0,2.8-1.3,2.8-2.9l-10.4-479.1c0-1.6,1.2-2.9,2.8-2.9h13.2c1.5,0,2.8-1.3,2.8-2.8v-22.3c0-1.5-1.3-2.8-2.8-2.8h-14
				c-1.5,0-2.8-1.2-2.8-2.7l-0.6-28.3H987l44.7-21.8c0.9-0.4,1.5-1.3,1.6-2.2l5.7-55.6C1039.1,238.1,1038.9,237.4,1038.5,236.9z"/>
			<linearGradient id="SVGID_9_" gradientUnits="userSpaceOnUse" x1="997.2427" y1="166.5673" x2="994.3504" y2="755.1534">
				<stop  offset="0" style="stop-color:#110641"/>
				<stop  offset="4.982096e-02" style="stop-color:#140A45"/>
				<stop  offset="0.2672" style="stop-color:#1E1653"/>
				<stop  offset="0.5348" style="stop-color:#231E5C"/>
				<stop  offset="1" style="stop-color:#25205E"/>
			</linearGradient>
			<path class="st9" d="M1019.9,210.6c-0.5-0.7-1.4-1.2-2.3-1.2H982c-1.4,0-2.6-1-2.8-2.4l-3-19.9c-0.2-1.4-1.4-2.4-2.8-2.4h-11.4
				c-1.5,0-2.8-1.3-2.8-2.8v-27.2c0-1.5,1.3-2.8,2.8-2.8h0c1.5,0,2.8-1.2,2.8-2.8v-36c0-1.5-1.3-2.8-2.8-2.8h0
				c-1.5,0-2.8-1.2-2.8-2.8V57.5c0-1.5-1.3-2.8-2.8-2.8h-1v807.3h40.5c1.6,0,2.8-1.3,2.8-2.9l-10.4-479.1c0-1.6,1.2-2.9,2.8-2.9
				h13.2c1.5,0,2.8-1.2,2.8-2.8v-22.3c0-1.5-1.3-2.8-2.8-2.8h-14c-1.5,0-2.8-1.2-2.8-2.7l-0.6-28.3H987l44.7-21.8
				c0.9-0.4,1.5-1.3,1.6-2.2l5.7-55.6c0.1-0.7-0.1-1.3-0.5-1.9L1019.9,210.6z"/>
			<linearGradient id="SVGID_10_" gradientUnits="userSpaceOnUse" x1="991.6196" y1="364.9314" x2="946.6959" y2="959.1489">
				<stop  offset="0" style="stop-color:#110641"/>
				<stop  offset="4.982096e-02" style="stop-color:#140A45"/>
				<stop  offset="0.2672" style="stop-color:#1E1653"/>
				<stop  offset="0.5348" style="stop-color:#231E5C"/>
				<stop  offset="1" style="stop-color:#25205E"/>
			</linearGradient>
			<path class="st10" d="M983.6,316.1l46.6-20.9l-71.6,7.1l-3,543.5l37.3,0.5L984.7,378c0-2.1,1.6-3.9,3.7-4.1l11.5-0.9
				c1.5-0.1,2.7-1.4,2.7-2.9v-11.8c0-1.6-1.3-2.9-2.9-3l-12.9-0.3c-1.4,0-2.6-1.2-2.6-2.6L983.6,316.1z"/>
			<g>
				<path class="st11" d="M894.3,262.6c-3.6-0.3-7.2-0.6-10.7-0.9c0.1,0.8,0.2,1.6,0.3,2.3c4.3,0.4,8.7,0.8,13,1.1
					c-0.7-7.4-1.3-14.8-2-22.2"/>
				<path class="st11" d="M911.1,263.8c-3.6-0.2-7.1-0.4-10.7-0.7c0.1,0.8,0.1,1.6,0.2,2.4c4.3,0.3,8.7,0.6,13,0.8
					c-0.5-7.4-0.9-14.8-1.4-22.2"/>
				<path class="st11" d="M927.8,264.5c-3.6-0.1-7.1-0.3-10.7-0.5c0,0.8,0.1,1.6,0.1,2.4c4.3,0.2,8.7,0.4,13,0.6
					c-0.3-7.4-0.6-14.8-0.9-22.1"/>
				<path class="st11" d="M944.6,264.9c-3.5,0-7.1-0.1-10.6-0.2c0,0.8,0.1,1.6,0.1,2.5c4.3,0.1,8.7,0.2,13,0.3
					c-0.1-7.4-0.2-14.8-0.3-22.1"/>
				<path class="st11" d="M961.4,265c-3.5,0-7,0-10.6,0c0,0.8,0,1.7,0,2.5c4.3,0,8.7,0,13,0c0.1-7.4,0.1-14.8,0.2-22.1"/>
				<path class="st11" d="M978.2,264.6c-3.5,0.1-7,0.2-10.5,0.2c0,0.9,0,1.7,0,2.6c4.3-0.1,8.7-0.2,13-0.3
					c0.3-7.4,0.5-14.8,0.8-22.1"/>
				<path class="st11" d="M995,264c-3.5,0.2-6.9,0.3-10.4,0.4c0,0.9-0.1,1.8-0.1,2.6c4.3-0.2,8.7-0.3,13-0.6
					c0.4-7.4,0.9-14.8,1.3-22.2"/>
				<path class="st11" d="M1011.8,262.9c-3.4,0.3-6.9,0.5-10.3,0.7c-0.1,0.9-0.1,1.8-0.2,2.7c4.3-0.2,8.7-0.5,13-0.8
					c0.6-7.4,1.2-14.8,1.8-22.2"/>
				<path class="st11" d="M1028.6,261.5c-3.4,0.3-6.8,0.6-10.2,0.9c-0.1,0.9-0.2,1.8-0.2,2.8c4.3-0.3,8.7-0.7,13-1.1
					c0.8-7.4,1.6-14.8,2.4-22.2"/>
			</g>
			<g>
				<path class="st11" d="M896.7,291c-3.4-0.2-6.9-0.5-10.3-0.8c0.1,0.7,0.2,1.3,0.2,2c4.2,0.3,8.3,0.7,12.5,0.9
					c-0.6-6.3-1.3-12.6-1.9-18.9"/>
				<path class="st11" d="M912.9,291.9c-3.4-0.2-6.9-0.4-10.3-0.6c0.1,0.7,0.1,1.3,0.2,2c4.2,0.3,8.3,0.5,12.5,0.7
					c-0.5-6.3-0.9-12.6-1.4-18.8"/>
				<path class="st11" d="M929,292.6c-3.4-0.1-6.8-0.2-10.3-0.4c0,0.7,0.1,1.4,0.1,2.1c4.2,0.2,8.3,0.3,12.5,0.5
					c-0.3-6.3-0.6-12.5-0.8-18.8"/>
				<path class="st11" d="M945.1,292.9c-3.4,0-6.8-0.1-10.2-0.2c0,0.7,0.1,1.4,0.1,2.1c4.2,0.1,8.3,0.2,12.5,0.2
					c-0.1-6.3-0.2-12.5-0.3-18.8"/>
				<path class="st11" d="M961.3,293c-3.4,0-6.8,0-10.1,0c0,0.7,0,1.4,0,2.1c4.2,0,8.3,0,12.5,0c0.1-6.3,0.1-12.5,0.2-18.8"/>
				<path class="st11" d="M977.4,292.7c-3.4,0.1-6.7,0.1-10.1,0.2c0,0.7,0,1.5,0,2.2c4.2,0,8.3-0.1,12.5-0.2
					c0.2-6.3,0.5-12.5,0.7-18.8"/>
				<path class="st11" d="M993.6,292.1c-3.3,0.2-6.7,0.3-10,0.4c0,0.7-0.1,1.5-0.1,2.2c4.2-0.1,8.3-0.3,12.5-0.5
					c0.4-6.3,0.8-12.5,1.3-18.8"/>
				<path class="st11" d="M1011.3,274.7c-0.5,5.5-1,11-1.6,16.6c-3.3,0.2-6.6,0.4-9.9,0.6c-0.1,0.8-0.1,1.5-0.2,2.3
					c4.2-0.2,8.3-0.4,12.5-0.7c0.6-6.3,1.2-12.6,1.8-18.9C1013,274.6,1012.1,274.6,1011.3,274.7z"/>
				<path class="st11" d="M1027.8,273.5c-0.7,5.5-1.3,11-2,16.5c-3.3,0.3-6.6,0.5-9.9,0.7c-0.1,0.8-0.2,1.6-0.2,2.3
					c4.2-0.3,8.3-0.6,12.5-0.9c0.8-6.3,1.5-12.6,2.3-18.9C1029.6,273.4,1028.7,273.4,1027.8,273.5z"/>
			</g>
			<g>
				<path class="st11" d="M963.8,185.1c0,1.5,1.3,2.8,2.8,2.8h9.9l-0.1-0.8c-0.2-1.4-1.4-2.4-2.8-2.4h-9.8V185.1z"/>
				<path class="st11" d="M965,113.1c0-0.9-0.5-1.7-1.2-2.2C963.8,111.8,964.3,112.6,965,113.1z"/>
				<path class="st11" d="M983.6,210.2c0.2,1.4,1.4,2.4,2.8,2.4h34.9l-1.4-2c-0.5-0.7-1.4-1.2-2.3-1.2h-34.1L983.6,210.2z"/>
				<path class="st11" d="M1004.5,349.4h-12.4l0,0.5c0,1.5,1.3,2.7,2.8,2.7h12.4v-0.4C1007.3,350.6,1006,349.4,1004.5,349.4z"/>
				<path class="st11" d="M927.4,383.3c0-1.6-1.2-2.9-2.8-2.9H923l-10.6,478.8c0,1.6,1.2,2.9,2.8,2.9h1.6L927.4,383.3z"/>
				<path class="st11" d="M908.4,355.4c0-1.5,1.2-2.8,2.8-2.8h14.1c1.5,0,2.8-1.2,2.8-2.7l0.6-28.3h-0.1l-4.3-2.1l-0.6,27.2
					c0,1.5-1.3,2.7-2.8,2.7h-14.1c-1.5,0-2.8,1.2-2.8,2.8v22.3c0,1.5,1.3,2.8,2.8,2.8h1.6V355.4z"/>
				<path class="st11" d="M882.4,297.5l-5.7-55.6c-0.1-0.7,0.1-1.3,0.5-1.9l18.6-26.3c0.5-0.7,1.4-1.2,2.3-1.2h35.6
					c1.4,0,2.6-1,2.8-2.4l3-19.9c0.2-1.4,1.4-2.4,2.8-2.4h11.4c1.5,0,2.8-1.2,2.8-2.8V158c0-1.5-1.3-2.8-2.8-2.8h0
					c-0.6,0-1.1-0.2-1.6-0.5c0,0,0,0.1,0,0.1v27.2c0,1.5-1.3,2.8-2.8,2.8h-11.4c-1.4,0-2.6,1-2.8,2.4l-3,19.9
					c-0.2,1.4-1.4,2.4-2.8,2.4h-35.6c-0.9,0-1.8,0.4-2.3,1.2l-18.6,26.3c-0.4,0.6-0.6,1.2-0.5,1.9l5.7,55.6c0.1,1,0.7,1.8,1.6,2.2
					l2.9,1.4C882.5,297.8,882.4,297.7,882.4,297.5z"/>
				<path class="st11" d="M949.1,152L949.1,152c0.6,0,1.1,0.2,1.6,0.5c0,0,0-0.1,0-0.1v-36c0-1.5,1.3-2.8,2.8-2.8h0
					c1.5,0,2.8-1.2,2.8-2.8V60.7c0-1.5,1.2-2.8,2.8-2.8h0.4v-0.4c0-1.5-1.3-2.8-2.8-2.8h-1.9c-1.5,0-2.8,1.2-2.8,2.8v50.1
					c0,1.5-1.3,2.8-2.8,2.8h0c-1.5,0-2.8,1.2-2.8,2.8v36C946.3,150.7,947.6,152,949.1,152z"/>
			</g>
		</g>
		<g class="st1">
			<g>
				<linearGradient id="SVGID_11_" gradientUnits="userSpaceOnUse" x1="428.5" y1="422.4379" x2="428.5" y2="836.9144">
					<stop  offset="0" style="stop-color:#51B189"/>
					<stop  offset="0.1085" style="stop-color:#499781"/>
					<stop  offset="0.3073" style="stop-color:#3C6C75"/>
					<stop  offset="0.5008" style="stop-color:#324B6B"/>
					<stop  offset="0.6848" style="stop-color:#2B3364"/>
					<stop  offset="0.8555" style="stop-color:#27255F"/>
					<stop  offset="1" style="stop-color:#25205E"/>
				</linearGradient>
				<polygon class="st12" points="668.9,637.4 626.7,620.1 601.7,618.2 540.3,643.1 500,660.4 459.7,670 359.9,633.5 267.8,568.3 
					231.4,556.8 152.7,595.1 100.9,633.5 47.2,650.8 -27.7,673.8 -69,677.4 -69,780 926,764 816.6,716 739.9,685.3 				"/>
				<linearGradient id="SVGID_12_" gradientUnits="userSpaceOnUse" x1="255.1715" y1="542.556" x2="230.8656" y2="660.2473">
					<stop  offset="0" style="stop-color:#51B189"/>
					<stop  offset="1.317060e-02" style="stop-color:#4FAB87"/>
					<stop  offset="0.1031" style="stop-color:#44867C"/>
					<stop  offset="0.2007" style="stop-color:#3A6673"/>
					<stop  offset="0.3061" style="stop-color:#334D6B"/>
					<stop  offset="0.4222" style="stop-color:#2C3965"/>
					<stop  offset="0.5546" style="stop-color:#282B61"/>
					<stop  offset="0.7174" style="stop-color:#26225F"/>
					<stop  offset="1" style="stop-color:#25205E"/>
				</linearGradient>
				<polygon class="st13" points="115,623.3 157.2,609.2 178.9,599 204.5,588.7 194.3,607.9 205.8,606.6 239,605.4 271,609.2 
					249.3,597.7 225,591.3 259.5,595.1 283.8,605.4 328.6,623.3 359.9,633.5 312,597.7 272.3,568.3 227.5,551.6 180.2,579.8 
					138,605.4 				"/>
				<linearGradient id="SVGID_13_" gradientUnits="userSpaceOnUse" x1="687.3764" y1="560.5691" x2="608.7023" y2="905.9671">
					<stop  offset="0" style="stop-color:#51B189"/>
					<stop  offset="1.317060e-02" style="stop-color:#4FAB87"/>
					<stop  offset="0.1031" style="stop-color:#44867C"/>
					<stop  offset="0.2007" style="stop-color:#3A6673"/>
					<stop  offset="0.3061" style="stop-color:#334D6B"/>
					<stop  offset="0.4222" style="stop-color:#2C3965"/>
					<stop  offset="0.5546" style="stop-color:#282B61"/>
					<stop  offset="0.7174" style="stop-color:#26225F"/>
					<stop  offset="1" style="stop-color:#25205E"/>
				</linearGradient>
				<polygon class="st14" points="489.8,664.2 553.7,654 592.1,641.2 622.8,639.9 596,634.8 617.7,629.7 647.1,641.2 703.4,677 
					727.7,691.1 704.7,701.3 662.5,709 630.5,715.4 686.8,715.4 735.4,709 773.8,710.3 824.9,720.5 744.3,683.4 635.6,620.7 
					603.6,613 530.7,647.6 				"/>
				<linearGradient id="SVGID_14_" gradientUnits="userSpaceOnUse" x1="403.7905" y1="623.4426" x2="336.6295" y2="932.3823">
					<stop  offset="0" style="stop-color:#25205E"/>
					<stop  offset="0.1407" style="stop-color:#25205E"/>
					<stop  offset="1" style="stop-color:#25205E"/>
				</linearGradient>
				<path class="st15" d="M842.3,727.3L816.6,716l-2.4-1l-59.7,1.6l-60.1-2.6l-71.6-12.8l-47.3,14.1l-69.1,2.6l-40.9-6.4l-32-5.1
					l20.5,10.2l-26.9,1.3l-21.7-11.5l-28.1,15.4l-65.2,5.1c0,0-66.5-6.4-70.4-7.7c-3.8-1.3-78-5.1-78-5.1l-61.4-15.4l-46.1-5.1
					L-4,706.4L16.5,686l33.3-19.2l19.1-23l-21.7,7l-74.8,23l-41.3,3.5V780l887.7-14.3C824.4,756.1,834.9,739.1,842.3,727.3z"/>
			</g>
			<linearGradient id="SVGID_15_" gradientUnits="userSpaceOnUse" x1="566.6857" y1="666.8036" x2="568.6047" y2="783.8549">
				<stop  offset="0" style="stop-color:#25205E"/>
				<stop  offset="0.1407" style="stop-color:#25205E"/>
				<stop  offset="1" style="stop-color:#25205E"/>
			</linearGradient>
			<polygon class="st16" points="480.8,675.7 520.2,691.1 540.3,703.6 574.8,710.3 610.3,718.9 653.5,717 608.4,711.2 565.3,697.8 
				540.3,697.8 520.2,686.3 			"/>
		</g>
		<g class="st1">
			<ellipse class="st11" cx="592.2" cy="853" rx="1.1" ry="0.6"/>
			<ellipse class="st11" cx="465.8" cy="882" rx="1.1" ry="0.6"/>
			<ellipse class="st11" cx="558.4" cy="876.4" rx="1.1" ry="0.6"/>
			<ellipse class="st11" cx="839" cy="860.7" rx="1.1" ry="0.6"/>
			<path class="st11" d="M893.5,859.2c0,0.5-0.8,0.9-1.9,0.9c-1,0-1.9-0.4-1.9-0.9c0-0.5,0.8-0.9,1.9-0.9
				C892.6,858.3,893.5,858.7,893.5,859.2z"/>
			<path class="st11" d="M997.1,878.9c0,0.5-0.8,0.9-1.9,0.9c-1,0-1.9-0.4-1.9-0.9c0-0.5,0.8-0.9,1.9-0.9
				C996.3,877.9,997.1,878.4,997.1,878.9z"/>
			<path class="st11" d="M1021.4,840.9c0,0.5-0.8,0.9-1.9,0.9c-1,0-1.9-0.4-1.9-0.9c0-0.5,0.8-0.9,1.9-0.9
				C1020.6,840,1021.4,840.4,1021.4,840.9z"/>
			<ellipse class="st11" cx="955.8" cy="859.6" rx="1.1" ry="0.6"/>
			<ellipse class="st11" cx="637.5" cy="876.4" rx="1.1" ry="0.6"/>
			<ellipse class="st11" cx="487.7" cy="854" rx="1.1" ry="0.6"/>
			<ellipse class="st11" cx="639.2" cy="843.9" rx="1.1" ry="0.6"/>
			<ellipse class="st11" cx="747.5" cy="846.7" rx="1.1" ry="0.6"/>
			<ellipse class="st11" cx="892.3" cy="895" rx="1.1" ry="0.6"/>
			<ellipse class="st11" cx="805.3" cy="870.8" rx="1.1" ry="0.6"/>
			<ellipse class="st11" cx="698.7" cy="864.6" rx="1.1" ry="0.6"/>
			<ellipse class="st11" cx="699.8" cy="843.9" rx="1.1" ry="0.6"/>
		</g>
		<g class="st1">
			<linearGradient id="SVGID_16_" gradientUnits="userSpaceOnUse" x1="720" y1="679.045" x2="720" y2="857.5254">
				<stop  offset="0" style="stop-color:#51B189"/>
				<stop  offset="0.1085" style="stop-color:#499781"/>
				<stop  offset="0.3073" style="stop-color:#3C6C75"/>
				<stop  offset="0.5008" style="stop-color:#324B6B"/>
				<stop  offset="0.6848" style="stop-color:#2B3364"/>
				<stop  offset="0.8555" style="stop-color:#27255F"/>
				<stop  offset="1" style="stop-color:#25205E"/>
			</linearGradient>
			<path class="st17" d="M1359.5,713.4l-184.3,3.4c0,0-290.9-13.5-302.4-10.1c-11.5,3.4-376.6,1.7-377.3,6.7
				c-1.1,8.3-247.7,1.7-247.7,1.7L0,709.1v104.7h1440V705.7L1359.5,713.4z"/>
			<linearGradient id="SVGID_17_" gradientUnits="userSpaceOnUse" x1="799.719" y1="728.1166" x2="1144.7603" y2="728.1166">
				<stop  offset="0" style="stop-color:#25205E"/>
				<stop  offset="0.1407" style="stop-color:#25205E"/>
				<stop  offset="1" style="stop-color:#25205E"/>
			</linearGradient>
			<path class="st18" d="M836.5,715.9c-0.8-2.3-36.8,5.4-36.8,5.4l34.5,7.7l56.7,3.1l53.7,10l86.6-4.6l48.3-6.9
				c0,0,62.9,1.5,65.2,2.3c2.3,0.8-30.7-10.7-30.7-10.7l-36.8-5.4c0,0-128.8,0.8-132.6,0.8c-3.8,0-81.2-3.1-83.5-3.1
				S836.5,715.9,836.5,715.9z"/>
			<g>
				<linearGradient id="SVGID_18_" gradientUnits="userSpaceOnUse" x1="955.4582" y1="626.7604" x2="947.7933" y2="918.0313">
					<stop  offset="0" style="stop-color:#51B189"/>
					<stop  offset="4.962695e-02" style="stop-color:#4EA886"/>
					<stop  offset="0.3748" style="stop-color:#3D6E75"/>
					<stop  offset="0.653" style="stop-color:#304369"/>
					<stop  offset="0.8703" style="stop-color:#282A61"/>
					<stop  offset="1" style="stop-color:#25205E"/>
				</linearGradient>
				<polygon class="st19" points="1093,719.9 1078.7,711.8 1054.2,695.4 1034.8,686.2 1013.3,690.3 992.9,693.4 966.3,683.1 
					940.8,668.8 923.4,669.9 896.8,686.2 874.3,699.5 842.6,707.7 813,718.9 829.9,718.2 837.5,723 860,723 881.5,726.1 918.3,724 
					936.7,724 952,724 962.2,726.1 970.4,723 1010.3,721 1027.6,725.1 1046,721 1063.2,718.7 				"/>
				<linearGradient id="SVGID_19_" gradientUnits="userSpaceOnUse" x1="974.947" y1="623.1628" x2="912.747" y2="896.2355">
					<stop  offset="0" style="stop-color:#51B189"/>
					<stop  offset="1.317060e-02" style="stop-color:#4FAB87"/>
					<stop  offset="0.1031" style="stop-color:#44867C"/>
					<stop  offset="0.2007" style="stop-color:#3A6673"/>
					<stop  offset="0.3061" style="stop-color:#334D6B"/>
					<stop  offset="0.4222" style="stop-color:#2C3965"/>
					<stop  offset="0.5546" style="stop-color:#282B61"/>
					<stop  offset="0.7174" style="stop-color:#26225F"/>
					<stop  offset="1" style="stop-color:#25205E"/>
				</linearGradient>
				<path class="st20" d="M1059.6,708.2l-23-13.8l-10.7-3.1l5.4,6.1l7.7,3.8l3.1,6.1l-12.3-3.8l-16.1-2.3l-19.2,6.9l-14.6-3.1
					l-25.3-13l-16.1-15.3l-13.8-3.1l-23.8,19.2l3.8-7.7l-11.5,9.2c0,0-13,9.2-15.3,9.2c-1.1,0-9.5-0.2-18-0.4l-17.2,4.4L813,718.9
					l16.9-0.8l7.6,4.9H860l21.5,3.1l36.8-2h18.4H952l10.2,2l8.2-3.1l39.9-2l17.4,4.1l18.4-4.1l17.2-2.2l29.8,1.2L1059.6,708.2z"/>
			</g>
		</g>
		<polygon class="st21" points="1440,799.7 1440,470.7 1344,516.8 1291.2,584.3 1194,639.2 1156,706.8 1113.8,761.7 1063,773.7 		
			"/>
		<polygon class="st21" points="539.2,765.5 485.4,746 470.8,714.2 436.5,689.7 370.5,697.1 304.5,726.4 253.2,687.3 135.8,635.9 
			55.1,555.2 0,533.2 0,799.7 593,785.7 		"/>
	</g>
	<polygon class="st2" points="1417.9,567.4 1337.6,628.7 1329.2,651.9 1371.4,628.7 1325,675.1 1246.8,719.5 1221.9,744.5 
		1129.1,756.9 1100.3,772 967.8,778.8 895.8,782.1 593.5,785.5 542.7,782.8 534.3,779.4 505,774.5 469.1,761.4 413.7,750 
		340.4,766.3 270.3,753.3 211.6,748.4 152.9,730.5 213.2,735.4 255.6,738.6 218.1,717.4 143.1,694.6 56.7,655.5 12.7,577.2 0,563 
		0,695.3 0,799.7 0,800 1440,800 1440,799.7 1440,707.3 1440,509.4 	"/>
</g>
</svg>
